<?xml version="1.0" encoding="UTF-8" standalone="no"?>
<!-- Generator: Adobe Illustrator 16.0.3, SVG Export Plug-In . SVG Version: 6.00 Build 0)  -->

<svg
   xmlns:dc="http://purl.org/dc/elements/1.1/"
   xmlns:cc="http://creativecommons.org/ns#"
   xmlns:rdf="http://www.w3.org/1999/02/22-rdf-syntax-ns#"
   xmlns:svg="http://www.w3.org/2000/svg"
   xmlns="http://www.w3.org/2000/svg"
   xmlns:sodipodi="http://sodipodi.sourceforge.net/DTD/sodipodi-0.dtd"
   xmlns:inkscape="http://www.inkscape.org/namespaces/inkscape"
   version="1.1"
   id="Layer_1"
   x="0px"
   y="0px"
   width="84px"
   height="86px"
   viewBox="0 0 84 86"
   enable-background="new 0 0 84 86"
   xml:space="preserve"
   inkscape:version="0.48.3.1 r9886"
   sodipodi:docname="room_price.svg"><metadata
   id="metadata10"><rdf:RDF><cc:Work
       rdf:about=""><dc:format>image/svg+xml</dc:format><dc:type
         rdf:resource="http://purl.org/dc/dcmitype/StillImage" /><dc:title></dc:title></cc:Work></rdf:RDF></metadata><defs
   id="defs8" /><sodipodi:namedview
   pagecolor="#ffffff"
   bordercolor="#666666"
   borderopacity="1"
   objecttolerance="10"
   gridtolerance="10"
   guidetolerance="10"
   inkscape:pageopacity="0"
   inkscape:pageshadow="2"
   inkscape:window-width="1018"
   inkscape:window-height="666"
   id="namedview6"
   showgrid="false"
   inkscape:zoom="1.372093"
   inkscape:cx="-26.675694"
   inkscape:cy="-22.545554"
   inkscape:window-x="309"
   inkscape:window-y="174"
   inkscape:window-maximized="0"
   inkscape:current-layer="Layer_1" />

<rect
   id="_x3C_Slice_x3E__95_"
   fill="none"
   width="84"
   height="86" />
<path
   style="fill:#000000"
   d=""
   id="path3859"
   inkscape:connector-curvature="0" /><path
   inkscape:connector-curvature="0"
   id="path3996"
   d="m 77.464935,58.639527 0,-2.047196 -6.905016,0 -6.905016,0 -4.803352,-4.79478 -4.803348,-4.794781 -10.949005,2.065187 c -6.021952,1.135852 -11.258115,2.065187 -11.635921,2.065187 -0.770653,0 -30.1765345,-14.353342 -29.9237537,-14.606119 0.08878,-0.08878 13.4082117,-2.65468 29.5987337,-5.701995 22.486988,-4.232413 29.495797,-5.440088 29.685006,-5.11497 0.194043,0.333427 0.822171,0.288126 2.900194,-0.209161 1.458876,-0.349126 2.844428,-0.635969 3.079002,-0.637432 0.330892,-0.002 0.426499,2.09398 0.426499,9.350323 l 0,9.352987 -1.364797,0.230583 c -0.801327,0.135384 -1.364797,0.420009 -1.364797,0.689396 0,0.509329 -0.300211,0.621611 -3.200934,1.1972 l -2.006739,0.398197 3.030337,3.044695 3.030334,3.044694 5.970987,-0.0927 5.970987,-0.0927 0.101582,-2.132496 0.101578,-2.132495 2.030917,0 2.030913,0 0,6.482786 0,6.482785 -2.047195,0 -2.047196,0 0,-2.047195 z M 15.878472,52.854825 C 14.297447,52.200869 13.568959,50.884293 12.918835,47.505936 12.5697,45.691664 12.337503,44.1538 12.402843,44.088464 c 0.141959,-0.141959 13.4684,6.835593 13.922393,7.289586 0.192757,0.192757 -1.244681,0.604373 -3.701002,1.059788 -4.252847,0.788505 -5.640232,0.874265 -6.745762,0.416987 z"
   style="fill:#97bbd5;fill-opacity:1" /></svg>