<?xml version="1.0" encoding="UTF-8" standalone="no"?>
<!-- Generator: Adobe Illustrator 16.0.3, SVG Export Plug-In . SVG Version: 6.00 Build 0)  -->

<svg
   xmlns:dc="http://purl.org/dc/elements/1.1/"
   xmlns:cc="http://creativecommons.org/ns#"
   xmlns:rdf="http://www.w3.org/1999/02/22-rdf-syntax-ns#"
   xmlns:svg="http://www.w3.org/2000/svg"
   xmlns="http://www.w3.org/2000/svg"
   xmlns:sodipodi="http://sodipodi.sourceforge.net/DTD/sodipodi-0.dtd"
   xmlns:inkscape="http://www.inkscape.org/namespaces/inkscape"
   version="1.1"
   id="Layer_1"
   x="0px"
   y="0px"
   width="69px"
   height="86px"
   viewBox="0 0 69 86"
   enable-background="new 0 0 69 86"
   xml:space="preserve"
   inkscape:version="0.48.3.1 r9886"
   sodipodi:docname="guest_type.svg"><metadata
   id="metadata11"><rdf:RDF><cc:Work
       rdf:about=""><dc:format>image/svg+xml</dc:format><dc:type
         rdf:resource="http://purl.org/dc/dcmitype/StillImage" /></cc:Work></rdf:RDF></metadata><defs
   id="defs9" /><sodipodi:namedview
   pagecolor="#ffffff"
   bordercolor="#666666"
   borderopacity="1"
   objecttolerance="10"
   gridtolerance="10"
   guidetolerance="10"
   inkscape:pageopacity="0"
   inkscape:pageshadow="2"
   inkscape:window-width="1090"
   inkscape:window-height="672"
   id="namedview7"
   showgrid="false"
   inkscape:zoom="2.744186"
   inkscape:cx="34.5"
   inkscape:cy="43"
   inkscape:window-x="421"
   inkscape:window-y="227"
   inkscape:window-maximized="0"
   inkscape:current-layer="Layer_1" />
<path
   style="fill:#97bbd5"
   d="M 34.5 0.8125 C 24.273 0.8125 16 9.2145 16 19.5625 C 16 26.2575 18.66075 34.9765 23.84375 40.3125 C 23.84375 40.3125 28.8125 44.91075 28.8125 46.46875 C 28.8125 48.71975 27.1235 50.607 24.9375 50.875 C 14.0255 52.023 7.4935 55.46875 2.4375 62.09375 C 0.9725 64.00675 0.176 67.85325 0.125 69.90625 C 0.141 70.43325 0.125 78.78125 0.125 78.78125 C 0.125 82.69925 3.2925 85.84375 7.1875 85.84375 L 61.84375 85.84375 C 65.73875 85.84375 68.875 82.69925 68.875 78.78125 C 68.875 78.78125 68.855 70.43325 68.875 69.90625 C 68.824 67.85225 68.0255 64.00675 66.5625 62.09375 C 61.4495 55.37875 54.86175 51.89925 43.71875 50.78125 C 41.70875 50.37925 40.1875 48.59275 40.1875 46.46875 C 40.1875 44.91075 45.159 40.24975 45.125 40.21875 C 50.254 34.88675 53.03125 26.2225 53.03125 19.5625 C 53.03125 9.2145 44.723 0.8125 34.5 0.8125 z M 36 53.75 C 38.39582 53.75003 40.304673 54.393258 41.75 55.65625 C 43.208316 56.919297 43.937482 58.585962 43.9375 60.65625 C 43.937482 61.645855 43.718732 62.601583 43.25 63.5 C 42.781233 64.385436 41.953109 65.380226 40.78125 66.5 L 39.0625 68.1875 C 38.450508 68.799494 38.010404 69.273452 37.75 69.625 C 37.502592 69.963555 37.322905 70.299492 37.21875 70.625 C 37.140613 70.89845 37.101551 71.234387 37.0625 71.625 C 37.023426 72.015636 36.999989 72.541678 37 73.21875 L 37 75.625 L 33.25 75.625 L 33.25 72.59375 C 33.249992 71.278658 33.447909 70.221367 33.8125 69.375 C 34.177075 68.528661 34.953116 67.526058 36.125 66.40625 L 37.875 64.6875 C 38.617174 63.997415 39.143216 63.330749 39.46875 62.71875 C 39.807277 62.106792 39.968736 61.481793 39.96875 60.84375 C 39.968736 59.68492 39.546861 58.747421 38.6875 58.03125 C 37.841133 57.31513 36.718739 56.968776 35.3125 56.96875 C 34.283845 56.968776 33.171867 57.200547 32 57.65625 C 30.84114 58.112005 29.638017 58.752629 28.375 59.625 L 28.375 55.96875 C 29.598954 55.226591 30.843745 54.677112 32.09375 54.3125 C 33.356763 53.947946 34.658845 53.75003 36 53.75 z M 33.15625 78.5 L 37.125 78.5 L 37.125 83.4375 L 33.15625 83.4375 L 33.15625 78.5 z "
   id="path3" />
<rect
   id="_x3C_Slice_x3E__136_"
   x="0.125"
   y="0.822"
   fill="none"
   width="68.762"
   height="85.018" />
<rect
   id="_x3C_Slice_x3E__101_"
   fill="none"
   width="69"
   height="86" />
</svg>