<?xml version="1.0" encoding="UTF-8" standalone="no"?>
<!-- Generator: Adobe Illustrator 16.0.3, SVG Export Plug-In . SVG Version: 6.00 Build 0)  -->

<svg
   xmlns:dc="http://purl.org/dc/elements/1.1/"
   xmlns:cc="http://creativecommons.org/ns#"
   xmlns:rdf="http://www.w3.org/1999/02/22-rdf-syntax-ns#"
   xmlns:svg="http://www.w3.org/2000/svg"
   xmlns="http://www.w3.org/2000/svg"
   xmlns:sodipodi="http://sodipodi.sourceforge.net/DTD/sodipodi-0.dtd"
   xmlns:inkscape="http://www.inkscape.org/namespaces/inkscape"
   version="1.1"
   id="Layer_1"
   x="0px"
   y="0px"
   width="69px"
   height="86px"
   viewBox="0 0 69 86"
   enable-background="new 0 0 69 86"
   xml:space="preserve"
   inkscape:version="0.48.3.1 r9886"
   sodipodi:docname="hotel2.svg"><metadata
   id="metadata11"><rdf:RDF><cc:Work
       rdf:about=""><dc:format>image/svg+xml</dc:format><dc:type
         rdf:resource="http://purl.org/dc/dcmitype/StillImage" /><dc:title /></cc:Work></rdf:RDF></metadata><defs
   id="defs9" /><sodipodi:namedview
   pagecolor="#ffffff"
   bordercolor="#666666"
   borderopacity="1"
   objecttolerance="10"
   gridtolerance="10"
   guidetolerance="10"
   inkscape:pageopacity="0"
   inkscape:pageshadow="2"
   inkscape:window-width="1090"
   inkscape:window-height="672"
   id="namedview7"
   showgrid="false"
   inkscape:zoom="2.744186"
   inkscape:cx="-37.759591"
   inkscape:cy="52.501998"
   inkscape:window-x="192"
   inkscape:window-y="228"
   inkscape:window-maximized="0"
   inkscape:current-layer="Layer_1" />

<rect
   id="_x3C_Slice_x3E__136_"
   x="0.125"
   y="0.822"
   fill="none"
   width="68.762"
   height="85.018" />
<rect
   id="_x3C_Slice_x3E__101_"
   fill="none"
   width="69"
   height="86" />
<path
   style="fill:#d5e7f6;fill-opacity:1"
   d="M 13.268689,72.72611 C 8.9986213,71.576018 5.6046808,68.148059 4.4867899,63.856187 c -0.5169258,-1.984612 -0.5169258,-39.0584 0,-41.043011 1.1310851,-4.342526 4.5390074,-7.750449 8.8815311,-8.881533 1.984613,-0.516926 39.0584,-0.516926 41.043013,0 4.342525,1.131084 7.750447,4.539007 8.881532,8.881533 0.516926,1.984611 0.516926,39.058399 0,41.043011 -1.131085,4.342525 -4.539007,7.750448 -8.881532,8.881533 -1.919897,0.500068 -39.282021,0.489526 -41.142645,-0.01158 z m 14.810762,-13.587207 0.116207,-6.391413 5.694169,0 5.694168,0 0.116206,6.391413 0.116207,6.391415 2.905188,0 2.905188,0 0,-14.758355 0,-14.758355 -2.905188,0 -2.905188,0 -0.06216,5.752271 -0.06217,5.752273 -5.802254,0 -5.802256,0 -0.06216,-5.752273 -0.06217,-5.752271 -2.905188,0 -2.905188,0 -0.06025,14.525939 c -0.03314,7.989266 -0.0091,14.659909 0.05357,14.823651 0.08591,0.224696 0.813172,0.281693 2.965442,0.232414 l 2.851618,-0.0653 0.116206,-6.391414 z M 23.663565,30.784268 c 5.367598,-2.684393 9.969416,-4.880715 10.226263,-4.880715 0.256847,0 4.858664,2.196322 10.226261,4.880715 5.367599,2.684395 9.89419,4.880717 10.059091,4.880717 0.297652,0 1.794076,-2.767083 1.794076,-3.317478 0,-0.33984 -21.402969,-11.092255 -22.079428,-11.092255 -0.676461,0 -22.07943,10.752415 -22.07943,11.092255 0,0.550395 1.496428,3.317478 1.794077,3.317478 0.164901,0 4.691493,-2.196322 10.05909,-4.880717 z"
   id="path3810"
   inkscape:connector-curvature="0" /></svg>