<?xml version="1.0" encoding="UTF-8" standalone="no"?>
<!-- Generator: Adobe Illustrator 16.0.3, SVG Export Plug-In . SVG Version: 6.00 Build 0)  -->

<svg
   xmlns:dc="http://purl.org/dc/elements/1.1/"
   xmlns:cc="http://creativecommons.org/ns#"
   xmlns:rdf="http://www.w3.org/1999/02/22-rdf-syntax-ns#"
   xmlns:svg="http://www.w3.org/2000/svg"
   xmlns="http://www.w3.org/2000/svg"
   xmlns:sodipodi="http://sodipodi.sourceforge.net/DTD/sodipodi-0.dtd"
   xmlns:inkscape="http://www.inkscape.org/namespaces/inkscape"
   version="1.1"
   id="Layer_1"
   x="0px"
   y="0px"
   width="84px"
   height="86px"
   viewBox="0 0 84 86"
   enable-background="new 0 0 84 86"
   xml:space="preserve"
   inkscape:version="0.48.3.1 r9886"
   sodipodi:docname="hotel.svg"><metadata
   id="metadata10"><rdf:RDF><cc:Work
       rdf:about=""><dc:format>image/svg+xml</dc:format><dc:type
         rdf:resource="http://purl.org/dc/dcmitype/StillImage" /><dc:title></dc:title></cc:Work></rdf:RDF></metadata><defs
   id="defs8" /><sodipodi:namedview
   pagecolor="#ffffff"
   bordercolor="#666666"
   borderopacity="1"
   objecttolerance="10"
   gridtolerance="10"
   guidetolerance="10"
   inkscape:pageopacity="0"
   inkscape:pageshadow="2"
   inkscape:window-width="1018"
   inkscape:window-height="666"
   id="namedview6"
   showgrid="false"
   inkscape:zoom="2.744186"
   inkscape:cx="13.051675"
   inkscape:cy="23.782445"
   inkscape:window-x="539"
   inkscape:window-y="242"
   inkscape:window-maximized="0"
   inkscape:current-layer="Layer_1" />

<rect
   id="_x3C_Slice_x3E__95_"
   fill="none"
   width="84"
   height="86" />
<path
   inkscape:connector-curvature="0"
   id="path3820"
   d="m 0.86700717,44.123881 c 0,-20.582135 0.0629713,-23.693828 0.49806303,-24.610709 0.9490507,-1.999982 3.4467295,-2.501503 4.9539813,-0.994735 l 0.8331678,0.832897 0.1611593,14.25554 0.1611592,14.255539 37.9530082,0.0819 37.953013,0.08191 0,9.829388 0,9.829388 -3.223187,0 -3.223186,0 0,-6.607527 0,-6.607527 -34.810405,0 -34.8104024,0 0,6.607527 0,6.607527 -3.2231857,0 -3.22318573,0 0,-23.56112 z M 12.997422,42.198443 c -1.064148,-0.837058 -1.164383,-2.562355 -0.204628,-3.52211 0.604534,-0.604535 1.074395,-0.644638 7.552795,-0.644638 l 6.908157,0 0.102268,-5.311794 c 0.101965,-5.295778 0.104924,-5.314439 0.981811,-6.190468 0.752284,-0.751547 1.125365,-0.872017 2.578549,-0.83263 2.38552,0.06467 47.613733,4.54861 48.596357,4.817869 1.490272,0.408362 2.837193,1.413576 3.354321,2.503342 0.391565,0.825164 0.513503,2.122945 0.513503,5.465291 l 0,4.383169 -34.766939,0 c -34.684717,0 -34.768942,-0.0016 -35.616198,-0.668031 z m 1.970233,-8.701557 c -3.183985,-1.680852 -4.008063,-6.19057 -1.644512,-8.999492 1.781317,-2.116975 4.839424,-2.663766 7.44984,-1.33203 4.235695,2.160892 4.200214,8.280216 -0.05997,10.342536 -1.739303,0.841983 -4.138271,0.837384 -5.745361,-0.01102 z"
   style="fill:#97bbd5;fill-opacity:1" /></svg>