<?xml version="1.0" encoding="UTF-8" standalone="no"?>
<!-- Generator: Adobe Illustrator 16.0.3, SVG Export Plug-In . SVG Version: 6.00 Build 0)  -->

<svg
   xmlns:dc="http://purl.org/dc/elements/1.1/"
   xmlns:cc="http://creativecommons.org/ns#"
   xmlns:rdf="http://www.w3.org/1999/02/22-rdf-syntax-ns#"
   xmlns:svg="http://www.w3.org/2000/svg"
   xmlns="http://www.w3.org/2000/svg"
   xmlns:sodipodi="http://sodipodi.sourceforge.net/DTD/sodipodi-0.dtd"
   xmlns:inkscape="http://www.inkscape.org/namespaces/inkscape"
   version="1.1"
   id="Layer_1"
   x="0px"
   y="0px"
   width="84px"
   height="86px"
   viewBox="0 0 84 86"
   enable-background="new 0 0 84 86"
   xml:space="preserve"
   inkscape:version="0.48.5 r10040"
   sodipodi:docname="plugin.svg"><metadata
     id="metadata10"><rdf:RDF><cc:Work
         rdf:about=""><dc:format>image/svg+xml</dc:format><dc:type
           rdf:resource="http://purl.org/dc/dcmitype/StillImage" /><dc:title /></cc:Work></rdf:RDF></metadata><defs
     id="defs8" /><sodipodi:namedview
     pagecolor="#ffffff"
     bordercolor="#666666"
     borderopacity="1"
     objecttolerance="10"
     gridtolerance="10"
     guidetolerance="10"
     inkscape:pageopacity="0"
     inkscape:pageshadow="2"
     inkscape:window-width="1294"
     inkscape:window-height="802"
     id="namedview6"
     showgrid="false"
     inkscape:zoom="1.372093"
     inkscape:cx="-155.31129"
     inkscape:cy="-22.545554"
     inkscape:window-x="2481"
     inkscape:window-y="160"
     inkscape:window-maximized="0"
     inkscape:current-layer="Layer_1" /><rect
     id="_x3C_Slice_x3E__95_"
     fill="none"
     width="84"
     height="86" /><path
     style="fill:#000000"
     d=""
     id="path3859"
     inkscape:connector-curvature="0" /><path
     style="fill:#97bbd5;fill-opacity:1"
     d="m 81.845977,60.56016 c -0.0987,3.388545 -2.819926,6.421055 -6.221956,6.933687 -1.760135,0.265227 -2.655171,0.06506 -4.249061,-0.950237 -1.260235,-0.80276 -2.152689,-1.780326 -2.374287,-2.600717 -0.593356,-2.197305 -2.236284,-4.592553 -3.324106,-4.846798 -2.90423,-0.678774 -7.384956,2.411609 -10.312427,7.11254 -0.973794,1.563727 -2.650141,4.892792 -3.725216,7.397935 -1.075075,2.505138 -2.209924,4.623192 -2.521891,4.706782 -0.772543,0.207 -7.044262,-2.997366 -11.280548,-5.763506 -8.553265,-5.584957 -8.730732,-6.789986 -1.58411,-10.756417 4.613122,-2.560317 5.881149,-4.891089 4.818502,-8.856934 -1.446629,-5.398894 -7.568477,-6.894237 -11.972817,-2.924524 -2.429704,2.189945 -3.020766,4.053188 -2.226308,7.018143 0.599789,2.238453 0.550334,2.671088 -0.442836,3.873901 -2.158505,2.614117 -3.075677,2.435573 -11.165432,-2.173532 -4.083655,-2.326649 -7.4929175,-4.484364 -7.5761324,-4.794918 -0.083179,-0.31056 2.0573691,-4.737885 4.7568514,-9.838509 2.69949,-5.10062 4.818062,-9.610077 4.707953,-10.021012 -0.623014,-2.325121 -2.695027,-3.024041 -7.132473,-2.405892 -3.7540372,0.522949 -4.8947752,0.04223 -6.8141764,-2.871604 -1.825317,-2.770998 -1.8422895,-5.268382 -0.054036,-7.948108 2.2802977,-3.417033 5.7199178,-4.278 9.1588296,-2.29254 1.858889,1.073227 2.078602,1.397762 2.831683,4.182404 0.94605,3.49817 2.072951,4.965628 4.105951,5.346731 3.948991,0.740269 9.348738,-5.777246 13.231564,-15.970545 l 0.629124,-1.651588 2.570012,1.162139 c 1.413507,0.639176 4.944135,2.343058 7.845845,3.786411 5.144739,2.559067 5.289838,2.676554 5.839584,4.72823 l 0.563752,2.103952 -3.782069,2.622715 c -2.08014,1.442491 -4.081595,3.086506 -4.447681,3.653361 -1.022802,1.583708 -0.816021,4.613119 0.442351,6.480686 1.434562,2.129066 2.392392,2.732832 4.978835,3.138408 4.175342,0.654726 6.498027,-1.667359 8.12387,-8.121769 1.124813,-4.465394 1.971635,-5.089588 5.88824,-4.340243 4.200363,0.803639 13.317139,6.627717 12.843466,8.204811 -0.09517,0.316871 -2.076392,3.291056 -4.402707,6.609297 -2.326321,3.318237 -4.347108,6.535636 -4.490639,7.149765 -0.143536,0.614131 0.08051,1.935382 0.497892,2.936122 1.056003,2.53198 3.48798,3.886645 6.990878,3.894068 1.55102,0.0033 3.698644,0.0075 4.772494,0.0095 2.830637,0.005 4.610133,2.406815 4.503214,6.077809 z"
     id="path2995"
     inkscape:connector-curvature="0" /></svg>