<?xml version="1.0" encoding="UTF-8" standalone="no"?>
<!-- Generator: Adobe Illustrator 16.0.3, SVG Export Plug-In . SVG Version: 6.00 Build 0)  -->

<svg
   xmlns:dc="http://purl.org/dc/elements/1.1/"
   xmlns:cc="http://creativecommons.org/ns#"
   xmlns:rdf="http://www.w3.org/1999/02/22-rdf-syntax-ns#"
   xmlns:svg="http://www.w3.org/2000/svg"
   xmlns="http://www.w3.org/2000/svg"
   xmlns:sodipodi="http://sodipodi.sourceforge.net/DTD/sodipodi-0.dtd"
   xmlns:inkscape="http://www.inkscape.org/namespaces/inkscape"
   version="1.1"
   id="Layer_1"
   x="0px"
   y="0px"
   width="85px"
   height="79px"
   viewBox="0 0 85 79"
   enable-background="new 0 0 85 79"
   xml:space="preserve"
   inkscape:version="0.48.3.1 r9886"
   sodipodi:docname="presentation.svg"><metadata
   id="metadata13"><rdf:RDF><cc:Work
       rdf:about=""><dc:format>image/svg+xml</dc:format><dc:type
         rdf:resource="http://purl.org/dc/dcmitype/StillImage" /></cc:Work></rdf:RDF></metadata><defs
   id="defs11" /><sodipodi:namedview
   pagecolor="#ffffff"
   bordercolor="#666666"
   borderopacity="1"
   objecttolerance="10"
   gridtolerance="10"
   guidetolerance="10"
   inkscape:pageopacity="0"
   inkscape:pageshadow="2"
   inkscape:window-width="640"
   inkscape:window-height="480"
   id="namedview9"
   showgrid="false"
   inkscape:zoom="2.9873418"
   inkscape:cx="42.5"
   inkscape:cy="39.5"
   inkscape:window-x="753"
   inkscape:window-y="259"
   inkscape:window-maximized="0"
   inkscape:current-layer="Layer_1" />

<path
   fill="#97BBD5"
   d="M77.314,0.041H7.127c-3.877,0-7.018,3.133-7.018,7v64.75c0,3.869,3.141,7.004,7.018,7.004h70.188  c3.877,0,7.02-3.135,7.02-7.004V7.041C84.334,3.174,81.191,0.041,77.314,0.041z M44.854,8.791c2.422,0,4.387,1.961,4.387,4.377  c0,2.414-1.965,4.375-4.387,4.375c-2.42,0-4.389-1.961-4.389-4.375C40.465,10.752,42.434,8.791,44.854,8.791z M29.061,8.791  c2.422,0,4.387,1.961,4.387,4.377c0,2.414-1.965,4.375-4.387,4.375c-2.42,0-4.387-1.961-4.387-4.375  C24.674,10.752,26.641,8.791,29.061,8.791z M13.27,8.791c2.418,0,4.387,1.961,4.387,4.377c0,2.414-1.969,4.375-4.387,4.375  c-2.422,0-4.387-1.961-4.387-4.375C8.883,10.752,10.848,8.791,13.27,8.791z M75.559,66.193c0,2.135-1.719,3.85-3.857,3.85H12.742  c-2.141,0-3.859-1.715-3.859-3.85V28.393c0-2.137,1.719-3.854,3.859-3.854h58.959c2.139,0,3.857,1.717,3.857,3.854V66.193z"
   id="path5" />
<rect
   id="_x3C_Slice_x3E__128_"
   x="0.109"
   y="0.041"
   fill="none"
   width="84.225"
   height="78.754" />
<rect
   id="_x3C_Slice_x3E__121_"
   fill="none"
   width="85"
   height="79" />
<path
   style="fill:#97bbd5"
   inkscape:connector-curvature="0"
   d="m 63.577511,42.974569 -0.102538,-0.459434 c -0.218589,-0.975302 -0.527792,-1.959348 -0.945098,-3.008572 l -0.166126,-0.417306 -0.448306,-0.0294 c -1.639811,-0.10413 -3.382954,-0.04055 -5.099869,0.189179 -0.03418,-0.05723 -0.06677,-0.113664 -0.100947,-0.170898 -0.231305,-0.389485 -0.468971,-0.794866 -0.778174,-1.174018 -0.276615,-0.395844 -0.59774,-0.796457 -0.975302,-1.215353 0.755918,-1.372736 1.392607,-2.820984 1.985579,-4.514847 l 0.161364,-0.459432 -0.372793,-0.316357 C 55.805306,30.608033 55.002489,30.01506 54.206033,29.530193 l -0.379152,-0.231307 -0.372792,0.239255 c -1.460967,0.926815 -2.805087,1.979219 -4.003747,3.130983 -0.360075,-0.158181 -0.72174,-0.288538 -1.074661,-0.415716 L 47.934529,32.09363 C 47.45443,31.952137 46.950484,31.806682 46.429845,31.691427 46.208078,30.030153 45.846413,28.373649 45.375852,26.866581 l -0.14466,-0.461022 -0.485664,-0.03418 c -1.246352,-0.08982 -2.213706,-0.0946 -3.134162,-0.01987 l -0.437971,0.03577 -0.162956,0.408562 c -0.6041,1.495146 -1.083405,3.176291 -1.398968,4.890025 -0.529381,0.116043 -1.04207,0.265485 -1.529323,0.410152 l -0.437973,0.156589 C 37.297612,32.3782 36.942307,32.505375 36.59018,32.66117 35.4567,31.460921 34.219886,30.360028 32.904381,29.385521 l -0.372792,-0.278203 -0.403794,0.229717 c -0.877534,0.499972 -1.666042,1.111223 -2.42832,1.705784 l -0.506331,0.392665 0.12241,0.457844 c 0.490434,1.808323 1.053995,3.339238 1.755863,4.777153 -0.381537,0.425253 -0.709817,0.832226 -0.993584,1.234428 -0.306025,0.380742 -0.54528,0.785329 -0.776586,1.176404 -0.0294,0.05008 -0.05883,0.09617 -0.08664,0.14466 -1.599275,-0.294894 -3.255777,-0.462612 -4.928973,-0.496791 l -0.503152,-0.0095 -0.248792,0.654972 c -0.338615,0.895815 -0.687561,1.822631 -0.905356,2.798728 l -0.0946,0.423665 0.332255,0.278203 c 1.267018,1.058763 2.685857,2.008629 4.223131,2.832906 -0.02781,0.294897 -0.03896,0.588203 -0.04849,0.872766 -0.0095,0.224947 -0.01669,0.44751 -0.03259,0.670867 l -0.0048,0.05564 0.0048,0.05405 c 0.01592,0.223357 0.02305,0.447509 0.03259,0.670868 0.0095,0.276613 0.01828,0.560381 0.0453,0.848917 -1.541246,0.732869 -3.006983,1.586556 -4.262873,2.483961 l -0.384716,0.273434 0.102538,0.461024 c 0.221769,0.982455 0.530972,1.967296 0.946688,3.008572 l 0.164536,0.417306 0.448306,0.02781 c 1.640606,0.107314 3.386134,0.04212 5.099869,-0.187589 0.03418,0.05405 0.06677,0.110481 0.100947,0.166128 0.231305,0.392665 0.470561,0.798047 0.776585,1.177993 0.279794,0.395845 0.599329,0.796458 0.976891,1.213762 -0.757508,1.375122 -1.392607,2.824164 -1.985577,4.514847 l -0.159773,0.461024 0.371204,0.316358 c 0.929994,0.790098 1.734401,1.383068 2.530857,1.866348 l 0.379153,0.231307 0.372792,-0.237666 c 1.460966,-0.928406 2.803497,-1.980809 4.003746,-3.132572 0.358485,0.159772 0.723331,0.290126 1.077046,0.417306 l 0.391075,0.143068 0.0469,0.01592 c 0.480894,0.143085 0.984046,0.286947 1.503093,0.403793 0.221768,1.662862 0.585024,3.320956 1.053994,4.823256 l 0.146252,0.462612 0.484075,0.03418 c 0.66451,0.04849 1.251121,0.07154 1.794811,0.07154 0.473741,0 0.910918,-0.01669 1.341736,-0.05087 l 0.436381,-0.03736 0.164538,-0.406972 c 0.602511,-1.496736 1.083404,-3.179469 1.397377,-4.891613 0.529382,-0.115256 1.042072,-0.263897 1.530916,-0.408563 l 0.439561,-0.158182 c 0.346563,-0.125593 0.700278,-0.252768 1.050815,-0.406971 1.13348,1.19866 2.370294,2.299551 3.685799,3.275647 l 0.372794,0.278204 0.403791,-0.231305 c 0.878329,-0.499972 1.667632,-1.111226 2.429911,-1.704992 l 0.50633,-0.392663 -0.124789,-0.45705 c -0.490433,-1.805143 -1.052404,-3.337649 -1.755862,-4.777152 0.383126,-0.426844 0.711406,-0.833816 0.991994,-1.234429 0.309203,-0.380743 0.546868,-0.78533 0.778175,-1.176405 0.02941,-0.04849 0.05723,-0.09617 0.08664,-0.146252 1.600863,0.296486 3.257366,0.464203 4.928973,0.496792 l 0.50315,0.01116 0.245615,-0.653381 c 0.340203,-0.897405 0.69074,-1.82422 0.910122,-2.801907 l 0.09301,-0.423664 -0.332256,-0.278204 c -1.268607,-1.057174 -2.685855,-2.00863 -4.223129,-2.832112 0.0294,-0.296486 0.03895,-0.589792 0.05008,-0.875944 0.0095,-0.223359 0.01592,-0.447511 0.03259,-0.669278 l 0.0048,-0.05405 -0.0048,-0.05564 c -0.01669,-0.221767 -0.02305,-0.44592 -0.03259,-0.669278 -0.01116,-0.278204 -0.01828,-0.561972 -0.0469,-0.848918 1.541248,-0.734457 3.005394,-1.586556 4.262875,-2.483961 l 0.38551,-0.275023 z m -13.528642,9.456537 c -0.124002,0.178845 -0.257537,0.352125 -0.399024,0.521433 -0.990405,1.182763 -2.368705,2.109578 -3.944927,2.643729 -0.180435,0.05883 -0.364844,0.107314 -0.549253,0.153407 -0.695509,0.174074 -1.423608,0.263894 -2.146937,0.263894 -0.918866,0 -1.836938,-0.139901 -2.685857,-0.414125 -1.808323,-0.612842 -3.355135,-1.73758 -4.367,-3.185828 -1.063533,-1.426788 -1.640607,-3.196162 -1.669222,-5.095101 0.02781,-1.920398 0.607279,-3.690569 1.682734,-5.134047 0.998353,-1.431557 2.544371,-2.555499 4.34554,-3.165162 0.855277,-0.279793 1.76381,-0.420486 2.695395,-0.420486 0.931585,0 1.838529,0.141493 2.687447,0.415716 1.806733,0.614433 3.353546,1.73917 4.365411,3.187419 1.063533,1.426787 1.640606,3.196162 1.670812,5.093509 -0.03021,1.92199 -0.608074,3.691364 -1.685119,5.135639 z"
   id="path2991" /><rect
   style="fill:none"
   id="_x3C_Slice_x3E__150_"
   x="21.208115"
   y="26.846973"
   width="40.695667"
   height="41.29731" /><rect
   style="fill:none"
   y="26.461864"
   x="20.920856"
   id="_x3C_Slice_x3E__155_"
   width="41.17524"
   height="42.144066" /></svg>