<?xml version="1.0" encoding="UTF-8" standalone="no"?>
<!-- Generator: Adobe Illustrator 16.0.3, SVG Export Plug-In . SVG Version: 6.00 Build 0)  -->

<svg
   xmlns:dc="http://purl.org/dc/elements/1.1/"
   xmlns:cc="http://creativecommons.org/ns#"
   xmlns:rdf="http://www.w3.org/1999/02/22-rdf-syntax-ns#"
   xmlns:svg="http://www.w3.org/2000/svg"
   xmlns="http://www.w3.org/2000/svg"
   xmlns:sodipodi="http://sodipodi.sourceforge.net/DTD/sodipodi-0.dtd"
   xmlns:inkscape="http://www.inkscape.org/namespaces/inkscape"
   version="1.1"
   id="Layer_1"
   x="0px"
   y="0px"
   width="69px"
   height="86px"
   viewBox="0 0 69 86"
   enable-background="new 0 0 69 86"
   xml:space="preserve"
   inkscape:version="0.48.3.1 r9886"
   sodipodi:docname="restaurant.svg"><metadata
   id="metadata11"><rdf:RDF><cc:Work
       rdf:about=""><dc:format>image/svg+xml</dc:format><dc:type
         rdf:resource="http://purl.org/dc/dcmitype/StillImage" /><dc:title /></cc:Work></rdf:RDF></metadata><defs
   id="defs9" /><sodipodi:namedview
   pagecolor="#ffffff"
   bordercolor="#666666"
   borderopacity="1"
   objecttolerance="10"
   gridtolerance="10"
   guidetolerance="10"
   inkscape:pageopacity="0"
   inkscape:pageshadow="2"
   inkscape:window-width="1090"
   inkscape:window-height="672"
   id="namedview7"
   showgrid="false"
   inkscape:zoom="2.744186"
   inkscape:cx="-36.186662"
   inkscape:cy="33.920617"
   inkscape:window-x="192"
   inkscape:window-y="228"
   inkscape:window-maximized="0"
   inkscape:current-layer="Layer_1" />

<rect
   id="_x3C_Slice_x3E__136_"
   x="0.125"
   y="0.822"
   fill="none"
   width="68.762"
   height="85.018" />
<rect
   id="_x3C_Slice_x3E__101_"
   fill="none"
   width="69"
   height="86" />
<path
   style="fill:#d5e7f6;fill-opacity:1"
   d="M 30.393329,77.101943 C 17.839262,75.36194 7.1550396,66.606696 3.2380381,54.849403 1.9218136,50.898615 1.5552153,48.567197 1.5552153,44.147313 c 0,-4.437316 0.3649706,-6.743169 1.7053317,-10.774131 3.1244649,-9.396424 11.2288,-17.481348 20.679395,-20.629861 3.950788,-1.316224 6.282205,-1.682822 10.702089,-1.682822 7.102329,0 12.522966,1.623941 18.43285,5.522204 7.197354,4.747501 12.321292,12.451149 14.189771,21.333788 0.6408,3.046332 0.6408,9.415313 0,12.461645 -1.480327,7.037381 -4.610363,12.760428 -9.628545,17.605107 -4.714461,4.551458 -10.153635,7.411969 -16.633445,8.747683 -2.498613,0.515053 -8.145372,0.712523 -10.609333,0.371017 z M 41.901234,74.017974 C 53.78542,71.030506 62.815886,61.334574 64.909683,49.314008 65.526922,45.770417 65.302999,39.965458 64.419959,36.618403 61.28789,24.746686 51.783587,15.965497 39.808724,13.879661 36.265134,13.262422 30.460175,13.486345 27.11312,14.369385 15.251176,17.498876 6.4584965,27.015616 4.3743771,38.980619 3.8000093,42.278085 3.9932715,48.283263 4.7742708,51.406518 7.695564,63.088865 17.297928,72.158655 29.100562,74.383599 c 3.000176,0.565569 9.877832,0.369124 12.800672,-0.365625 z M 30.877575,71.891322 c -0.999528,-0.144425 -1.958374,-0.400065 -2.13077,-0.56809 -0.551812,-0.537819 -0.849365,-11.130071 -0.852161,-30.335 -0.0015,-10.090692 -0.07358,-18.531509 -0.160257,-18.757373 -0.255614,-0.666118 -0.758781,-0.478936 -1.794619,0.667612 -1.210891,1.340311 -2.35389,3.805887 -3.712537,8.008345 -1.822871,5.638363 -2.123848,7.585343 -2.433528,15.74218 -0.152528,4.017534 -0.192248,7.872855 -0.08826,8.567381 0.165706,1.106792 0.389543,1.455182 1.81211,2.820478 2.186109,2.098096 2.337274,2.627587 2.137759,7.487979 -0.08746,2.130765 -0.224012,3.939102 -0.303436,4.018527 C 23.140592,69.754637 21.016514,68.67475 18.959232,67.310128 11.466294,62.339965 6.6063899,53.227158 6.6063899,44.147313 c 0,-8.571643 4.3328701,-17.227191 11.1699701,-22.313662 8.796034,-6.543824 20.056137,-7.499736 29.707268,-2.52196 18.171376,9.372272 20.416705,34.637994 4.178929,47.023681 -3.082143,2.350968 -7.703076,4.616851 -8.101313,3.972493 -0.189071,-0.305923 -0.836841,-11.166069 -0.858542,-14.393822 l -0.01251,-1.863198 1.408464,-0.644815 c 1.806178,-0.826896 3.670615,-2.547067 4.068984,-3.754135 0.652617,-1.977451 -0.671416,-20.792951 -1.523116,-21.644654 -0.156634,-0.156629 -0.467879,-0.214522 -0.691661,-0.128648 -0.358885,0.137711 -0.406891,1.24549 -0.406891,9.388854 0,8.308308 -0.04252,9.249038 -0.424714,9.395698 -0.233593,0.08964 -0.613284,0.04411 -0.843756,-0.10118 -0.368639,-0.232385 -0.434658,-1.36938 -0.548853,-9.452454 l -0.129809,-9.188298 -0.778853,0 -0.778853,0 -0.06832,9.064128 c -0.07143,9.477457 -0.11916,9.861208 -1.207053,9.705773 -0.535282,-0.07648 -0.543554,-0.192515 -0.671764,-9.423667 l -0.129808,-9.346234 -0.778853,0 -0.778853,0 -0.06831,9.064128 c -0.07143,9.477457 -0.119154,9.861208 -1.207048,9.705773 -0.535282,-0.07648 -0.543554,-0.192515 -0.671764,-9.423667 l -0.129808,-9.346234 -0.614084,-0.08688 c -0.337744,-0.04779 -0.709426,0.01063 -0.825955,0.129809 -0.24348,0.249017 -1.159183,8.155771 -1.54348,13.327382 -0.33145,4.460426 -0.328932,6.886989 0.0084,8.101593 0.350866,1.263323 2.221577,3.111622 4.001692,3.95375 0.775374,0.366812 1.465996,0.757903 1.534714,0.869094 0.175187,0.283459 -0.728806,17.392393 -0.929581,17.593166 -0.294233,0.294232 -5.220623,0.3514 -7.08368,0.0822 z"
   id="path3001"
   inkscape:connector-curvature="0" /></svg>