<?xml version="1.0" encoding="UTF-8" standalone="no"?>
<!-- Generator: Adobe Illustrator 16.0.3, SVG Export Plug-In . SVG Version: 6.00 Build 0)  -->

<svg
   xmlns:dc="http://purl.org/dc/elements/1.1/"
   xmlns:cc="http://creativecommons.org/ns#"
   xmlns:rdf="http://www.w3.org/1999/02/22-rdf-syntax-ns#"
   xmlns:svg="http://www.w3.org/2000/svg"
   xmlns="http://www.w3.org/2000/svg"
   xmlns:sodipodi="http://sodipodi.sourceforge.net/DTD/sodipodi-0.dtd"
   xmlns:inkscape="http://www.inkscape.org/namespaces/inkscape"
   version="1.1"
   id="Layer_1"
   x="0px"
   y="0px"
   width="84px"
   height="86px"
   viewBox="0 0 84 86"
   enable-background="new 0 0 84 86"
   xml:space="preserve"
   inkscape:version="0.48.3.1 r9886"
   sodipodi:docname="season.svg"><metadata
   id="metadata10"><rdf:RDF><cc:Work
       rdf:about=""><dc:format>image/svg+xml</dc:format><dc:type
         rdf:resource="http://purl.org/dc/dcmitype/StillImage" /><dc:title></dc:title></cc:Work></rdf:RDF></metadata><defs
   id="defs8" /><sodipodi:namedview
   pagecolor="#ffffff"
   bordercolor="#666666"
   borderopacity="1"
   objecttolerance="10"
   gridtolerance="10"
   guidetolerance="10"
   inkscape:pageopacity="0"
   inkscape:pageshadow="2"
   inkscape:window-width="1018"
   inkscape:window-height="666"
   id="namedview6"
   showgrid="false"
   inkscape:zoom="1.9404325"
   inkscape:cx="-37.759909"
   inkscape:cy="-0.021770703"
   inkscape:window-x="309"
   inkscape:window-y="174"
   inkscape:window-maximized="0"
   inkscape:current-layer="Layer_1" />

<rect
   id="_x3C_Slice_x3E__95_"
   fill="none"
   width="84"
   height="86" />
<path
   style="fill:#000000"
   d=""
   id="path3859"
   inkscape:connector-curvature="0" /><path
   inkscape:connector-curvature="0"
   id="path2997"
   d="M 9.3336412,84.822344 C 8.1528485,84.413179 7.239739,83.742005 6.6475454,82.847956 5.6066789,81.276535 5.6568582,82.573576 5.7046026,58.473519 l 0.043482,-21.948473 0.4308952,-0.918843 c 0.5477175,-1.167946 1.4297451,-2.049973 2.5976867,-2.597688 0.8660884,-0.406157 1.0887688,-0.434057 3.8783045,-0.485918 2.019438,-0.03754 2.998192,-0.115906 3.081406,-0.246714 0.06707,-0.105424 0.123088,-1.728287 0.124478,-3.606348 0.0037,-5.219081 0.567166,-8.103758 2.35236,-12.046111 3.324203,-7.3410315 9.884794,-12.8703103 17.551782,-14.7926778 2.741364,-0.6873517 3.909551,-0.8235166 6.990238,-0.8147835 2.398423,0.00682 3.288493,0.077317 4.687571,0.3713996 6.854536,1.4407983 12.350595,4.9684366 16.564429,10.6318587 1.529669,2.055891 1.836044,2.756842 1.847963,4.227962 0.01682,2.076096 -1.075911,3.861242 -2.913945,4.760398 -1.189958,0.582118 -3.0326,0.626882 -4.180085,0.101541 -0.995633,-0.455817 -2.477276,-1.809533 -3.252242,-2.971448 -0.826389,-1.239007 -2.71969,-3.028214 -4.308008,-4.07116 -6.402321,-4.203987 -15.046983,-3.196273 -20.325021,2.369304 -1.868318,1.970092 -3.127975,4.145652 -3.937379,6.800264 -0.413412,1.355861 -0.445423,1.691741 -0.51002,5.350858 l -0.06892,3.904187 24.480971,0.04324 24.480974,0.04324 0.918843,0.430898 c 1.167945,0.547713 2.049973,1.429741 2.597689,2.597686 l 0.430896,0.918843 0,22.286529 0,22.286527 -0.430896,0.918843 c -0.547716,1.167947 -1.429744,2.049976 -2.597689,2.597691 l -0.918843,0.430895 -32.566288,0.03658 C 11.754362,85.116949 10.147833,85.104443 9.3336436,84.822331 z M 44.718364,69.090683 c 1.879849,-0.398229 3.747198,-1.433293 5.191585,-2.877679 4.152422,-4.152423 4.152422,-10.650437 0,-14.80286 -4.152425,-4.152423 -10.650438,-4.152423 -14.802859,0 -4.152424,4.152423 -4.152424,10.650437 0,14.80286 2.565799,2.565799 6.095199,3.622526 9.611274,2.877679 z"
   style="fill:#97bbd5;fill-opacity:1" /></svg>