<?xml version="1.0" encoding="UTF-8" standalone="no"?>
<!-- Generator: Adobe Illustrator 16.0.3, SVG Export Plug-In . SVG Version: 6.00 Build 0)  -->

<svg
   xmlns:dc="http://purl.org/dc/elements/1.1/"
   xmlns:cc="http://creativecommons.org/ns#"
   xmlns:rdf="http://www.w3.org/1999/02/22-rdf-syntax-ns#"
   xmlns:svg="http://www.w3.org/2000/svg"
   xmlns="http://www.w3.org/2000/svg"
   xmlns:sodipodi="http://sodipodi.sourceforge.net/DTD/sodipodi-0.dtd"
   xmlns:inkscape="http://www.inkscape.org/namespaces/inkscape"
   version="1.1"
   id="Layer_1"
   x="0px"
   y="0px"
   width="84px"
   height="86px"
   viewBox="0 0 84 86"
   enable-background="new 0 0 84 86"
   xml:space="preserve"
   inkscape:version="0.48.3.1 r9886"
   sodipodi:docname="room_type.svg"><metadata
   id="metadata10"><rdf:RDF><cc:Work
       rdf:about=""><dc:format>image/svg+xml</dc:format><dc:type
         rdf:resource="http://purl.org/dc/dcmitype/StillImage" /><dc:title></dc:title></cc:Work></rdf:RDF></metadata><defs
   id="defs8" /><sodipodi:namedview
   pagecolor="#ffffff"
   bordercolor="#666666"
   borderopacity="1"
   objecttolerance="10"
   gridtolerance="10"
   guidetolerance="10"
   inkscape:pageopacity="0"
   inkscape:pageshadow="2"
   inkscape:window-width="1018"
   inkscape:window-height="666"
   id="namedview6"
   showgrid="false"
   inkscape:zoom="1.372093"
   inkscape:cx="-26.675694"
   inkscape:cy="-22.545554"
   inkscape:window-x="309"
   inkscape:window-y="174"
   inkscape:window-maximized="0"
   inkscape:current-layer="Layer_1" />

<rect
   id="_x3C_Slice_x3E__95_"
   fill="none"
   width="84"
   height="86" />
<path
   style="fill:#000000"
   d=""
   id="path3859"
   inkscape:connector-curvature="0" /><path
   inkscape:connector-curvature="0"
   id="path3939"
   d="M 7.8784907,66.380202 C 7.272049,65.936762 7.2631945,65.758803 7.6987453,62.767889 7.9507102,61.037646 8.1399451,59.321583 8.119263,58.954413 8.0986016,58.587242 7.0164688,57.244577 5.7145638,55.97071 2.2251938,52.556483 2.4328627,51.961183 7.4020854,51.133311 l 3.5060386,-0.584106 1.680146,-3.191393 c 2.370032,-4.501816 3.037897,-4.461368 5.371677,0.325327 1.456381,2.987101 1.538486,3.039673 5.549269,3.553071 2.757267,0.352945 3.360292,0.659861 3.360292,1.710265 0,0.667551 -0.610945,1.515145 -2.352204,3.263313 -2.614492,2.624868 -2.595029,2.555697 -1.858204,6.604483 0.397995,2.186945 0.393188,2.622412 -0.03637,3.292995 -0.595195,0.929157 -0.948006,0.852389 -4.502012,-0.979603 -1.392739,-0.717916 -2.718875,-1.305305 -2.946968,-1.305305 -0.228097,0 -1.769594,0.680459 -3.425552,1.512131 -1.655959,0.831673 -3.0605603,1.512132 -3.1213377,1.512132 -0.060777,0 -0.3975433,-0.209887 -0.7483679,-0.466419 z m 7.2564693,-4.57402 c 0.364299,0 1.732576,0.538951 3.040617,1.197669 1.308037,0.658719 2.457364,1.118561 2.554053,1.021869 0.09669,-0.09669 -0.01854,-1.372599 -0.256101,-2.835355 -0.412597,-2.540663 -0.399246,-2.712394 0.298646,-3.841603 0.4018,-0.650129 1.4106,-1.7393 2.241771,-2.420387 0.831175,-0.681084 1.435954,-1.360133 1.343949,-1.508997 -0.092,-0.148864 -1.190067,-0.380005 -2.440147,-0.51365 -3.29201,-0.351947 -3.914695,-0.78651 -5.423329,-3.784844 l -1.301558,-2.586783 -1.227962,2.438412 c -1.449971,2.879259 -2.439897,3.605708 -5.3677932,3.939109 -1.1315473,0.12885 -2.1804354,0.30757 -2.3308594,0.397156 -0.1504231,0.08958 0.6644874,1.139696 1.8109156,2.333581 l 2.084408,2.170695 -0.2081559,2.080572 c -0.1144854,1.144313 -0.3059008,2.643763 -0.425366,3.332109 l -0.2172089,1.251537 2.5808788,-1.335544 c 1.419481,-0.734551 2.878939,-1.335546 3.243242,-1.335546 z m 20.296292,4.481391 c -0.352071,-0.352072 -0.497078,-0.880807 -0.391666,-1.428125 0.09206,-0.477991 0.35436,-2.045805 0.58288,-3.484028 l 0.415497,-2.614956 -2.568052,-2.638917 c -1.412429,-1.451404 -2.568054,-2.778592 -2.568054,-2.949308 0,-0.983822 1.005995,-1.497564 3.826577,-1.954157 1.637356,-0.265057 3.230819,-0.562473 3.541031,-0.660929 0.310208,-0.09846 1.156941,-1.395126 1.881625,-2.881484 2.300157,-4.717738 3.020395,-4.797679 5.209373,-0.578212 0.836817,1.613044 1.670512,3.081834 1.852657,3.263979 0.182144,0.182145 1.827696,0.555987 3.656776,0.830761 4.730459,0.710632 4.96324,1.343886 1.681793,4.575169 -1.21453,1.195964 -2.344664,2.421751 -2.511405,2.723973 -0.190233,0.344796 -0.118685,1.513697 0.192064,3.137829 0.676925,3.537969 0.641275,4.443588 -0.192491,4.889804 -0.570702,0.30543 -1.19629,0.107327 -3.676659,-1.164277 -1.643916,-0.842785 -3.209398,-1.532337 -3.478846,-1.532337 -0.269449,0 -1.752624,0.677933 -3.295945,1.506516 -3.150838,1.691635 -3.372987,1.742867 -4.157155,0.958699 z m 12.967234,-4.006168 c -0.711781,-3.850377 -0.591737,-4.323516 1.703355,-6.713617 1.365717,-1.422254 1.904946,-2.196337 1.596139,-2.291326 -0.256498,-0.0789 -1.504278,-0.30113 -2.772849,-0.493846 -1.325568,-0.201378 -2.591786,-0.607899 -2.977323,-0.955874 -0.368959,-0.333012 -1.202386,-1.660089 -1.852054,-2.94906 l -1.181221,-2.343581 -1.301558,2.586783 c -1.508632,2.998334 -2.131319,3.432897 -5.423329,3.784844 -1.250078,0.133645 -2.339388,0.350622 -2.42069,0.482171 -0.0813,0.131549 0.690328,1.058791 1.714733,2.060534 2.417874,2.364389 2.598165,2.87143 2.105942,5.922693 -0.218997,1.357558 -0.316701,2.54976 -0.217122,2.649341 0.09958,0.09958 1.276642,-0.370673 2.615692,-1.045007 2.852084,-1.436289 3.506766,-1.404071 6.536213,0.321641 1.107354,0.630801 2.062837,1.097448 2.123292,1.036992 0.06045,-0.06045 -0.0517,-0.984165 -0.24922,-2.052688 z m 14.929937,4.102544 c -0.593599,-0.434052 -0.606569,-0.636719 -0.209645,-3.276284 0.232703,-1.54749 0.505035,-3.154256 0.605178,-3.570597 0.145454,-0.604725 -0.332218,-1.285473 -2.374802,-3.384418 -1.406281,-1.44509 -2.556876,-2.877717 -2.556876,-3.183614 0,-0.89736 1.32001,-1.465316 4.353084,-1.872983 1.562521,-0.210011 2.994839,-0.535732 3.182921,-0.723814 0.188086,-0.188085 1.026643,-1.661738 1.86346,-3.274782 2.16176,-4.167 2.841771,-4.13206 5.049789,0.259471 0.707291,1.406736 1.504359,2.738934 1.771263,2.960444 0.266902,0.221507 1.754308,0.573246 3.305348,0.781634 2.991625,0.401942 4.332204,0.974025 4.332204,1.848739 0,0.294187 -1.160409,1.727314 -2.57868,3.184726 l -2.578681,2.649838 0.576781,3.295422 c 0.90165,5.151579 0.33077,5.620724 -3.99411,3.282303 -1.564155,-0.845722 -3.084999,-1.537676 -3.379657,-1.537676 -0.294653,0 -1.836153,0.680459 -3.425555,1.512131 -1.589398,0.831673 -2.984194,1.512132 -3.099546,1.512132 -0.115352,0 -0.494467,-0.208204 -0.842476,-0.462672 z m 7.261835,-4.577767 c 0.358534,0 1.702818,0.529246 2.987303,1.176104 1.284485,0.646855 2.468605,1.176101 2.631377,1.176101 0.162777,0 0.09237,-1.170708 -0.156448,-2.601575 -0.24882,-1.430866 -0.362519,-2.905194 -0.25266,-3.276284 0.109858,-0.371091 1.106561,-1.601445 2.214899,-2.734119 1.108338,-1.132673 1.886504,-2.13448 1.729256,-2.226236 -0.157258,-0.09176 -1.193192,-0.276069 -2.302089,-0.409586 C 74.077909,52.505551 73.531734,52.132144 71.994,49.186002 l -1.369994,-2.624764 -1.174385,2.330013 c -0.645912,1.281508 -1.476263,2.602479 -1.845224,2.935491 -0.385536,0.347975 -1.651754,0.754496 -2.977322,0.955874 -1.26857,0.192716 -2.516351,0.414949 -2.772848,0.493846 -0.308227,0.09481 0.24892,0.888336 1.643138,2.340272 l 2.109498,2.19682 -0.213679,2.41635 c -0.117522,1.328995 -0.3101,2.845727 -0.427952,3.370517 l -0.214277,0.954161 2.593712,-1.374197 c 1.426544,-0.755812 2.887059,-1.374203 3.245591,-1.374203 z M 21.324778,41.51779 c -0.593599,-0.434052 -0.60657,-0.636717 -0.209645,-3.276284 0.232703,-1.547484 0.505035,-3.154255 0.605175,-3.570596 0.145457,-0.604721 -0.332215,-1.285469 -2.374798,-3.384418 -1.406282,-1.44509 -2.556877,-2.862686 -2.556877,-3.150213 0,-0.914268 0.883716,-1.309804 4.073568,-1.823271 1.710341,-0.275311 3.236723,-0.579064 3.391962,-0.675004 0.155235,-0.09594 0.954125,-1.512229 1.775306,-3.147304 2.245659,-4.471365 3.055187,-4.424892 5.362672,0.307874 0.721747,1.480343 1.549353,2.786253 1.839118,2.902025 0.289768,0.115772 1.860774,0.414267 3.491131,0.663322 3.026944,0.462396 3.924313,0.862812 3.924313,1.751067 0,0.275817 -1.157718,1.691152 -2.572706,3.145187 l -2.572707,2.643702 0.555107,3.342465 c 0.305306,1.838359 0.46617,3.574225 0.357475,3.857488 -0.410198,1.068958 -1.44761,0.924829 -4.429873,-0.615452 -1.631619,-0.842697 -3.16196,-1.532179 -3.400759,-1.532179 -0.238799,0 -1.682501,0.68046 -3.208225,1.512132 -3.08713,1.682797 -3.158724,1.701346 -4.050237,1.049459 z m 7.214721,-4.577765 c 0.302362,0 1.790985,0.600245 3.308049,1.333881 2.608057,1.261229 2.749353,1.293258 2.594115,0.588051 -0.546269,-2.481494 -0.834861,-4.942454 -0.643738,-5.489413 0.121629,-0.348085 1.125264,-1.562142 2.230293,-2.6979 2.238646,-2.300896 2.26657,-2.233136 -1.09401,-2.654483 -2.812665,-0.352649 -3.44445,-0.827616 -4.957932,-3.727293 l -1.355912,-2.597784 -1.174388,2.330013 c -0.645912,1.281504 -1.476263,2.602476 -1.845224,2.935487 -0.385535,0.347978 -1.651754,0.754497 -2.977325,0.955875 -1.268567,0.19272 -2.516348,0.414949 -2.772845,0.493845 -0.308227,0.09481 0.248919,0.888337 1.643138,2.340272 l 2.109497,2.196821 -0.213677,2.416352 c -0.117523,1.328992 -0.310754,2.849124 -0.429398,3.378071 l -0.215721,0.961722 2.62266,-1.381758 c 1.442466,-0.759967 2.870052,-1.381759 3.172418,-1.381759 z m 20.488178,4.512589 c -0.360227,-0.434046 -0.35821,-1.075992 0.01136,-3.612314 0.247187,-1.696456 0.432672,-3.382694 0.412191,-3.747198 -0.02046,-0.364505 -1.102596,-1.709286 -2.404699,-2.988402 -1.302116,-1.279115 -2.367472,-2.602942 -2.367472,-2.941831 0,-0.954077 1.259261,-1.517167 4.30875,-1.926703 1.53814,-0.206564 2.941162,-0.464903 3.117823,-0.574086 0.176661,-0.109186 0.993081,-1.536305 1.814265,-3.17138 1.540598,-3.067508 2.400086,-3.821058 3.406033,-2.9862 0.284664,0.236249 1.186203,1.760874 2.003419,3.388054 0.817219,1.627181 1.597748,2.961224 1.734505,2.964537 0.863074,0.02093 6.506351,0.987838 6.790568,1.163495 0.190673,0.117841 0.346678,0.617614 0.346678,1.110603 0,0.662881 -0.632373,1.532971 -2.427855,3.340512 l -2.427851,2.444169 0.57209,3.352566 c 0.314647,1.843913 0.485936,3.577084 0.380633,3.851492 -0.397546,1.035991 -1.433836,0.875813 -4.641033,-0.717358 l -3.228597,-1.603804 -3.102474,1.596119 c -3.424434,1.761758 -3.664926,1.820939 -4.298331,1.057729 z m 7.366443,-4.512589 c 0.312926,0 1.682016,0.533419 3.04242,1.185376 1.360404,0.651954 2.549407,1.10943 2.642224,1.016613 0.09282,-0.09282 -0.01015,-1.277825 -0.228819,-2.633346 -0.218667,-1.355525 -0.294727,-2.758084 -0.169016,-3.116799 0.125709,-0.358714 1.132681,-1.581467 2.237709,-2.717225 2.238647,-2.300896 2.266571,-2.233136 -1.09401,-2.654483 -2.872525,-0.360153 -3.537133,-0.860799 -4.998622,-3.765435 l -1.301558,-2.586779 -1.18122,2.343581 c -0.649668,1.288968 -1.483096,2.616045 -1.852055,2.949056 -0.385537,0.347978 -1.651755,0.754497 -2.977323,0.955875 -1.268571,0.19272 -2.516351,0.414949 -2.772849,0.493845 -0.308226,0.09481 0.248947,0.888367 1.643206,2.340343 l 2.109561,2.196888 -0.197438,2.248267 c -0.10859,1.236546 -0.302754,2.754072 -0.431481,3.372281 l -0.234047,1.124014 2.597179,-1.376036 c 1.428448,-0.756822 2.853208,-1.376036 3.166139,-1.376036 z"
   style="fill:#97bbd5;fill-opacity:1" /></svg>