<?xml version="1.0" encoding="UTF-8" standalone="no"?>
<!-- Generator: Adobe Illustrator 16.0.3, SVG Export Plug-In . SVG Version: 6.00 Build 0)  -->

<svg
   xmlns:dc="http://purl.org/dc/elements/1.1/"
   xmlns:cc="http://creativecommons.org/ns#"
   xmlns:rdf="http://www.w3.org/1999/02/22-rdf-syntax-ns#"
   xmlns:svg="http://www.w3.org/2000/svg"
   xmlns="http://www.w3.org/2000/svg"
   xmlns:sodipodi="http://sodipodi.sourceforge.net/DTD/sodipodi-0.dtd"
   xmlns:inkscape="http://www.inkscape.org/namespaces/inkscape"
   version="1.1"
   id="Layer_1"
   x="0px"
   y="0px"
   width="84px"
   height="86px"
   viewBox="0 0 84 86"
   enable-background="new 0 0 84 86"
   xml:space="preserve"
   inkscape:version="0.48.3.1 r9886"
   sodipodi:docname="room.svg"><metadata
   id="metadata10"><rdf:RDF><cc:Work
       rdf:about=""><dc:format>image/svg+xml</dc:format><dc:type
         rdf:resource="http://purl.org/dc/dcmitype/StillImage" /><dc:title></dc:title></cc:Work></rdf:RDF></metadata><defs
   id="defs8" /><sodipodi:namedview
   pagecolor="#ffffff"
   bordercolor="#666666"
   borderopacity="1"
   objecttolerance="10"
   gridtolerance="10"
   guidetolerance="10"
   inkscape:pageopacity="0"
   inkscape:pageshadow="2"
   inkscape:window-width="1018"
   inkscape:window-height="666"
   id="namedview6"
   showgrid="false"
   inkscape:zoom="1.9404326"
   inkscape:cx="11.505757"
   inkscape:cy="-7.338407"
   inkscape:window-x="309"
   inkscape:window-y="174"
   inkscape:window-maximized="0"
   inkscape:current-layer="Layer_1" />

<rect
   id="_x3C_Slice_x3E__95_"
   fill="none"
   width="84"
   height="86" />
<path
   inkscape:connector-curvature="0"
   id="path3863"
   d="m 8.1420062,65.179929 0,-11.27052 2.4604658,-0.0044 c 1.353256,-0.0026 2.760192,-0.0848 3.126522,-0.183144 0.607183,-0.163007 0.753553,0.125017 1.655951,3.258498 1.200923,4.17008 2.123728,9.036344 2.758617,14.547143 0.261396,2.268924 0.475267,4.304758 0.475267,4.524095 0,0.303965 -1.245707,0.398796 -5.238412,0.398796 l -5.2384108,0 0,-11.270519 z m 57.6055228,9.127532 c 0.928094,-9.220347 3.53421,-20.952003 4.567051,-20.558954 0.232547,0.0885 1.625488,0.160902 3.095424,0.160902 l 2.67261,0 0,11.27052 0,11.270518 -5.275398,0 -5.275392,0 0.215705,-2.142986 z M 19.888747,73.116913 c 0,-0.413968 1.411018,-0.47622 10.794302,-0.47622 l 10.794303,0 0,-25.557093 0,-25.557099 -0.783736,0 c -0.566219,0 -0.733016,-0.132168 -0.600993,-0.476219 0.259772,-0.676947 3.779603,-0.676947 4.039374,0 0.132024,0.344051 -0.03477,0.476219 -0.600991,0.476219 l -0.783737,0 0,25.557099 0,25.557093 10.794302,0 c 9.383286,0 10.794305,0.06225 10.794305,0.47622 0,0.418771 -2.680936,0.476219 -22.223566,0.476219 -19.542627,0 -22.223563,-0.05744 -22.223563,-0.476219 z M 31.135086,53.512559 c -2.015896,-1.728501 -4.40526,-4.327703 -4.182811,-4.55015 0.187589,-0.18759 1.758852,1.076289 4.151488,3.339338 2.719583,2.572285 2.744547,3.537229 0.03134,1.210812 z m 26.673708,0 c -1.717989,-1.508367 -4.046961,-3.951054 -4.224585,-4.43086 -0.354894,-0.958646 5.357281,3.963924 6.005714,5.175534 0.522165,0.975671 -0.134307,0.701208 -1.781129,-0.744674 z M 7.7214537,52.113113 c -0.1148929,-0.114896 -0.04978,-0.400628 0.1447009,-0.634959 0.4927148,-0.593687 5.4561354,-0.593687 5.9488544,0 0.194478,0.234331 0.259593,0.520063 0.144701,0.634959 -0.272493,0.272493 -5.9657636,0.272493 -6.2382563,0 z M 70.427647,51.766422 c 0.08971,-0.469234 0.525101,-0.56818 2.801223,-0.636597 2.705252,-0.08131 3.757928,0.182242 3.3519,0.839213 -0.135325,0.218959 -1.364977,0.352974 -3.238747,0.352974 -2.705574,0 -3.009518,-0.05795 -2.914376,-0.55559 z M 7.8245263,49.147217 c 0,-0.63148 0.1430817,-0.649982 4.3653437,-0.564549 3.629393,0.07344 4.365342,0.168613 4.365342,0.564549 0,0.395934 -0.735949,0.491108 -4.365342,0.564548 -4.222262,0.08543 -4.3653437,0.06693 -4.3653437,-0.564548 z M 57.618659,48.022129 c -2.049289,-1.722322 -4.268213,-4.186763 -4.005873,-4.449106 0.224613,-0.224611 4.482467,3.494751 5.444247,4.755709 0.49404,0.647715 0.839625,1.236294 0.767974,1.307949 -0.07165,0.07165 -1.064513,-0.654893 -2.206348,-1.614552 z m 10.212145,1.455952 c -1.108771,-0.712757 0.244688,-0.984218 4.46752,-0.896045 3.535929,0.07384 4.260509,0.16995 4.260509,0.565181 0,0.394804 -0.705583,0.489816 -4.127234,0.555754 -2.269978,0.04375 -4.340335,-0.05745 -4.600795,-0.22489 z M 30.27805,46.148346 c -1.495738,-1.307661 -2.812907,-2.52867 -2.927047,-2.71335 -0.129087,-0.208867 -0.648588,0.01175 -1.374425,0.583644 -1.422924,1.121162 -4.399294,2.628753 -6.636143,3.361352 -1.514682,0.496075 -1.721701,0.499932 -2.372369,0.04418 -0.558027,-0.390859 -1.594036,-0.499319 -4.76947,-0.499319 l -4.0565898,0 0,-11.98485 0,-11.984851 1.2699178,-0.06855 c 1.234969,-0.06666 1.643931,-0.07432 3.968493,-0.07432 0.611149,0 1.468343,0.0013 1.904877,0.0029 2.202451,0.008 3.400139,1.36e-4 4.047864,-0.02661 0.39288,-0.01622 1.17995,0.06675 1.749045,0.184377 0.64001,0.132286 1.2094,0.06889 1.492649,-0.16618 0.356434,-0.295814 0.70763,-0.28976 1.584489,0.02732 0.886095,0.320415 1.349837,0.326629 2.172617,0.02911 0.812322,-0.29374 1.273423,-0.292438 2.063617,0.0059 0.758185,0.286183 1.253789,0.294917 1.944343,0.03426 0.674259,-0.254505 1.283089,-0.254719 2.234449,-7.94e-4 0.99171,0.264702 1.457865,0.255232 1.929323,-0.03919 0.490877,-0.306557 0.889075,-0.304773 1.892784,0.0085 0.699118,0.218194 1.271124,0.516711 1.271124,0.66337 0,0.146659 -0.291751,1.409329 -0.648334,2.805933 -1.313706,5.145264 -4.34786,10.986959 -7.584192,14.601929 l -1.608243,1.796403 1.542192,1.291199 c 1.660306,1.390083 4.018922,4.104928 3.77672,4.34713 -0.08149,0.08149 -1.371953,-0.921735 -2.867691,-2.229401 z m 33.629486,0.948223 c -1.195965,-0.422035 -2.971786,-1.2405 -3.946274,-1.81881 -2.132638,-1.265615 -5.685477,-4.525935 -7.240629,-6.644473 -2.383795,-3.247381 -5.394128,-10.156032 -6.312724,-14.487578 -0.198564,-0.936311 -0.148898,-1.031809 0.53661,-1.031809 0.41549,0 0.903893,-0.148463 1.085348,-0.329918 0.228236,-0.228235 0.776168,-0.210562 1.777842,0.05735 1.230693,0.329161 1.561929,0.312562 2.207815,-0.110639 0.66765,-0.437461 0.835298,-0.4419 1.38108,-0.03657 0.412012,0.305985 0.995359,0.39654 1.732365,0.268921 1.508205,-0.261158 2.220798,-0.259574 3.277072,0.0072 0.536137,0.13545 1.189597,0.06921 1.627083,-0.16492 0.543424,-0.290832 0.898937,-0.301456 1.384881,-0.04139 0.893657,0.478271 2.039513,0.439125 2.769439,-0.09461 0.521067,-0.381012 0.698529,-0.381012 1.2425,0 0.75371,0.527918 1.881988,0.573202 2.747018,0.110251 0.450395,-0.241044 0.937847,-0.220954 1.748127,0.07205 0.956953,0.346039 1.253626,0.331665 2.000398,-0.09693 0.745952,-0.428118 0.964806,-0.438871 1.466469,-0.07205 0.324311,0.237144 0.990951,0.43117 1.481419,0.43117 l 0.891759,0 0,11.905481 0,11.905481 -4.066554,0 c -3.084078,0 -4.215438,0.112613 -4.682819,0.466123 -0.775519,0.586572 -0.551576,0.607786 -3.108225,-0.294414 z M 8.6409024,21.345085 c -0.7375709,-0.737571 -0.7375709,-10.328857 0,-11.066427 C 9.231126,9.688434 9.27356,9.683371 10.067754,10.10841 c 0.568793,0.304409 0.614087,0.712541 0.614087,5.533214 0,4.308116 -0.08594,5.290496 -0.498896,5.703461 -0.274391,0.274392 -0.621352,0.498896 -0.771021,0.498896 -0.14967,0 -0.4966303,-0.224504 -0.7710216,-0.498896 z m 4.1647496,0.132578 c -0.470593,-0.263357 -0.536413,-0.959148 -0.536413,-5.670398 0,-5.195336 0.02258,-5.382283 0.693058,-5.741117 0.590071,-0.315798 0.778774,-0.265056 1.269917,0.34148 0.498034,0.615047 0.576861,1.33949 0.576861,5.301546 0,2.524035 -0.138897,4.848684 -0.308659,5.165889 -0.403244,0.753466 -1.028142,0.975659 -1.694764,0.6026 z m 3.772238,-0.132578 c -0.737572,-0.737571 -0.737572,-10.328857 0,-11.066427 0.590223,-0.590224 0.632657,-0.595287 1.426851,-0.170248 0.570005,0.305059 0.614088,0.714469 0.614088,5.703461 0,4.988992 -0.04409,5.398402 -0.614088,5.70346 -0.794194,0.42504 -0.836628,0.419976 -1.426851,-0.170246 z m 4.164749,0.132578 c -0.470593,-0.263357 -0.536413,-0.959148 -0.536413,-5.670398 0,-4.978004 0.0447,-5.394125 0.611961,-5.697716 0.802484,-0.429476 1.502579,-0.137089 1.733514,0.723982 0.310047,1.156048 0.215931,9.424493 -0.114299,10.041532 -0.403243,0.753466 -1.028141,0.975659 -1.694763,0.6026 z m 4.138212,0.0062 C 24.39647,21.212792 24.33346,20.562542 24.33346,15.835027 c 0,-5.798765 0.187586,-6.4868859 1.567104,-5.74859 0.622406,0.333101 0.655252,0.620119 0.655252,5.725492 0,4.823715 -0.05781,5.405748 -0.563787,5.67654 -0.357653,0.19141 -0.763928,0.189726 -1.111178,-0.0046 z m 3.76126,-0.138721 c -0.737572,-0.73757 -0.737572,-10.328857 0,-11.066427 0.62657,-0.626572 0.91547,-0.626572 1.542041,0 0.737572,0.73757 0.737572,10.328857 0,11.066427 -0.274391,0.274393 -0.621352,0.498897 -0.771021,0.498897 -0.14967,0 -0.49663,-0.224504 -0.77102,-0.498897 z m 4.164749,0.132578 c -0.470593,-0.263356 -0.536413,-0.959147 -0.536413,-5.670397 0,-5.195337 0.02258,-5.382283 0.693057,-5.741118 0.590071,-0.315798 0.778774,-0.265055 1.269918,0.341481 0.498033,0.615047 0.57686,1.33949 0.57686,5.301545 0,2.524035 -0.138897,4.848685 -0.308659,5.165889 -0.403244,0.753467 -1.028142,0.97566 -1.694763,0.6026 z m 3.772237,-0.132578 c -0.737571,-0.73757 -0.737571,-10.328857 0,-11.066427 0.590223,-0.590223 0.632657,-0.595286 1.426851,-0.170247 0.568793,0.304408 0.614089,0.71254 0.614089,5.533213 0,4.308116 -0.08594,5.290496 -0.498898,5.703461 -0.274391,0.274393 -0.621352,0.498897 -0.771021,0.498897 -0.149669,0 -0.49663,-0.224504 -0.771021,-0.498897 z m 9.537535,0.08813 c -0.46272,-0.33835 -0.517286,-1.04993 -0.440706,-5.747498 0.07494,-4.597112 0.162799,-5.408844 0.616377,-5.694609 0.383588,-0.241672 0.667176,-0.218573 1.031808,0.08404 0.422364,0.350534 0.50283,1.272972 0.50283,5.76442 0,4.88994 -0.05054,5.374155 -0.591102,5.663456 -0.411847,0.220414 -0.751252,0.199244 -1.119207,-0.06981 z m 3.796603,-0.08813 c -0.411593,-0.411611 -0.498896,-1.379885 -0.498896,-5.533231 0,-4.153347 0.0873,-5.121622 0.498896,-5.533214 0.590223,-0.590223 0.632658,-0.595286 1.426851,-0.170247 0.570006,0.305058 0.614088,0.714468 0.614088,5.703461 0,4.988991 -0.04408,5.398401 -0.614088,5.70346 -0.794193,0.42504 -0.836628,0.419976 -1.426851,-0.170247 z m 4.175729,0.138721 c -0.483455,-0.270553 -0.547393,-0.91372 -0.547393,-5.506294 0,-4.303929 0.08597,-5.285925 0.498898,-5.698854 0.576228,-0.57623 0.753944,-0.600088 1.40598,-0.18875 0.379728,0.239551 0.497182,1.243984 0.579685,4.957194 0.05691,2.561225 0.0195,4.991306 -0.08312,5.400182 -0.238351,0.949668 -1.124252,1.444939 -1.854051,1.036522 z m 4.127232,0 c -0.484381,-0.271071 -0.547391,-0.921321 -0.547391,-5.648836 0,-5.798765 0.187586,-6.4868859 1.567106,-5.74859 0.622405,0.333101 0.655252,0.620119 0.655252,5.725492 0,4.823715 -0.05781,5.405748 -0.563786,5.67654 -0.357654,0.19141 -0.763929,0.189726 -1.111181,-0.0046 z m 3.817953,0.01727 c -0.49448,-0.288009 -0.555588,-0.914255 -0.555588,-5.693807 0,-4.984439 0.04411,-5.393814 0.614087,-5.698855 0.794194,-0.425039 0.836628,-0.419976 1.426852,0.170247 0.411593,0.411592 0.498896,1.379867 0.498896,5.533214 0,4.153346 -0.0873,5.12162 -0.498896,5.533214 -0.578289,0.57829 -0.732495,0.594484 -1.485351,0.155987 z m 4.083691,-0.06786 c -0.46272,-0.338351 -0.517285,-1.049931 -0.440705,-5.747499 0.07494,-4.597112 0.1628,-5.408844 0.616376,-5.694609 0.383589,-0.241672 0.667177,-0.218573 1.031809,0.08404 0.422365,0.350534 0.50283,1.272971 0.50283,5.76442 0,4.88994 -0.05054,5.374156 -0.591102,5.663456 -0.411847,0.220414 -0.751252,0.199244 -1.119208,-0.06981 z m 3.796601,-0.08813 c -0.411593,-0.411593 -0.498897,-1.379867 -0.498897,-5.533213 0,-4.153347 0.0873,-5.121622 0.498897,-5.533214 0.590223,-0.590223 0.632658,-0.595286 1.426851,-0.170247 0.570006,0.305058 0.614088,0.714468 0.614088,5.703461 0,4.988991 -0.04408,5.398402 -0.614088,5.70346 -0.794193,0.42504 -0.836628,0.419975 -1.426851,-0.170247 z m 4.16475,0.132578 c -0.470594,-0.263356 -0.536414,-0.959147 -0.536414,-5.670397 0,-4.978004 0.0447,-5.394125 0.611961,-5.697717 0.802484,-0.429475 1.50258,-0.137089 1.733514,0.723982 0.310047,1.156048 0.215931,9.424493 -0.114299,10.041532 -0.403242,0.753467 -1.028141,0.97566 -1.694762,0.6026 z M 2.8449781,17.397052 C 1.7637349,16.961409 1.3663176,15.966718 1.8603851,14.932736 2.2430785,14.131838 2.4378266,14.058576 4.4146382,13.971858 l 2.1399704,-0.09388 0,1.919382 0,1.919382 -1.5080283,-0.02013 C 4.2171655,17.685555 3.2264456,17.550744 2.8449781,17.397048 z m 37.3624549,-1.585182 0,-1.904877 1.904877,0 1.904878,0 0,1.904877 0,1.904877 -1.904878,0 -1.904877,0 0,-1.904877 z m 37.462578,0 0,-1.904877 1.844196,0 c 1.972203,0 2.728321,0.370791 3.064395,1.502742 0.153547,0.517164 -0.0058,0.925263 -0.58847,1.508027 -0.661554,0.661554 -1.101813,0.798985 -2.559554,0.798985 l -1.760567,0 0,-1.904877 z"
   style="fill:#97bbd5;fill-opacity:1" /><path
   style="fill:#000000"
   d=""
   id="path3859"
   inkscape:connector-curvature="0" /></svg>