<?xml version="1.0" encoding="UTF-8" standalone="no"?>
<!-- Generator: Adobe Illustrator 16.0.3, SVG Export Plug-In . SVG Version: 6.00 Build 0)  -->

<svg
   xmlns:dc="http://purl.org/dc/elements/1.1/"
   xmlns:cc="http://creativecommons.org/ns#"
   xmlns:rdf="http://www.w3.org/1999/02/22-rdf-syntax-ns#"
   xmlns:svg="http://www.w3.org/2000/svg"
   xmlns="http://www.w3.org/2000/svg"
   xmlns:sodipodi="http://sodipodi.sourceforge.net/DTD/sodipodi-0.dtd"
   xmlns:inkscape="http://www.inkscape.org/namespaces/inkscape"
   version="1.1"
   id="Layer_1"
   x="0px"
   y="0px"
   width="84px"
   height="86px"
   viewBox="0 0 84 86"
   enable-background="new 0 0 84 86"
   xml:space="preserve"
   inkscape:version="0.48.3.1 r9886"
   sodipodi:docname="room_price.svg"><metadata
   id="metadata10"><rdf:RDF><cc:Work
       rdf:about=""><dc:format>image/svg+xml</dc:format><dc:type
         rdf:resource="http://purl.org/dc/dcmitype/StillImage" /><dc:title></dc:title></cc:Work></rdf:RDF></metadata><defs
   id="defs8" /><sodipodi:namedview
   pagecolor="#ffffff"
   bordercolor="#666666"
   borderopacity="1"
   objecttolerance="10"
   gridtolerance="10"
   guidetolerance="10"
   inkscape:pageopacity="0"
   inkscape:pageshadow="2"
   inkscape:window-width="1018"
   inkscape:window-height="666"
   id="namedview6"
   showgrid="false"
   inkscape:zoom="1.372093"
   inkscape:cx="-26.675694"
   inkscape:cy="-22.545554"
   inkscape:window-x="309"
   inkscape:window-y="174"
   inkscape:window-maximized="0"
   inkscape:current-layer="Layer_1" />

<rect
   id="_x3C_Slice_x3E__95_"
   fill="none"
   width="84"
   height="86" />
<path
   style="fill:#000000"
   d=""
   id="path3859"
   inkscape:connector-curvature="0" /><path
   inkscape:connector-curvature="0"
   id="path3977"
   d="M 27.160636,77.825539 C 26.073056,77.548196 24.173117,75.794441 14.18608,65.849287 7.5086514,59.199861 2.2549679,53.712588 1.9482522,53.067333 1.6526589,52.445484 1.3476495,51.282904 1.2704512,50.483819 0.97286107,47.403446 1.1208807,47.225343 17.855387,30.528415 31.906928,16.508429 33.404141,15.110276 35.461713,14.086954 c 2.265338,-1.126652 4.637839,-1.900952 6.988868,-2.28092 1.212793,-0.196007 0.372766,0.696767 -17.440094,18.535262 C 8.7289229,46.646284 6.296229,49.204716 6.296229,50.022849 c 0,0.813591 1.7607933,2.703053 13.060163,14.014557 7.183089,7.1908 13.060163,13.172665 13.060163,13.293025 0,0.299646 -2.207209,0.889426 -3.185405,0.851169 -0.437994,-0.01714 -1.369725,-0.177356 -2.070514,-0.356061 z m 14.334325,-0.07801 C 40.794171,77.485033 40.153744,77.268112 40.07179,77.265474 39.571701,77.249388 16.964793,54.265102 16.412125,53.210867 c -0.90972,-1.735332 -0.910017,-4.634469 -6.37e-4,-6.370811 0.395853,-0.755836 6.864558,-7.448275 15.901531,-16.451515 16.36055,-16.299478 16.151759,-16.123832 21.228802,-17.858604 1.792265,-0.612396 2.838101,-0.684689 11.655623,-0.8057 6.593529,-0.09048 10.153612,-0.0173 11.14892,0.229187 2.090894,0.517819 3.681088,1.673784 4.709661,3.42362 l 0.893585,1.520199 0,10.671108 c 0,11.833636 0.0193,11.696275 -2.30443,16.40484 -1.005715,2.037883 -2.406877,3.540782 -16.280643,17.462783 C 54.764561,70.065853 47.657069,76.942927 46.968,77.30096 c -1.644367,0.854389 -3.894152,1.037958 -5.473039,0.446568 z M 67.853324,35.202911 c 2.490851,-0.780969 4.702115,-3.917765 4.696229,-6.661846 -0.0036,-1.660281 -1.116126,-4.278248 -2.268117,-5.337086 -0.419564,-0.385635 -1.466403,-1.012376 -2.326306,-1.392752 -4.547491,-2.011571 -9.73679,1.479848 -9.73679,6.55102 0,5.247675 4.50788,8.448189 9.634984,6.840664 z"
   style="fill:#97bbd5;fill-opacity:1" /></svg>