<?xml version="1.0" encoding="UTF-8" standalone="no"?>
<!-- Generator: Adobe Illustrator 16.0.3, SVG Export Plug-In . SVG Version: 6.00 Build 0)  -->

<svg
   xmlns:dc="http://purl.org/dc/elements/1.1/"
   xmlns:cc="http://creativecommons.org/ns#"
   xmlns:rdf="http://www.w3.org/1999/02/22-rdf-syntax-ns#"
   xmlns:svg="http://www.w3.org/2000/svg"
   xmlns="http://www.w3.org/2000/svg"
   xmlns:sodipodi="http://sodipodi.sourceforge.net/DTD/sodipodi-0.dtd"
   xmlns:inkscape="http://www.inkscape.org/namespaces/inkscape"
   version="1.1"
   id="Layer_1"
   x="0px"
   y="0px"
   width="84px"
   height="86px"
   viewBox="0 0 84 86"
   enable-background="new 0 0 84 86"
   xml:space="preserve"
   inkscape:version="0.48.3.1 r9886"
   sodipodi:docname="season.svg"><metadata
   id="metadata10"><rdf:RDF><cc:Work
       rdf:about=""><dc:format>image/svg+xml</dc:format><dc:type
         rdf:resource="http://purl.org/dc/dcmitype/StillImage" /><dc:title></dc:title></cc:Work></rdf:RDF></metadata><defs
   id="defs8" /><sodipodi:namedview
   pagecolor="#ffffff"
   bordercolor="#666666"
   borderopacity="1"
   objecttolerance="10"
   gridtolerance="10"
   guidetolerance="10"
   inkscape:pageopacity="0"
   inkscape:pageshadow="2"
   inkscape:window-width="1018"
   inkscape:window-height="666"
   id="namedview6"
   showgrid="false"
   inkscape:zoom="1.372093"
   inkscape:cx="-26.675694"
   inkscape:cy="-22.545554"
   inkscape:window-x="309"
   inkscape:window-y="174"
   inkscape:window-maximized="0"
   inkscape:current-layer="Layer_1" />

<rect
   id="_x3C_Slice_x3E__95_"
   fill="none"
   width="84"
   height="86" />
<path
   style="fill:#000000"
   d=""
   id="path3859"
   inkscape:connector-curvature="0" /><path
   inkscape:connector-curvature="0"
   id="path3901"
   d="M 41.588512,81.415415 C 39.035183,80.59125 38.772127,79.907642 38.772127,74.096487 l 0,-4.740807 1.063967,-1.063967 c 0.872235,-0.872235 1.300813,-1.063968 2.37828,-1.063968 1.077468,0 1.506046,0.191733 2.37828,1.063968 l 1.063967,1.063967 0,4.740807 c 0,5.106699 -0.244352,6.136813 -1.616194,6.813412 -1.017647,0.501911 -1.899695,0.683762 -2.451915,0.505516 z M 15.433274,70.623362 c -1.784711,-0.475383 -2.771003,-2.339398 -2.258208,-4.267835 0.296243,-1.114062 3.963917,-5.19647 6.007557,-6.686875 1.737334,-1.267019 3.544914,-1.239927 4.85765,0.0728 0.76957,0.769568 0.962865,1.226749 0.962865,2.277358 0,1.572368 -0.391134,2.203758 -3.095854,4.997529 -3.265206,3.372708 -4.587606,4.109486 -6.474013,3.607015 z m 51.569252,-0.02369 c -1.114143,-0.288705 -5.186122,-3.942769 -6.686856,-6.000573 -1.26702,-1.737334 -1.239929,-3.544913 0.0728,-4.857648 0.774756,-0.774752 1.224107,-0.962865 2.300034,-0.962865 1.657674,0 2.912827,0.866085 6.034848,4.164183 3.050773,3.222837 3.462889,4.932245 1.630787,6.76435 -1.027558,1.027558 -1.916772,1.264359 -3.35162,0.892553 z m -30.3043,-8.059252 C 27.1331,60.032674 20.622096,51.538356 20.622096,41.567358 c 0,-12.149729 9.458301,-21.620309 21.592278,-21.620309 12.133978,0 21.592279,9.47058 21.592279,21.620309 0,10.034285 -6.549465,18.519713 -16.199354,20.987737 -3.106441,0.794495 -7.84705,0.788118 -10.909073,-0.01468 z M 4.1122583,44.594899 C 1.8151309,43.319151 1.8009739,39.750658 4.0883503,38.567812 4.715847,38.243317 6.210308,38.12511 9.6852438,38.12511 l 4.7408072,0 1.063968,1.063968 c 0.872233,0.872234 1.063966,1.300813 1.063966,2.37828 0,1.077467 -0.191733,1.506046 -1.063966,2.378279 L 14.426051,45.009605 9.6225506,44.99853 C 6.3741277,44.991017 4.5902363,44.860353 4.1122583,44.594899 z M 68.93873,43.945637 c -0.872233,-0.872233 -1.063967,-1.300812 -1.063967,-2.378279 0,-1.077467 0.191734,-1.506046 1.063967,-2.37828 l 1.063968,-1.063968 4.740807,0 c 3.474936,0 4.969397,0.118207 5.596894,0.442702 2.276577,1.177261 2.276577,4.821831 0,5.999091 -0.627497,0.324495 -2.121958,0.442702 -5.596894,0.442702 l -4.740807,0 -1.063968,-1.063968 z M 19.182623,23.466065 c -0.671244,-0.489531 -2.235999,-1.962888 -3.477233,-3.274125 -3.050773,-3.222837 -3.462888,-4.932247 -1.630787,-6.764349 1.832106,-1.832102 3.541513,-1.419989 6.764352,1.630787 3.298097,3.12202 4.164183,4.377172 4.164183,6.034844 0,1.897418 -1.365483,3.262902 -3.2629,3.262902 -0.974791,0 -1.667916,-0.241209 -2.557615,-0.890059 z m 41.205853,-0.0728 c -0.774753,-0.774754 -0.962865,-1.224105 -0.962865,-2.300036 0,-1.657672 0.866084,-2.912824 4.164183,-6.034844 3.222839,-3.050776 4.932246,-3.462889 6.764351,-1.630787 1.832102,1.832102 1.419986,3.541512 -1.630787,6.764349 -3.122021,3.298099 -4.377174,4.164184 -6.034848,4.164184 -1.075927,0 -1.525278,-0.188112 -2.300034,-0.962866 z m -20.552382,-8.550254 -1.063967,-1.063966 0,-4.7408072 c 0,-3.474936 0.118207,-4.9693966 0.442701,-5.5968952 1.177262,-2.2765753 4.821831,-2.2765753 5.999092,0 0.324494,0.6274986 0.442701,2.1219592 0.442701,5.5968952 l 0,4.7408072 -1.063967,1.063966 c -0.872234,0.872235 -1.300812,1.063968 -2.37828,1.063968 -1.077467,0 -1.506045,-0.191733 -2.37828,-1.063968 z"
   style="fill:#97bbd5;fill-opacity:1" /></svg>