<?xml version="1.0" encoding="UTF-8" standalone="no"?>
<!-- Generator: Adobe Illustrator 16.0.3, SVG Export Plug-In . SVG Version: 6.00 Build 0)  -->

<svg
   xmlns:dc="http://purl.org/dc/elements/1.1/"
   xmlns:cc="http://creativecommons.org/ns#"
   xmlns:rdf="http://www.w3.org/1999/02/22-rdf-syntax-ns#"
   xmlns:svg="http://www.w3.org/2000/svg"
   xmlns="http://www.w3.org/2000/svg"
   xmlns:sodipodi="http://sodipodi.sourceforge.net/DTD/sodipodi-0.dtd"
   xmlns:inkscape="http://www.inkscape.org/namespaces/inkscape"
   version="1.1"
   id="Layer_1"
   x="0px"
   y="0px"
   width="84px"
   height="86px"
   viewBox="0 0 84 86"
   enable-background="new 0 0 84 86"
   xml:space="preserve"
   inkscape:version="0.48.3.1 r9886"
   sodipodi:docname="table.svg"><metadata
   id="metadata10"><rdf:RDF><cc:Work
       rdf:about=""><dc:format>image/svg+xml</dc:format><dc:type
         rdf:resource="http://purl.org/dc/dcmitype/StillImage" /><dc:title></dc:title></cc:Work></rdf:RDF></metadata><defs
   id="defs8" /><sodipodi:namedview
   pagecolor="#ffffff"
   bordercolor="#666666"
   borderopacity="1"
   objecttolerance="10"
   gridtolerance="10"
   guidetolerance="10"
   inkscape:pageopacity="0"
   inkscape:pageshadow="2"
   inkscape:window-width="1018"
   inkscape:window-height="666"
   id="namedview6"
   showgrid="false"
   inkscape:zoom="3.8808651"
   inkscape:cx="62.445418"
   inkscape:cy="40.651601"
   inkscape:window-x="539"
   inkscape:window-y="242"
   inkscape:window-maximized="0"
   inkscape:current-layer="Layer_1" />

<rect
   id="_x3C_Slice_x3E__95_"
   fill="none"
   width="84"
   height="86" />
<path
   inkscape:connector-curvature="0"
   id="path3094"
   d="m 37.346756,61.700016 c -2.136775,-0.537865 -2.964783,-3.079133 -1.512585,-4.642339 0.685546,-0.737946 1.298556,-0.993685 2.381902,-0.993685 0.861418,0 0.981627,-0.04452 1.066524,-0.394965 0.05264,-0.217232 0.07388,-5.411029 0.04723,-11.541774 l -0.04843,-11.146807 -7.636002,-0.08776 c -7.303998,-0.08395 -7.662711,-0.10346 -8.250293,-0.448634 -0.770426,-0.452581 -1.397762,-1.537521 -1.401533,-2.42388 -0.0039,-0.881963 0.609759,-1.958014 1.394748,-2.446252 l 0.621077,-0.386293 18.16842,0 18.168422,0 0.64582,0.401585 c 0.745963,0.463855 1.374283,1.61334 1.370005,2.506367 -0.0039,0.818232 -0.65566,1.910316 -1.401534,2.348473 -0.587582,0.345174 -0.946301,0.364681 -8.250299,0.448634 l -7.636003,0.08776 -0.04842,11.146807 c -0.02665,6.130745 -0.0056,11.324542 0.04723,11.541774 0.0849,0.35045 0.205104,0.394965 1.066529,0.394965 1.08334,0 1.696351,0.255739 2.381897,0.993685 1.201397,1.293232 0.87383,3.334371 -0.691292,4.307561 -0.63116,0.392459 -0.780239,0.404719 -5.301246,0.436037 -2.558498,0.01773 -4.890446,-0.02784 -5.182105,-0.10126 z M 4.9453217,61.2849 C 4.158136,60.761772 3.5126915,59.507768 3.6131957,58.696767 3.6550984,58.358668 4.960232,55.070239 6.5135042,51.389145 8.0667737,47.708049 9.3605587,44.592662 9.3885782,44.466059 9.4166007,44.339457 9.3210373,44.216695 9.1762156,44.193253 9.031394,44.169811 8.6149916,44.101983 8.2508753,44.042516 7.3913618,43.902144 6.4613032,43.074362 6.1180712,42.144245 5.7228684,41.073294 1.6279823,22.284781 1.6279823,21.542427 c 0,-0.742581 0.5425236,-1.767348 1.1888007,-2.245519 0.2908174,-0.215172 0.8421728,-0.369913 1.4832492,-0.416284 0.8709297,-0.063 1.118741,-0.0087 1.6920592,0.370697 0.3694293,0.244476 0.8008113,0.716607 0.9586275,1.049179 0.1578153,0.332571 1.120147,4.38802 2.1385142,9.012106 1.0183659,4.624086 1.8934639,8.542947 1.9446619,8.70858 0.08609,0.27852 0.769349,0.304902 9.092645,0.351081 l 8.99956,0.04992 0.70558,0.467071 c 2.267642,1.501106 1.373187,4.937038 -1.353436,5.199031 -0.478663,0.04599 -0.8703,0.12805 -0.8703,0.182347 0,0.05429 1.315667,3.219296 2.923704,7.033334 2.268092,5.379598 2.921218,7.099042 2.912616,7.667872 -0.03858,2.553114 -3.154365,3.678062 -4.927881,1.779213 -0.224463,-0.240324 -1.621164,-3.308815 -3.103781,-6.818864 l -2.695663,-6.381909 -4.173895,0 -4.173902,0 -2.640349,6.244122 c -1.452192,3.43427 -2.7828775,6.459527 -2.9570812,6.722799 -0.7802741,1.179217 -2.6443631,1.553212 -3.8263901,0.767693 z m 47.2881643,0.02891 c -0.310465,-0.198854 -0.731761,-0.632212 -0.936215,-0.963019 -0.73307,-1.186137 -0.625759,-1.569727 2.539318,-9.076847 1.601073,-3.797523 2.911044,-6.949013 2.911044,-7.003309 0,-0.05429 -0.391638,-0.136352 -0.870301,-0.182346 -2.726623,-0.261995 -3.621076,-3.697926 -1.353434,-5.199033 l 0.705578,-0.467071 8.999567,-0.04992 c 8.323297,-0.04618 9.006552,-0.07256 9.092642,-0.351081 0.05127,-0.165633 0.926299,-4.084494 1.944666,-8.708579 1.018368,-4.624086 1.980691,-8.679534 2.138509,-9.012106 0.157816,-0.332571 0.589197,-0.804703 0.958636,-1.049179 0.573313,-0.379404 0.821126,-0.433695 1.692058,-0.370697 0.64107,0.04638 1.192427,0.201112 1.483243,0.416283 0.646278,0.478172 1.188803,1.50294 1.188803,2.24552 0,0.742353 -4.094887,19.530867 -4.490087,20.601819 -0.343238,0.930116 -1.273298,1.757898 -2.132803,1.898269 -0.364122,0.05946 -0.780526,0.127297 -0.925346,0.150738 -0.144821,0.02344 -0.243557,0.136688 -0.219409,0.25166 0.02412,0.114972 1.326187,3.23051 2.893427,6.923416 2.464484,5.807086 2.848726,6.836407 2.84358,7.617457 -0.01036,1.577647 -1.18574,2.696122 -2.831888,2.694839 -0.959948,-7.1e-4 -1.795545,-0.42794 -2.281209,-1.166248 -0.174196,-0.264826 -1.503217,-3.290086 -2.95337,-6.722795 l -2.636645,-6.241293 -4.173606,0 -4.173606,0 -2.702539,6.384975 c -1.486405,3.511737 -2.884907,6.580227 -3.107785,6.818865 -0.926366,0.991871 -2.537332,1.24213 -3.602828,0.559688 z"
   style="fill:#97bbd5;fill-opacity:1" /></svg>