<?xml version="1.0" encoding="UTF-8" standalone="no"?>
<!-- Created with Inkscape (http://www.inkscape.org/) -->

<svg
   xmlns:dc="http://purl.org/dc/elements/1.1/"
   xmlns:cc="http://creativecommons.org/ns#"
   xmlns:rdf="http://www.w3.org/1999/02/22-rdf-syntax-ns#"
   xmlns:svg="http://www.w3.org/2000/svg"
   xmlns="http://www.w3.org/2000/svg"
   xmlns:sodipodi="http://sodipodi.sourceforge.net/DTD/sodipodi-0.dtd"
   xmlns:inkscape="http://www.inkscape.org/namespaces/inkscape"
   width="112.25723"
   height="80.995789"
   id="svg3864"
   version="1.1"
   inkscape:version="0.48.3.1 r9886"
   sodipodi:docname="cart.svg">
  <defs
     id="defs3866" />
  <sodipodi:namedview
     id="base"
     pagecolor="#ffffff"
     bordercolor="#666666"
     borderopacity="1.0"
     inkscape:pageopacity="0.0"
     inkscape:pageshadow="2"
     inkscape:zoom="2.8"
     inkscape:cx="40.272772"
     inkscape:cy="54.60206"
     inkscape:document-units="px"
     inkscape:current-layer="layer1"
     showgrid="false"
     inkscape:window-width="562"
     inkscape:window-height="626"
     inkscape:window-x="515"
     inkscape:window-y="111"
     inkscape:window-maximized="0"
     fit-margin-top="0"
     fit-margin-left="0"
     fit-margin-right="0"
     fit-margin-bottom="0" />
  <metadata
     id="metadata3869">
    <rdf:RDF>
      <cc:Work
         rdf:about="">
        <dc:format>image/svg+xml</dc:format>
        <dc:type
           rdf:resource="http://purl.org/dc/dcmitype/StillImage" />
        <dc:title></dc:title>
      </cc:Work>
    </rdf:RDF>
  </metadata>
  <g
     inkscape:label="Layer 1"
     inkscape:groupmode="layer"
     id="layer1"
     transform="translate(-14.476779,-956.69245)">
    <path
       inkscape:connector-curvature="0"
       id="path3027"
       d="m 49.86529,1037.4868 c -3.31711,-0.8724 -5.04502,-2.6203 -5.26979,-5.3307 -0.20728,-2.4996 0.79708,-4.6134 2.92408,-6.1542 4.91502,-3.5604 9.96847,-0.3698 10.03886,6.3383 0.0276,2.6292 -0.43406,3.9164 -1.68463,4.6974 -0.9389,0.5863 -4.48028,0.8511 -6.00852,0.4492 z m 29.86902,-0.05 c -1.91783,-0.5964 -2.51578,-1.5947 -2.67834,-4.4717 -0.24625,-4.3581 1.35655,-7.1046 4.73714,-8.1175 2.15627,-0.646 4.44145,0.1121 6.47854,2.1492 3.4547,3.4547 3.01671,7.6873 -1.00794,9.7405 -1.68739,0.8609 -5.78604,1.2416 -7.5294,0.6995 z m -31.39578,-16.9951 c -5.16045,-0.3574 -6.77854,-0.7411 -6.77854,-1.6074 0,-0.6585 0.41581,-0.7921 4.61406,-1.4823 5.10803,-0.8398 12.14544,-1.2676 28.34034,-1.7227 12.90172,-0.3626 14.92672,-0.4966 15.45428,-1.0225 0.3339,-0.3328 2.63782,-4.8408 5.11981,-10.0179 2.48199,-5.17693 6.88716,-14.1466 9.78928,-19.93262 8.96746,-17.87864 11.18244,-20.45546 17.60148,-20.47688 2.45374,-0.008 2.96281,0.10367 3.66534,0.80537 1.26949,1.26802 0.49794,2.4873 -2.40762,3.80475 -5.36941,2.43461 -9.62057,9.01206 -24.62977,38.10758 -3.48193,6.7498 -6.55605,12.4544 -6.83139,12.6769 -0.84036,0.6791 -36.49257,1.3832 -43.93727,0.8677 z m 10.26819,-9.2282 c -8.8084,-0.591 -12.71123,-1.4533 -14.5927,-3.2244 -4.57342,-4.3052 -13.17704,-20.24067 -15.78547,-29.23763 -0.98016,-3.38077 -0.9184,-4.29632 0.33349,-4.9437 3.54248,-1.83189 16.39702,-2.8421 36.06821,-2.83455 22.77308,0.009 34.27336,1.21686 35.05597,3.68265 0.13469,0.42438 -0.0924,2.07286 -0.50467,3.6633 -2.18735,8.43842 -8.62088,22.02923 -13.69576,28.93223 -1.63392,2.2224 -2.02631,2.5372 -3.8084,3.0553 -3.81932,1.1103 -14.04592,1.5123 -23.07067,0.9068 z m 24.54979,-6.9151 c 0.53046,-0.3373 5.69586,-12.31227 8.2449,-19.11422 1.96764,-5.25056 2.2353,-6.93479 1.18999,-7.48807 -1.3891,-0.73524 -6.28341,-1.18471 -17.38312,-1.59641 -16.58536,-0.61515 -37.79013,0.22307 -40.3848,1.59641 -0.99177,0.52494 -0.78541,1.92653 0.85513,5.80795 1.97109,4.66351 9.89639,20.45444 10.44047,20.80234 0.56215,0.3595 36.47167,0.3517 37.03743,-0.01 z"
       style="fill:#cd0052;fill-opacity:1;stroke:none" />
    <path
       style="fill:#666666;stroke:#000000;stroke-width:1.11789179px;stroke-linecap:butt;stroke-linejoin:miter;stroke-opacity:1"
       d="m 15.035725,971.33023 29.767315,17.18626 -8.56423,11.3016 34.791516,-5.7931 -13.7433,-31.97076 -4.7069,11.68466 -28.557175,-16.48749 z"
       id="path3905-8"
       inkscape:connector-curvature="0"
       sodipodi:nodetypes="cccccccc" />
  </g>
</svg>
