<?xml version="1.0" encoding="UTF-8" standalone="no"?>
<!-- Created with Inkscape (http://www.inkscape.org/) -->

<svg
   xmlns:dc="http://purl.org/dc/elements/1.1/"
   xmlns:cc="http://creativecommons.org/ns#"
   xmlns:rdf="http://www.w3.org/1999/02/22-rdf-syntax-ns#"
   xmlns:svg="http://www.w3.org/2000/svg"
   xmlns="http://www.w3.org/2000/svg"
   xmlns:xlink="http://www.w3.org/1999/xlink"
   xmlns:sodipodi="http://sodipodi.sourceforge.net/DTD/sodipodi-0.dtd"
   xmlns:inkscape="http://www.inkscape.org/namespaces/inkscape"
   width="70.866142"
   height="75.826767"
   id="svg3997"
   version="1.1"
   inkscape:version="0.48.3.1 r9886"
   sodipodi:docname="New document 3">
  <defs
     id="defs3999">
    <linearGradient
       inkscape:collect="always"
       xlink:href="#linearGradient6521"
       id="linearGradient3155"
       gradientUnits="userSpaceOnUse"
       gradientTransform="matrix(0.49913414,0,0,0.50353214,-98.949813,1453.8176)"
       x1="267.88809"
       y1="-806.6095"
       x2="269.09787"
       y2="-939.9317" />
    <linearGradient
       id="linearGradient6521">
      <stop
         style="stop-color:#768185;stop-opacity:1;"
         offset="0"
         id="stop6523" />
      <stop
         style="stop-color:#c5d2d8;stop-opacity:1;"
         offset="1"
         id="stop6525" />
    </linearGradient>
    <linearGradient
       inkscape:collect="always"
       xlink:href="#linearGradient6605"
       id="linearGradient3157"
       gradientUnits="userSpaceOnUse"
       gradientTransform="matrix(0.4900978,0,0,0.4944162,-167.40086,-582.50326)"
       x1="267.88809"
       y1="-806.6095"
       x2="269.09787"
       y2="-939.9317" />
    <linearGradient
       id="linearGradient6605">
      <stop
         style="stop-color:#5a6264;stop-opacity:1;"
         offset="0"
         id="stop6607" />
      <stop
         style="stop-color:#131c21;stop-opacity:1;"
         offset="1"
         id="stop6609" />
    </linearGradient>
  </defs>
  <sodipodi:namedview
     id="base"
     pagecolor="#ffffff"
     bordercolor="#666666"
     borderopacity="1.0"
     inkscape:pageopacity="0.0"
     inkscape:pageshadow="2"
     inkscape:zoom="5.6"
     inkscape:cx="42.151077"
     inkscape:cy="51.287544"
     inkscape:document-units="px"
     inkscape:current-layer="layer1"
     showgrid="false"
     units="mm"
     inkscape:window-width="1053"
     inkscape:window-height="748"
     inkscape:window-x="450"
     inkscape:window-y="161"
     inkscape:window-maximized="0" />
  <metadata
     id="metadata4002">
    <rdf:RDF>
      <cc:Work
         rdf:about="">
        <dc:format>image/svg+xml</dc:format>
        <dc:type
           rdf:resource="http://purl.org/dc/dcmitype/StillImage" />
        <dc:title></dc:title>
      </cc:Work>
    </rdf:RDF>
  </metadata>
  <g
     inkscape:label="Layer 1"
     inkscape:groupmode="layer"
     id="layer1"
     transform="translate(0,-976.53542)">
    <rect
       ry="5.9121346"
       y="977.17767"
       x="0.77828443"
       height="74.40625"
       width="69.30957"
       id="rect3145"
       style="fill:none;stroke:#424f57;stroke-width:1.55656886;stroke-miterlimit:4;stroke-opacity:1;stroke-dasharray:none" />
    <rect
       transform="scale(-1,-1)"
       ry="2.6870573"
       y="-1047.3643"
       x="-66.389503"
       height="66.349648"
       width="61.877193"
       id="rect3149"
       style="fill:url(#linearGradient3157);fill-opacity:1;stroke:none" />
    <path
       style="fill:none;stroke:#000000;stroke-width:1.19792187;stroke-linecap:butt;stroke-linejoin:miter;stroke-miterlimit:4;stroke-opacity:1;stroke-dasharray:none"
       d="m 24.434749,997.61332 c -9.541428,0 -17.2825587,7.72868 -17.2825587,17.26998 0,9.5413 7.7411307,17.2825 17.2825587,17.2825 4.379284,0 8.372716,-1.6442 11.417674,-4.33 3.045837,2.6895 7.047419,4.33 11.430175,4.33 9.541328,0 17.28254,-7.7412 17.28254,-17.2825 -8e-5,-9.5413 -7.741212,-17.26998 -17.28254,-17.26998 -4.382756,0 -8.384338,1.62802 -11.430175,4.31748 -3.044958,-2.68566 -7.03839,-4.31748 -11.417674,-4.31748 z m -1.647142,4.65438 3.531354,0 0,2.9075 c 0.971036,0.093 1.79229,0.2375 2.483172,0.4242 0.70961,0.1868 1.27375,0.3748 1.684598,0.5615 l -0.860986,3.3567 c -0.616332,-0.2614 -1.337122,-0.487 -2.158776,-0.6738 -0.803006,-0.1868 -1.661678,-0.2745 -2.558082,-0.2745 -0.896326,0 -1.541966,0.1504 -1.934124,0.4492 -0.39216,0.2988 -0.586584,0.6874 -0.586504,1.173 -8e-5,0.2988 0.06266,0.562 0.1747,0.7861 0.13078,0.2054 0.325076,0.3935 0.586502,0.5615 0.261426,0.168 0.574882,0.3311 0.948354,0.4992 0.39216,0.1494 0.868534,0.3248 1.410034,0.5116 0.821656,0.2988 1.567642,0.6185 2.258602,0.9733 0.70961,0.3548 1.317634,0.7685 1.82184,1.2353 0.522854,0.4482 0.930306,0.981 1.21038,1.5973 0.298842,0.6162 0.449222,1.3371 0.449222,2.1587 0,0.5602 -0.08146,1.1244 -0.249568,1.6846 -0.16802,0.5415 -0.456328,1.043 -0.848528,1.5099 -0.39212,0.4668 -0.899918,0.8618 -1.534818,1.1979 -0.61625,0.3361 -1.381004,0.5868 -2.296016,0.7362 l 0,3.4066 -3.531354,0 0,-3.3317 c -1.363316,-0.112 -2.47279,-0.3127 -3.33178,-0.6114 -0.840342,-0.3175 -1.473364,-0.5808 -1.884252,-0.7862 l 1.21042,-3.2194 c 0.653586,0.3175 1.42461,0.6121 2.320974,0.8735 0.915014,0.2614 1.87415,0.3868 2.88256,0.3868 1.139064,0 1.922584,-0.1504 2.333432,-0.4492 0.429494,-0.3175 0.636376,-0.75 0.636376,-1.3102 0,-0.3548 -0.08146,-0.6557 -0.249568,-0.8985 -0.16802,-0.2614 -0.406294,-0.4933 -0.723704,-0.6988 -0.31749,-0.2054 -0.724902,-0.4122 -1.21042,-0.5989 -0.485518,-0.2054 -1.049698,-0.4123 -1.684558,-0.6364 -0.61637,-0.2241 -1.211858,-0.4748 -1.80942,-0.7362 -0.578916,-0.2801 -1.111712,-0.6061 -1.59723,-0.9983 -0.46687,-0.3922 -0.849206,-0.8748 -1.148008,-1.435 -0.280114,-0.5789 -0.424264,-1.2684 -0.424264,-2.0714 0,-0.6163 0.0815,-1.1992 0.249566,-1.7595 0.18676,-0.5789 0.462518,-1.1054 0.83607,-1.5722 0.373432,-0.4669 0.862384,-0.8555 1.459948,-1.173 0.597564,-0.3361 1.312084,-0.5868 2.133858,-0.7362 l 0,-3.0198 z m 22.810435,0 3.531354,0 0,2.9075 c 0.971034,0.093 1.804708,0.2375 2.49567,0.4242 0.709608,0.1868 1.27379,0.3748 1.684558,0.5615 l -0.873446,3.3567 c -0.61633,-0.2614 -1.33712,-0.487 -2.158774,-0.6738 -0.803008,-0.1868 -1.64922,-0.2745 -2.545584,-0.2745 -0.896366,0 -1.542046,0.1504 -1.934126,0.4492 -0.392198,0.2988 -0.586502,0.6874 -0.586502,1.173 0,0.2988 0.0502,0.562 0.1622,0.7861 0.13078,0.2054 0.337576,0.3935 0.598962,0.5615 0.261466,0.168 0.574922,0.3311 0.948354,0.4992 0.3922,0.1494 0.856076,0.3248 1.397576,0.5116 0.821654,0.2988 1.5801,0.6185 2.2711,0.9733 0.70953,0.3548 1.317634,0.7685 1.8218,1.2353 0.522892,0.4482 0.917848,0.981 1.197922,1.5973 0.298842,0.6162 0.44922,1.3371 0.44922,2.1587 0,0.5602 -0.08146,1.1244 -0.249566,1.6846 -0.16804,0.5415 -0.44387,1.043 -0.83603,1.5099 -0.39216,0.4668 -0.912418,0.8618 -1.547316,1.1979 -0.61625,0.3361 -1.381004,0.5868 -2.296016,0.7362 l 0,3.4066 -3.531354,0 0,-3.3317 c -1.363276,-0.112 -2.472752,-0.3127 -3.33174,-0.6114 -0.840344,-0.3175 -1.460906,-0.5808 -1.871754,-0.7862 l 1.197922,-3.2194 c 0.653586,0.3175 1.437146,0.6121 2.333432,0.8735 0.915092,0.2614 1.874108,0.3868 2.88252,0.3868 1.139104,0 1.910126,-0.1504 2.320974,-0.4492 0.429494,-0.3175 0.648874,-0.75 0.648874,-1.3102 0,-0.3548 -0.0815,-0.6557 -0.249568,-0.8985 -0.16806,-0.2614 -0.418794,-0.4933 -0.736202,-0.6988 -0.31749,-0.2054 -0.712444,-0.4122 -1.197922,-0.5989 -0.485558,-0.2054 -1.0497,-0.4123 -1.684598,-0.6364 -0.61625,-0.2241 -1.224276,-0.4748 -1.82184,-0.7362 -0.578916,-0.2801 -1.11171,-0.6061 -1.597228,-0.9983 -0.46687,-0.3922 -0.849208,-0.8748 -1.14801,-1.435 -0.280114,-0.5789 -0.424264,-1.2684 -0.424264,-2.0714 0,-0.6163 0.094,-1.1992 0.262026,-1.7595 0.1868,-0.5789 0.462598,-1.1054 0.83607,-1.5722 0.373472,-0.4669 0.862424,-0.8555 1.459948,-1.173 0.597602,-0.3361 1.299624,-0.5868 2.12136,-0.7362 l 0,-3.0198 z"
       id="path3163"
       inkscape:connector-curvature="0" />
    <path
       id="path3972"
       d="m 23.845891,996.01608 c -9.541404,0 -17.2825347,7.72872 -17.2825347,17.27002 0,9.5413 7.7411307,17.2825 17.2825347,17.2825 4.379282,0 8.372716,-1.6443 11.417672,-4.33 3.045839,2.6895 7.047421,4.33 11.430177,4.33 9.541328,0 17.28254,-7.7412 17.28254,-17.2825 -8e-5,-9.5413 -7.741212,-17.27002 -17.28254,-17.27002 -4.382756,0 -8.384338,1.62806 -11.430177,4.31752 -3.044956,-2.68572 -7.03839,-4.31752 -11.417672,-4.31752 z m -1.647142,4.65442 3.531354,0 0,2.9074 c 0.971034,0.093 1.79229,0.2376 2.483172,0.4243 0.709608,0.1868 1.27375,0.3748 1.684598,0.5615 l -0.860988,3.3567 c -0.61633,-0.2614 -1.33712,-0.4871 -2.158774,-0.6738 -0.803008,-0.1868 -1.661678,-0.2745 -2.558082,-0.2746 -0.896326,10e-5 -1.541966,0.1504 -1.934126,0.4493 -0.392158,0.2988 -0.586542,0.6874 -0.586462,1.1729 -8e-5,0.2988 0.06266,0.5621 0.17466,0.7862 0.13078,0.2054 0.325076,0.3934 0.586502,0.5615 0.261426,0.168 0.574882,0.3311 0.948354,0.4991 0.39216,0.1494 0.868534,0.3249 1.410034,0.5116 0.821656,0.2988 1.56764,0.6185 2.258602,0.9733 0.70961,0.3549 1.317634,0.7686 1.82184,1.2354 0.522852,0.4482 0.930306,0.981 1.21038,1.5972 0.298842,0.6163 0.44922,1.3371 0.44922,2.1588 0,0.5602 -0.08146,1.1243 -0.249566,1.6846 -0.16802,0.5415 -0.456328,1.043 -0.848528,1.5098 -0.39212,0.4669 -0.89992,0.8618 -1.534818,1.198 -0.61625,0.3361 -1.381004,0.5868 -2.296016,0.7362 l 0,3.4066 -3.531354,0 0,-3.3317 c -1.363276,-0.112 -2.47275,-0.3127 -3.33174,-0.6115 -0.840342,-0.3174 -1.473364,-0.5807 -1.884252,-0.7861 l 1.21042,-3.2194 c 0.653586,0.3174 1.424608,0.612 2.320974,0.8735 0.915012,0.2614 1.874108,0.3868 2.88252,0.3868 1.139064,0 1.922584,-0.1504 2.333432,-0.4492 0.429494,-0.3175 0.636376,-0.75 0.636376,-1.3103 0,-0.3548 -0.08146,-0.6556 -0.249568,-0.8984 -0.16802,-0.2614 -0.406294,-0.4934 -0.723704,-0.6988 -0.31749,-0.2054 -0.724902,-0.4122 -1.21042,-0.599 -0.485518,-0.2054 -1.0497,-0.4123 -1.684558,-0.6364 -0.61633,-0.224 -1.211818,-0.4747 -1.809382,-0.7362 -0.578914,-0.2801 -1.11171,-0.6061 -1.597228,-0.9982 -0.46687,-0.3922 -0.849208,-0.8748 -1.148008,-1.4351 -0.280114,-0.5788 -0.424264,-1.2684 -0.424264,-2.0714 0,-0.6162 0.0815,-1.1992 0.249566,-1.7594 0.18676,-0.5789 0.462518,-1.1054 0.83607,-1.5723 0.373432,-0.4668 0.862384,-0.8555 1.459948,-1.1729 0.597562,-0.3362 1.312082,-0.5869 2.133818,-0.7363 l 0,-3.0197 z m 22.810433,0 3.531354,0 0,2.9074 c 0.971036,0.093 1.80471,0.2376 2.495672,0.4243 0.709608,0.1868 1.27379,0.3748 1.684556,0.5615 l -0.873444,3.3567 c -0.61633,-0.2614 -1.33712,-0.4871 -2.158774,-0.6738 -0.803008,-0.1868 -1.64922,-0.2745 -2.545584,-0.2746 -0.896366,10e-5 -1.542046,0.1504 -1.934126,0.4493 -0.3922,0.2988 -0.586502,0.6874 -0.586502,1.1729 0,0.2988 0.0502,0.5621 0.1622,0.7862 0.13078,0.2054 0.337574,0.3934 0.598962,0.5615 0.261466,0.168 0.574922,0.3311 0.948354,0.4991 0.3922,0.1494 0.856076,0.3249 1.397576,0.5116 0.821654,0.2988 1.580098,0.6185 2.2711,0.9733 0.70953,0.3549 1.317634,0.7686 1.8218,1.2354 0.522892,0.4482 0.917848,0.981 1.197922,1.5972 0.29884,0.6163 0.44922,1.3371 0.44922,2.1588 0,0.5602 -0.08146,1.1243 -0.249566,1.6846 -0.16804,0.5415 -0.44387,1.043 -0.83603,1.5098 -0.39216,0.4669 -0.912418,0.8618 -1.547316,1.198 -0.616252,0.3361 -1.381004,0.5868 -2.296018,0.7362 l 0,3.4066 -3.531354,0 0,-3.3317 c -1.363274,-0.112 -2.47275,-0.3127 -3.33174,-0.6115 -0.840342,-0.3174 -1.460906,-0.5807 -1.871756,-0.7861 l 1.197926,-3.2194 c 0.653586,0.3174 1.437146,0.612 2.333432,0.8735 0.915092,0.2614 1.874108,0.3868 2.88252,0.3868 1.139102,0 1.910126,-0.1504 2.320972,-0.4492 0.429496,-0.3175 0.648876,-0.75 0.648876,-1.3103 0,-0.3548 -0.0815,-0.6556 -0.249568,-0.8984 -0.16806,-0.2614 -0.418794,-0.4934 -0.736202,-0.6988 -0.31749,-0.2054 -0.712444,-0.4122 -1.197922,-0.599 -0.485558,-0.2054 -1.0497,-0.4123 -1.684598,-0.6364 -0.616252,-0.224 -1.224276,-0.4747 -1.82184,-0.7362 -0.578916,-0.2801 -1.111712,-0.6061 -1.59723,-0.9982 -0.46687,-0.3922 -0.849206,-0.8748 -1.148008,-1.4351 -0.280114,-0.5788 -0.424264,-1.2684 -0.424264,-2.0714 0,-0.6162 0.094,-1.1992 0.262026,-1.7594 0.1868,-0.5789 0.462598,-1.1054 0.83607,-1.5723 0.373472,-0.4668 0.862424,-0.8555 1.459946,-1.1729 0.597604,-0.3362 1.299626,-0.5869 2.12136,-0.7363 l 0,-3.0197 z"
       style="fill:none;stroke:#ffffff;stroke-width:1.19792187;stroke-linecap:butt;stroke-linejoin:miter;stroke-miterlimit:4;stroke-opacity:1;stroke-dasharray:none"
       inkscape:connector-curvature="0" />
    <path
       inkscape:connector-curvature="0"
       style="fill:url(#linearGradient3155);fill-opacity:1;stroke:none"
       d="m 6.6635783,980.3901 c -1.516078,0 -2.7452379,1.21668 -2.7452379,2.73276 l 0,62.10474 c 0,1.5161 1.2291599,2.7327 2.7452379,2.7327 l 57.5377097,0 c 1.51605,0 2.745239,-1.2166 2.745239,-2.7327 l 0,-62.10474 c 0,-1.51608 -1.229189,-2.73276 -2.745239,-2.73276 l -57.5377097,0 z m 17.3449107,16.50886 c 4.379282,0 8.372716,1.6318 11.417672,4.31744 3.045879,-2.6894 7.047461,-4.31744 11.430177,-4.31744 9.541368,0 17.28246,7.72864 17.28254,17.27004 0,9.5413 -7.741172,17.2825 -17.28254,17.2825 -4.382716,0 -8.384338,-1.6405 -11.430177,-4.33 -3.044916,2.6857 -7.03839,4.33 -11.417672,4.33 -9.541428,0 -17.2825187,-7.7412 -17.2825187,-17.2825 0,-9.5414 7.7410907,-17.27004 17.2825187,-17.27004 z m -1.647142,4.65444 0,3.0197 c -0.821736,0.1494 -1.536256,0.4001 -2.13378,0.7362 -0.597602,0.3175 -1.086554,0.7062 -1.459986,1.173 -0.373552,0.4669 -0.649274,0.9934 -0.83603,1.5723 -0.1681,0.5602 -0.249566,1.1432 -0.249566,1.7594 0,0.803 0.14412,1.4925 0.424224,2.0714 0.29884,0.5603 0.681138,1.0429 1.148008,1.435 0.485558,0.3922 1.018352,0.7182 1.597228,0.9983 0.597604,0.2615 1.193052,0.5121 1.809382,0.7362 0.634858,0.2241 1.19904,0.431 1.684558,0.6364 0.485558,0.1868 0.89293,0.3936 1.21042,0.599 0.31741,0.2054 0.555716,0.4373 0.723744,0.6988 0.1681,0.2427 0.249568,0.5436 0.249568,0.8984 0,0.5602 -0.206922,0.9928 -0.636416,1.3102 -0.410848,0.2988 -1.194368,0.4493 -2.333432,0.4493 -1.008412,0 -1.967468,-0.1254 -2.88248,-0.3869 -0.896406,-0.2614 -1.667428,-0.556 -2.321014,-0.8735 l -1.21038,3.2195 c 0.410888,0.2054 1.043868,0.4686 1.884252,0.7861 0.858988,0.2988 1.968424,0.4994 3.3317,0.6114 l 0,3.3318 3.531354,0 0,-3.4066 c 0.915052,-0.1494 1.679766,-0.4001 2.296016,-0.7363 0.634938,-0.3361 1.142738,-0.731 1.534858,-1.1979 0.3922,-0.4668 0.6805,-0.9683 0.848528,-1.5099 0.1681,-0.5602 0.249566,-1.1243 0.249566,-1.6845 0,-0.8217 -0.15038,-1.5425 -0.44922,-2.1588 -0.280074,-0.6162 -0.687528,-1.149 -1.21038,-1.5972 -0.504246,-0.4669 -1.11223,-0.8806 -1.82188,-1.2354 -0.690922,-0.3548 -1.436908,-0.6745 -2.258562,-0.9733 -0.5415,-0.1868 -1.017914,-0.3622 -1.410034,-0.5116 -0.373472,-0.168 -0.686928,-0.3311 -0.948354,-0.4991 -0.261426,-0.168 -0.45573,-0.3561 -0.586502,-0.5616 -0.112,-0.224 -0.17478,-0.4873 -0.1747,-0.7861 -8e-5,-0.4855 0.19434,-0.8742 0.586462,-1.173 0.3922,-0.2987 1.03784,-0.4492 1.934166,-0.4492 0.896404,0 1.755074,0.088 2.558042,0.2745 0.821694,0.1868 1.542444,0.4125 2.158774,0.6739 l 0.861028,-3.3567 c -0.410888,-0.1868 -0.97499,-0.3748 -1.684598,-0.5615 -0.690882,-0.1868 -1.512138,-0.3309 -2.483212,-0.4243 l 0,-2.9074 -3.531354,0 z m 22.810433,0 0,3.0197 c -0.821734,0.1494 -1.523716,0.4001 -2.12132,0.7362 -0.597522,0.3175 -1.086474,0.7062 -1.459946,1.173 -0.373512,0.4669 -0.649274,0.9934 -0.83607,1.5723 -0.16802,0.5602 -0.262026,1.1432 -0.262026,1.7594 0,0.803 0.14414,1.4925 0.424224,2.0714 0.298802,0.5603 0.681138,1.0429 1.148008,1.435 0.485518,0.3922 1.018314,0.7182 1.59723,0.9983 0.597564,0.2615 1.205588,0.5121 1.82188,0.7362 0.634898,0.2241 1.199,0.431 1.684558,0.6364 0.485476,0.1868 0.880432,0.3936 1.197922,0.599 0.317408,0.2054 0.568134,0.4373 0.736202,0.6988 0.1681,0.2427 0.249566,0.5436 0.249566,0.8984 0,0.5602 -0.219378,0.9928 -0.648874,1.3102 -0.410806,0.2988 -1.18187,0.4493 -2.320934,0.4493 -1.00841,0 -1.967426,-0.1254 -2.882518,-0.3869 -0.896286,-0.2614 -1.679886,-0.556 -2.333472,-0.8735 l -1.197922,3.2195 c 0.410846,0.2054 1.03145,0.4686 1.871792,0.7861 0.85895,0.2988 1.968426,0.4994 3.3317,0.6114 l 0,3.3318 3.531354,0 0,-3.4066 c 0.915014,-0.1494 1.679766,-0.4001 2.296018,-0.7363 0.634898,-0.3361 1.155196,-0.731 1.547316,-1.1979 0.392158,-0.4668 0.66804,-0.9683 0.836068,-1.5099 0.1681,-0.5602 0.249568,-1.1243 0.249568,-1.6845 0,-0.8217 -0.15038,-1.5425 -0.44922,-2.1588 -0.280074,-0.6162 -0.67503,-1.149 -1.197922,-1.5972 -0.504166,-0.4669 -1.112312,-0.8806 -1.82184,-1.2354 -0.691002,-0.3548 -1.449406,-0.6745 -2.27106,-0.9733 -0.5415,-0.1868 -1.005376,-0.3622 -1.397576,-0.5116 -0.373432,-0.168 -0.686888,-0.3311 -0.948354,-0.4991 -0.261388,-0.168 -0.468188,-0.3561 -0.598962,-0.5616 -0.112,-0.224 -0.1622,-0.4873 -0.1622,-0.7861 0,-0.4855 0.19426,-0.8742 0.586462,-1.173 0.39208,-0.2987 1.0378,-0.4492 1.934126,-0.4492 0.896364,0 1.742616,0.088 2.545584,0.2745 0.821654,0.1868 1.542444,0.4125 2.158774,0.6739 l 0.873484,-3.3567 c -0.410766,-0.1868 -0.974948,-0.3748 -1.684596,-0.5615 -0.690922,-0.1868 -1.524596,-0.3309 -2.495672,-0.4243 l 0,-2.9074 -3.531354,0 z"
       id="rect3147" />
  </g>
</svg>
