<?xml version="1.0" encoding="UTF-8" standalone="no"?>
<!-- Created with Inkscape (http://www.inkscape.org/) -->

<svg
   xmlns:dc="http://purl.org/dc/elements/1.1/"
   xmlns:cc="http://creativecommons.org/ns#"
   xmlns:rdf="http://www.w3.org/1999/02/22-rdf-syntax-ns#"
   xmlns:svg="http://www.w3.org/2000/svg"
   xmlns="http://www.w3.org/2000/svg"
   xmlns:xlink="http://www.w3.org/1999/xlink"
   xmlns:sodipodi="http://sodipodi.sourceforge.net/DTD/sodipodi-0.dtd"
   xmlns:inkscape="http://www.inkscape.org/namespaces/inkscape"
   width="35.433071"
   height="35.433071"
   id="svg4861"
   version="1.1"
   inkscape:version="0.48.5 r10040"
   sodipodi:docname="salor-hospitality-icon.svg"
   inkscape:export-filename="/home/michael/Public/debian/salor-hospitality/salor-hospitality/app/assets/images/salor-hospitality-icon.png"
   inkscape:export-xdpi="660.40002"
   inkscape:export-ydpi="660.40002">
  <defs
     id="defs4863">
    <linearGradient
       inkscape:collect="always"
       xlink:href="#linearGradient6605"
       id="linearGradient6768"
       gradientUnits="userSpaceOnUse"
       gradientTransform="matrix(1.8379875,0,0,1.832855,-159.0482,-549.8816)"
       x1="139.43695"
       y1="857.61609"
       x2="138.71281"
       y2="778.9826" />
    <linearGradient
       id="linearGradient6605">
      <stop
         style="stop-color:#5a6264;stop-opacity:1;"
         offset="0"
         id="stop6607" />
      <stop
         style="stop-color:#131c21;stop-opacity:1;"
         offset="1"
         id="stop6609" />
    </linearGradient>
    <linearGradient
       inkscape:collect="always"
       xlink:href="#linearGradient6521"
       id="linearGradient6770"
       gradientUnits="userSpaceOnUse"
       gradientTransform="matrix(1,0,0,-1.0088113,-174.33192,67.348807)"
       x1="267.88809"
       y1="-806.6095"
       x2="269.09787"
       y2="-939.9317" />
    <linearGradient
       id="linearGradient6521">
      <stop
         style="stop-color:#768185;stop-opacity:1;"
         offset="0"
         id="stop6523" />
      <stop
         style="stop-color:#c5d2d8;stop-opacity:1;"
         offset="1"
         id="stop6525" />
    </linearGradient>
    <linearGradient
       y2="-939.9317"
       x2="269.09787"
       y1="-806.6095"
       x1="267.88809"
       gradientTransform="matrix(1,0,0,-1.0088113,-174.33192,67.348807)"
       gradientUnits="userSpaceOnUse"
       id="linearGradient4859"
       xlink:href="#linearGradient6521"
       inkscape:collect="always" />
    <linearGradient
       inkscape:collect="always"
       xlink:href="#linearGradient6521-9"
       id="linearGradient4229"
       gradientUnits="userSpaceOnUse"
       gradientTransform="matrix(0.23270419,0,0,0.23475462,-45.016018,1239.6143)"
       x1="267.88809"
       y1="-806.6095"
       x2="269.09787"
       y2="-939.9317" />
    <linearGradient
       id="linearGradient6521-9">
      <stop
         style="stop-color:#768185;stop-opacity:1;"
         offset="0"
         id="stop6523-2" />
      <stop
         style="stop-color:#c5d2d8;stop-opacity:1;"
         offset="1"
         id="stop6525-0" />
    </linearGradient>
    <linearGradient
       inkscape:collect="always"
       xlink:href="#linearGradient6605-3"
       id="linearGradient4209"
       gradientUnits="userSpaceOnUse"
       gradientTransform="matrix(1.25,0,0,1.2610141,-748.89174,702.73479)"
       x1="267.88809"
       y1="-806.6095"
       x2="269.09787"
       y2="-939.9317" />
    <linearGradient
       id="linearGradient6605-3">
      <stop
         style="stop-color:#5a6264;stop-opacity:1;"
         offset="0"
         id="stop6607-6" />
      <stop
         style="stop-color:#131c21;stop-opacity:1;"
         offset="1"
         id="stop6609-6" />
    </linearGradient>
    <linearGradient
       y2="-939.9317"
       x2="269.09787"
       y1="-806.6095"
       x1="267.88809"
       gradientTransform="matrix(0.23270419,0,0,0.23475462,-80.298301,-829.71464)"
       gradientUnits="userSpaceOnUse"
       id="linearGradient3235"
       xlink:href="#linearGradient6605-3"
       inkscape:collect="always" />
  </defs>
  <sodipodi:namedview
     id="base"
     pagecolor="#ffffff"
     bordercolor="#666666"
     borderopacity="1.0"
     inkscape:pageopacity="0.0"
     inkscape:pageshadow="2"
     inkscape:zoom="15.839192"
     inkscape:cx="25.302536"
     inkscape:cy="20.238182"
     inkscape:document-units="px"
     inkscape:current-layer="layer1"
     showgrid="false"
     inkscape:window-width="1111"
     inkscape:window-height="879"
     inkscape:window-x="198"
     inkscape:window-y="103"
     inkscape:window-maximized="0"
     units="mm" />
  <metadata
     id="metadata4866">
    <rdf:RDF>
      <cc:Work
         rdf:about="">
        <dc:format>image/svg+xml</dc:format>
        <dc:type
           rdf:resource="http://purl.org/dc/dcmitype/StillImage" />
        <dc:title></dc:title>
      </cc:Work>
    </rdf:RDF>
  </metadata>
  <g
     inkscape:label="Layer 1"
     inkscape:groupmode="layer"
     id="layer1"
     transform="translate(0,-1016.9291)">
    <rect
       transform="scale(-1,-1)"
       ry="1.2758464"
       y="-1050.4359"
       x="-32.336895"
       height="31.50359"
       width="29.380018"
       id="rect4207"
       style="fill:url(#linearGradient3235);fill-opacity:1;stroke:none"
       inkscape:export-filename="/home/michael/Public/debian/salor-hospitality/salor-hospitality/public/apple-touch-icon-57x57-billgastro.png"
       inkscape:export-xdpi="26.96895"
       inkscape:export-ydpi="26.96895" />
    <rect
       style="fill:none;stroke:#424f57;stroke-width:0.72569692;stroke-miterlimit:4;stroke-opacity:1;stroke-dasharray:none"
       id="rect6852"
       width="32.313217"
       height="34.689365"
       x="1.6265008"
       y="1017.2496"
       ry="2.7563303"
       inkscape:export-filename="/home/michael/Public/debian/salor-hospitality/salor-hospitality/public/apple-touch-icon-57x57-billgastro.png"
       inkscape:export-xdpi="26.96895"
       inkscape:export-ydpi="26.96895" />
    <path
       id="path4189"
       d="m 14.344518,1021.3025 c -0.118161,0 -0.236717,0.013 -0.354873,0.018 -0.525432,0.048 -1.044762,0.1536 -1.559119,0.2793 -0.481945,0.1151 -0.949172,0.2965 -1.40786,0.4945 -0.411021,0.1781 -0.804772,0.3951 -1.1926094,0.6283 -0.3333221,0.1997 -0.6491743,0.4288 -0.9482693,0.6864 -0.2642481,0.2298 -0.4959209,0.4987 -0.7155655,0.7796 -0.1930594,0.2468 -0.3567616,0.5226 -0.4886787,0.8145 -0.1220931,0.2746 -0.1998343,0.5677 -0.2559746,0.8668 -0.058647,0.3132 -0.05227,0.6272 -0.017436,0.9424 0.041961,0.3308 0.14833,0.6441 0.2676096,0.9483 0.1262711,0.3173 0.3039896,0.6059 0.4944956,0.8785 0.1966229,0.2796 0.428169,0.5141 0.6690243,0.7447 0.2346841,0.2315 0.4949677,0.4297 0.7621068,0.6108 0.7644186,0.5712 1.5132716,1.036 2.3619476,1.3671 0.295999,0.1112 0.596537,0.2106 0.90173,0.2851 l -1.361321,-1.1519 c -0.299313,-0.085 -0.593718,-0.1848 -0.884276,-0.3025 -0.05434,-0.022 -0.118601,-0.053 -0.180346,-0.082 -0.004,0 -0.0076,-0.013 -0.01164,-0.013 -0.242705,-0.2206 -0.485004,-0.4467 -0.6864775,-0.7156 -0.1967148,-0.2547 -0.378526,-0.5292 -0.5119487,-0.8319 -0.1252104,-0.2856 -0.2314038,-0.5825 -0.2850631,-0.896 -0.043177,-0.2941 -0.061596,-0.589 -0.011641,-0.8842 0.050084,-0.2839 0.1230373,-0.5598 0.2385219,-0.8203 0.1238392,-0.2784 0.2760125,-0.5393 0.4595905,-0.7737 0.2125783,-0.2713 0.4416994,-0.5299 0.6981124,-0.7505 0.293435,-0.2491 0.599614,-0.4748 0.924999,-0.669 0.382324,-0.2276 0.775892,-0.4379 1.180973,-0.6109 0.453004,-0.1919 0.914835,-0.3621 1.390409,-0.4712 0.508531,-0.1203 1.021861,-0.223 1.541665,-0.256 0.467572,-0.019 0.930846,0 1.390407,0.1048 0.469663,0.1035 0.932964,0.2379 1.390408,0.3956 0.522831,0.18 1.045019,0.3725 1.553301,0.5992 0.567908,0.2502 1.132712,0.5054 1.687105,0.7913 0.574006,0.2972 1.144545,0.6076 1.704558,0.9366 0.0084,0 0.03661,0.026 0.04072,0.028 0.07634,0.056 0.1515,0.1177 0.226887,0.1745 0.325376,0.2731 0.646794,0.5539 0.942452,0.8668 0.124861,0.1381 0.235358,0.2875 0.354873,0.4306 l 0.756289,0.3781 c -0.06197,0 -0.124021,0.013 -0.186163,0.013 -0.318704,0.037 -0.634279,0.1035 -0.924999,0.2444 -0.294177,0.1476 -0.575506,0.3161 -0.831918,0.5236 -0.258897,0.2155 -0.50615,0.4487 -0.733017,0.6981 -0.191433,0.2112 -0.374219,0.4273 -0.53522,0.6632 -0.08859,0.1267 -0.178456,0.2518 -0.238522,0.3956 l 1.402043,0.7737 c 0.04165,-0.1348 0.126245,-0.2502 0.203615,-0.3665 0.153126,-0.2323 0.332427,-0.4448 0.517767,-0.6515 0.220906,-0.2446 0.465779,-0.4672 0.721384,-0.675 0.251263,-0.1959 0.526191,-0.3598 0.814464,-0.4945 0.282825,-0.1254 0.584085,-0.1748 0.890094,-0.1977 0.296093,-0.013 0.587379,0.036 0.87264,0.1099 0.05979,0.058 0.124253,0.1177 0.180345,0.1803 0.184417,0.2181 0.320466,0.4678 0.436321,0.7274 0.114642,0.2675 0.183616,0.5468 0.238522,0.8318 0.05098,0.2828 0.07132,0.5742 0.07563,0.861 9.3e-4,0.3116 -0.03574,0.6182 -0.08726,0.9251 -0.05834,0.3176 -0.160675,0.6287 -0.273427,0.9308 -0.1119,0.309 -0.258038,0.5992 -0.430503,0.8784 -0.184436,0.2936 -0.406136,0.5601 -0.634118,0.8203 -0.229499,0.2616 -0.483046,0.4994 -0.750472,0.7214 -0.230103,0.1894 -0.482348,0.3494 -0.738836,0.5003 -0.237141,0.1335 -0.48728,0.2436 -0.744653,0.3315 -0.238685,0.082 -0.483063,0.1048 -0.733018,0.1165 -0.231802,-0 -0.463598,-0.014 -0.692295,-0.053 l -0.215251,-0.1164 c -0.0047,0.023 -0.0072,0.047 -0.01164,0.07 -0.0877,-0.019 -0.175181,-0.04 -0.261792,-0.063 -0.03221,-0.044 -0.06306,-0.088 -0.09308,-0.1338 l -1.46022,-0.6342 c 0.08273,0.1216 0.156609,0.2511 0.255975,0.3608 0.400875,0.4395 0.947569,0.7128 1.48349,0.9715 -0.01125,0.083 -0.02207,0.1675 -0.03491,0.2502 -0.03081,0.2004 -0.07493,0.395 -0.11635,0.5933 -0.04019,0.2019 -0.09025,0.4011 -0.14544,0.5993 -0.04853,0.1637 -0.09575,0.3271 -0.151258,0.4887 -0.536838,-0.3657 -1.121231,-0.6636 -1.716193,-0.9192 -0.29974,-0.1061 -0.609488,-0.1892 -0.924999,-0.2327 -0.266733,-0.035 -0.533514,-0.058 -0.80283,-0.058 -0.146197,0 -0.290153,0 -0.436319,0 l 1.297324,0.9424 c 0.142015,0 0.282642,0 0.424686,0 0.263618,0 0.525044,0.032 0.785376,0.07 0.194291,0.034 0.383408,0.085 0.570125,0.1454 0.145475,0.1408 0.273484,0.2996 0.383963,0.4712 0.157586,0.261 0.247024,0.5544 0.31415,0.8494 0.06605,0.3071 0.08637,0.6177 0.08145,0.9308 -0.0075,0.3448 -0.08497,0.6795 -0.16871,1.0123 -0.09357,0.3495 -0.225767,0.6886 -0.360693,1.0238 -0.0094,0.023 -0.01936,0.047 -0.02909,0.07 -0.337324,-0.1461 -0.670444,-0.2989 -1.006445,-0.448 -0.35801,-0.1522 -0.714299,-0.3077 -1.099527,-0.378 -0.368156,-0.061 -0.744407,-0.08 -1.11698,-0.047 -0.336063,0.026 -0.66876,0.049 -1.000627,0.1099 -0.09008,0.022 -0.186992,0.043 -0.273428,0.076 l -0.8261,0.634 c 0.100349,-0.03 0.202057,-0.069 0.302516,-0.1 0.336223,-0.093 0.683095,-0.128 1.029715,-0.157 0.365214,-0.035 0.731576,-0.018 1.09371,0.035 0.382973,0.065 0.747019,0.21 1.105345,0.3548 0.421077,0.1766 0.832111,0.3649 1.250785,0.5469 0.06482,0.029 0.132344,0.054 0.197798,0.082 -0.03915,0.071 -0.07593,0.1444 -0.11635,0.2152 -0.189636,0.3422 -0.427575,0.6534 -0.669024,0.9599 -0.247186,0.3146 -0.533073,0.5958 -0.8261,0.867 -0.303308,0.2823 -0.641794,0.5092 -0.988992,0.733 -0.35263,0.2212 -0.725285,0.4126 -1.105345,0.5817 -0.41448,0.1931 -0.854367,0.3233 -1.297326,0.4304 -0.516996,0.1203 -1.037619,0.1986 -1.564935,0.256 -0.541278,0.056 -1.08745,0.058 -1.62893,0.013 -0.48222,-0.041 -0.948254,-0.1641 -1.402044,-0.3258 -0.314238,-0.2567 -0.578783,-0.5669 -0.814463,-0.896 -0.232443,-0.3276 -0.38064,-0.6993 -0.494497,-1.082 -0.113336,-0.3969 -0.13034,-0.8116 -0.122171,-1.2217 0.01087,-0.4532 0.09344,-0.8942 0.203616,-1.3321 0.03341,-0.1309 0.0694,-0.2616 0.110529,-0.3899 0.338129,-0.088 0.673686,-0.172 1.018082,-0.2327 0.289591,-0.052 0.583274,-0.1035 0.878458,-0.1 0.225788,0 0.448799,0.029 0.663207,0.1048 0.17641,0.072 0.343066,0.1641 0.482861,0.2967 0.120658,0.1087 0.237468,0.2256 0.319969,0.3664 0.03764,0.065 0.0751,0.1307 0.09308,0.2036 l 0.913365,-0.506 c -0.03953,-0.074 -0.08753,-0.1404 -0.133805,-0.2094 -0.09435,-0.1447 -0.210508,-0.268 -0.337421,-0.384 -0.147874,-0.1389 -0.321463,-0.2393 -0.506132,-0.32 -0.222207,-0.088 -0.455371,-0.1177 -0.692295,-0.1281 -0.302858,-0.013 -0.604266,0.036 -0.901728,0.087 -0.392271,0.069 -0.779342,0.1694 -1.163522,0.2734 -0.16382,0.047 -0.32557,0.097 -0.488679,0.1455 0.07222,-0.1927 0.146617,-0.3805 0.226887,-0.5701 0.19307,-0.4348 0.411823,-0.8602 0.645755,-1.2741 0.214187,-0.3762 0.450715,-0.7386 0.698112,-1.0937 0.250031,-0.3506 0.528599,-0.6839 0.8261,-0.9948 0.287341,-0.2985 0.600008,-0.5642 0.924998,-0.8203 0.293035,-0.2295 0.597316,-0.4415 0.919183,-0.6283 0.300061,-0.1724 0.625198,-0.3027 0.948269,-0.4246 0.3101,-0.1152 0.625827,-0.206 0.948269,-0.2793 0.287521,-0.067 0.584068,-0.096 0.878459,-0.11 0.262377,-0.013 0.525988,0 0.785376,0.047 0.149134,0.022 0.296736,0.054 0.442139,0.093 l -1.26242,-0.9657 c -0.149006,-0.032 -0.302121,-0.06 -0.453774,-0.076 -0.26542,-0.027 -0.530558,-0.035 -0.797012,-0.018 -0.299179,0.025 -0.598802,0.058 -0.890093,0.1337 -0.325876,0.08 -0.646399,0.1763 -0.959904,0.2968 -0.248545,0.097 -0.496069,0.2028 -0.733019,0.3258 -0.0022,-0.019 -0.0035,-0.039 -0.0058,-0.058 -0.02617,-0.2462 -0.04429,-0.4971 -0.04654,-0.7447 -0.0041,-0.2683 4.7e-5,-0.5364 0.03491,-0.8029 0.03155,-0.2619 0.08045,-0.5224 0.139622,-0.7795 0.0598,-0.2424 0.13397,-0.4776 0.226887,-0.7098 0.08062,-0.202 0.168553,-0.3998 0.279245,-0.5875 0.09959,-0.172 0.198151,-0.3486 0.302516,-0.5178 0.0748,-0.1203 0.15277,-0.2375 0.232704,-0.3549 l -1.390408,-0.8028 c -0.07,0.1216 -0.142308,0.241 -0.215251,0.3607 -0.102574,0.1719 -0.202771,0.3442 -0.302516,0.5178 -0.115457,0.1939 -0.207285,0.4017 -0.29088,0.6109 -0.09413,0.2389 -0.169397,0.4841 -0.232704,0.7329 -0.06222,0.2627 -0.109365,0.5297 -0.14544,0.797 -0.03579,0.2727 -0.04758,0.5456 -0.04654,0.8204 6.8e-5,0.2512 0.01352,0.5002 0.0349,0.7504 0.02032,0.1939 0.04102,0.3881 0.06399,0.5817 l 0.907547,0.4538 c -0.241719,0.1564 -0.478129,0.3214 -0.703931,0.5003 -0.327703,0.2635 -0.640139,0.5391 -0.930817,0.8436 -0.300681,0.3186 -0.589395,0.6551 -0.843552,1.0123 -0.249619,0.3595 -0.483629,0.7294 -0.698113,1.1111 -0.235393,0.4198 -0.456087,0.8457 -0.6515722,1.2858 -0.1921591,0.4513 -0.370016,0.909 -0.4944955,1.3845 -0.03874,0.1505 -0.072785,0.3021 -0.1047214,0.4538 -0.1395307,0.03 -0.2828564,0.057 -0.4246856,0.075 -0.3346984,0.045 -0.6613073,-0.013 -0.9831743,-0.098 -0.1423039,-0.044 -0.2816082,-0.094 -0.4188671,-0.1512 l -0.8144649,0.5409 c 0.1413519,0.058 0.2845716,0.1177 0.4305025,0.163 0.3315435,0.1 0.6704842,0.1578 1.0180801,0.1164 0.3818955,-0.048 0.7565383,-0.1329 1.122798,-0.2501 -0.024964,0.1701 -0.046165,0.339 -0.052361,0.5119 -0.016789,0.4225 -0.00556,0.8501 0.098901,1.2624 0.1065194,0.3968 0.2486021,0.7839 0.4770437,1.1287 0.2447992,0.3651 0.5260707,0.7075 0.8610047,0.9948 0.769644,0.6037 1.636352,1.094 2.542294,1.4602 0.488368,0.1642 0.985031,0.2848 1.500942,0.3199 0.547626,0.035 1.100479,0.027 1.646382,-0.035 0.53229,-0.065 1.060466,-0.1493 1.582388,-0.2735 0.450894,-0.1125 0.898557,-0.2503 1.320597,-0.4479 0.384353,-0.1761 0.754831,-0.371 1.111162,-0.5992 0.353198,-0.2302 0.704046,-0.4668 1.012264,-0.7563 0.298769,-0.2768 0.585619,-0.5691 0.837735,-0.89 0.245329,-0.3132 0.486479,-0.6293 0.680659,-0.9774 0.09389,-0.1634 0.182315,-0.3324 0.26761,-0.5003 0.179893,0.041 0.363944,0.078 0.546855,0.1048 0.298338,0.04 0.59597,0.041 0.895911,0.023 0.11904,-0.013 0.237398,-0.027 0.354874,-0.046 l 0.797012,-0.5935 c -0.117372,0.025 -0.235457,0.047 -0.354874,0.058 -0.299756,0.028 -0.601751,0.032 -0.90173,0 -0.352137,-0.045 -0.701449,-0.1112 -1.04135,-0.2152 0.11494,-0.2899 0.225315,-0.5835 0.308333,-0.8842 0.08749,-0.3428 0.170983,-0.6865 0.186164,-1.0414 0.01151,-0.3238 -0.0038,-0.6467 -0.06399,-0.9658 -0.06183,-0.3081 -0.142509,-0.6163 -0.29088,-0.8958 -0.03485,-0.063 -0.07119,-0.1255 -0.11053,-0.1863 l 0.36651,0.2037 c 0.05072,-0.1229 0.02336,-0.061 0.06981,-0.1862 0.07303,-0.1987 0.136046,-0.4026 0.197797,-0.605 0.05663,-0.2017 0.110193,-0.4054 0.151259,-0.6109 0.03917,-0.2003 0.08516,-0.3974 0.11635,-0.5992 0.02917,-0.1614 0.05112,-0.3264 0.07563,-0.4887 0.0017,-0.013 0.004,-0.023 0.0058,-0.035 0.03887,0 0.07724,0.018 0.11635,0.023 0.237534,0.027 0.476532,0.044 0.715566,0.03 0.259232,-0.021 0.517245,-0.066 0.762105,-0.1571 0.262113,-0.1 0.514936,-0.2115 0.756289,-0.3549 0.259958,-0.1588 0.511761,-0.3323 0.744654,-0.5294 0.270164,-0.2303 0.533269,-0.4719 0.767923,-0.7389 0.232999,-0.2672 0.456554,-0.5427 0.645755,-0.8435 0.178781,-0.2873 0.329831,-0.5901 0.447955,-0.9075 0.116596,-0.3107 0.220703,-0.6281 0.285063,-0.9541 0.05884,-0.3143 0.09265,-0.6283 0.0989,-0.9482 1.3e-5,-0.2948 -0.0094,-0.593 -0.05818,-0.8844 -0.05192,-0.2941 -0.113712,-0.5871 -0.221069,-0.8668 -0.109559,-0.2724 -0.241055,-0.5326 -0.418869,-0.7679 -0.180181,-0.2297 -0.389937,-0.4428 -0.634118,-0.605 -0.699137,-0.407 -1.394036,-0.9211 -2.193237,-1.1345 -0.06795,-0.014 -0.13517,-0.028 -0.203616,-0.04 -0.03602,-0.043 -0.06942,-0.087 -0.104722,-0.1281 -0.295121,-0.3286 -0.62354,-0.619 -0.954087,-0.9017 -0.979905,-0.7543 -2.024435,-1.4011 -3.071696,-2.0304 -0.587304,-0.3395 -1.184398,-0.6647 -1.786005,-0.9715 -0.557944,-0.2838 -1.122538,-0.5347 -1.692922,-0.7853 -0.512461,-0.2253 -1.038027,-0.4153 -1.564936,-0.5934 -0.46233,-0.1575 -0.932196,-0.2887 -1.40786,-0.3839 -0.350136,-0.08 -0.704329,-0.093 -1.058804,-0.082 z m 7.975936,3.4325 c -0.09533,-0.062 0.195918,0.1177 0.29088,0.1803 0.01151,0.013 0.08436,0.06 0.133806,0.093 -0.161514,-0.1048 -0.206851,-0.1314 -0.424686,-0.2734 z m -5.648894,6.0037 -0.634119,0.3723 c 0.03173,0.045 0.0676,0.088 0.104721,0.128 0.06593,0.071 0.136786,0.1343 0.209434,0.1979 0.09216,0.078 0.187466,0.1555 0.285063,0.2269 0.111926,0.08 0.230792,0.1559 0.349056,0.2269 0.128432,0.08 0.260012,0.1485 0.395597,0.2152 0.140206,0.07 0.285741,0.1268 0.430503,0.1862 0.146498,0.06 0.296532,0.1112 0.447956,0.157 0.148439,0.044 0.296392,0.079 0.447956,0.11 0.136238,0.027 0.275424,0.052 0.413049,0.07 0.143009,0.018 0.286801,0.03 0.430502,0.04 0.140965,0.013 0.283263,0.019 0.424685,0.023 0.13606,0 0.272132,-0.013 0.407232,-0.023 0.1445,-0.017 0.28817,-0.045 0.430504,-0.075 0.150515,-0.032 0.295441,-0.075 0.442137,-0.1216 0.137799,-0.045 0.274985,-0.097 0.407233,-0.157 0.331585,-0.1607 0.650986,-0.3463 0.959904,-0.5469 0.08934,-0.067 0.184728,-0.1303 0.273428,-0.1978 0.06295,-0.053 0.123141,-0.1048 0.180346,-0.1629 l -0.674843,0.2793 c -0.05898,0.054 -0.121213,0.11 -0.186163,0.157 -0.02967,0.022 -0.05751,0.043 -0.08726,0.065 -0.0985,0.044 -0.195126,0.085 -0.296698,0.1216 -0.144792,0.049 -0.292882,0.093 -0.442138,0.1281 -0.140651,0.031 -0.282107,0.056 -0.424685,0.076 -0.132904,0.017 -0.267288,0.034 -0.401415,0.035 -0.140967,0 -0.284184,-0.013 -0.424685,-0.023 -0.14261,-0.013 -0.282687,-0.018 -0.424684,-0.035 -0.136907,-0.017 -0.277201,-0.04 -0.413051,-0.063 -0.150891,-0.028 -0.294583,-0.062 -0.442137,-0.1048 -0.149884,-0.044 -0.302652,-0.093 -0.447956,-0.1512 -0.143825,-0.058 -0.285376,-0.1177 -0.424685,-0.1862 -0.133981,-0.066 -0.269289,-0.1296 -0.395598,-0.2095 -0.116932,-0.069 -0.227368,-0.1416 -0.33742,-0.221 -0.09609,-0.07 -0.194157,-0.1446 -0.285063,-0.2211 -0.07029,-0.062 -0.140776,-0.1228 -0.203617,-0.1919 -0.0342,-0.037 -0.06655,-0.079 -0.09308,-0.1216 z m -1.297325,8.232 c -0.252149,0 -0.453121,0.3266 -0.447956,0.7213 0.0052,0.3947 0.213259,0.713 0.465409,0.7098 0.252149,0 0.453119,-0.3268 0.447956,-0.7214 -0.0052,-0.3948 -0.21326,-0.7131 -0.465409,-0.7097 z m 3.461474,0.1512 c -0.21839,-0.013 -0.461543,0.2151 -0.575942,0.541 -0.130743,0.3724 -0.04596,0.7426 0.191981,0.8261 0.237933,0.084 0.538281,-0.1511 0.669024,-0.5235 0.130743,-0.3725 0.04014,-0.7426 -0.197799,-0.8262 -0.02974,-0.013 -0.05606,-0.017 -0.08726,-0.018 z m -5.29402,3.5661 c 0.01087,0.1281 0.02361,0.262 0.05818,0.3841 0.04913,0.1869 0.121938,0.3562 0.209434,0.5176 0.08149,0.1618 0.173857,0.3111 0.279244,0.4481 0.395533,0.5067 0.882255,0.7978 1.38459,1.146 0.144783,0.1 0.297845,0.1758 0.459591,0.2153 0.184049,0.041 0.366596,0.056 0.552672,0.023 0.205288,-0.036 0.409423,-0.089 0.605031,-0.1804 0.196367,-0.087 0.391227,-0.1781 0.581761,-0.285 0.174172,-0.1022 0.34231,-0.2202 0.500314,-0.3608 0.125223,-0.1125 0.250417,-0.2269 0.366509,-0.3548 0.108744,-0.1229 0.218351,-0.2454 0.319968,-0.3782 0.06633,-0.085 0.131614,-0.1745 0.191981,-0.2675 l -1.058804,-0.8204 c -0.0529,0.093 -0.118148,0.174 -0.180345,0.256 -0.09922,0.1296 -0.200239,0.2497 -0.308333,0.3665 -0.11375,0.1229 -0.232235,0.236 -0.354875,0.3433 -0.152659,0.1346 -0.31962,0.2429 -0.488678,0.3373 -0.188593,0.1035 -0.381561,0.1969 -0.575944,0.2793 -0.190844,0.085 -0.387185,0.1267 -0.587578,0.1513 -0.135726,0.014 -0.274488,0 -0.407232,-0.035 -0.05589,-0.08 -0.107619,-0.1632 -0.157076,-0.2502 -0.08492,-0.1534 -0.16171,-0.3161 -0.221068,-0.4887 -0.03681,-0.1099 -0.05588,-0.2254 -0.06981,-0.3432 l -1.099527,-0.704 z m 1.913992,2.1933 c 0.372828,0.2884 0.216941,0.1925 0,0 z"
       style="fill:#ffffff;fill-opacity:1;stroke:none"
       inkscape:connector-curvature="0"
       inkscape:export-filename="/home/michael/Public/debian/salor-hospitality/salor-hospitality/public/apple-touch-icon-57x57-billgastro.png"
       inkscape:export-xdpi="26.96895"
       inkscape:export-ydpi="26.96895" />
    <path
       style="fill:#000000;fill-opacity:1;stroke:none"
       d="m 14.299586,1020.5427 c -0.118161,0 -0.236718,0.013 -0.354873,0.017 -0.525432,0.048 -1.044763,0.1535 -1.559119,0.2792 -0.481945,0.1151 -0.949173,0.2965 -1.40786,0.4945 -0.411021,0.1781 -0.804772,0.3951 -1.1926095,0.6283 -0.3333222,0.1997 -0.6491743,0.4288 -0.9482693,0.6864 -0.2642482,0.2299 -0.495921,0.4987 -0.7155656,0.7796 -0.1930594,0.2468 -0.3567616,0.5226 -0.4886787,0.8145 -0.122093,0.2746 -0.1998356,0.5678 -0.2559746,0.8668 -0.058647,0.3132 -0.05227,0.6272 -0.017436,0.9425 0.041961,0.3307 0.1483299,0.644 0.2676083,0.9482 0.126271,0.3173 0.3039908,0.606 0.4944968,0.8786 0.1966217,0.2796 0.4281677,0.514 0.6690244,0.7446 0.2346827,0.2316 0.4949676,0.4297 0.7621068,0.6108 0.7644187,0.5712 1.5132707,1.036 2.3619477,1.3672 0.295999,0.1113 0.596535,0.2105 0.901728,0.285 l -1.361319,-1.1519 c -0.299314,-0.085 -0.593718,-0.1848 -0.884276,-0.3025 -0.05434,-0.023 -0.118601,-0.053 -0.180346,-0.082 -0.004,0 -0.0076,-0.013 -0.01164,-0.013 -0.242705,-0.2206 -0.4850041,-0.4467 -0.6864777,-0.7156 -0.1967148,-0.2547 -0.3785259,-0.5292 -0.51195,-0.8319 -0.1252103,-0.2856 -0.2314024,-0.5824 -0.2850618,-0.896 -0.043177,-0.2941 -0.061596,-0.589 -0.011641,-0.8842 0.050084,-0.2838 0.1230373,-0.5598 0.2385219,-0.8202 0.1238393,-0.2784 0.2760125,-0.5394 0.4595906,-0.7738 0.2125782,-0.2713 0.4416975,-0.5299 0.6981125,-0.7504 0.293435,-0.2492 0.599613,-0.4749 0.924999,-0.669 0.382324,-0.2277 0.775892,-0.438 1.180973,-0.611 0.453004,-0.1919 0.914833,-0.3621 1.390409,-0.4712 0.508531,-0.1203 1.021861,-0.223 1.541665,-0.256 0.467572,-0.019 0.930846,-0.013 1.390407,0.1048 0.469663,0.1035 0.932963,0.238 1.390408,0.3957 0.522831,0.18 1.045019,0.3725 1.553301,0.5991 0.567907,0.2502 1.132712,0.5054 1.687104,0.7913 0.574007,0.2972 1.144546,0.6077 1.704558,0.9366 0.0084,0 0.03661,0.026 0.04072,0.03 0.07634,0.056 0.151499,0.1177 0.226886,0.1745 0.325377,0.2731 0.646795,0.5539 0.942453,0.8669 0.124861,0.138 0.235358,0.2874 0.354873,0.4305 l 0.756289,0.3781 c -0.06197,0 -0.124021,0 -0.186164,0.013 -0.318703,0.036 -0.634279,0.1035 -0.924998,0.2444 -0.294178,0.1476 -0.575506,0.3161 -0.831918,0.5236 -0.258897,0.2156 -0.50615,0.4488 -0.733019,0.6981 -0.191431,0.2113 -0.374217,0.4273 -0.535219,0.6632 -0.08859,0.1267 -0.178457,0.2518 -0.238521,0.3956 l 1.402041,0.7738 c 0.04165,-0.1349 0.126245,-0.2502 0.203617,-0.3666 0.153125,-0.2323 0.332426,-0.4448 0.517767,-0.6515 0.220904,-0.2446 0.465779,-0.4672 0.721382,-0.6748 0.251263,-0.1961 0.526193,-0.36 0.814465,-0.4945 0.282826,-0.1255 0.584086,-0.1749 0.890095,-0.1979 0.296092,-0.013 0.587379,0.036 0.87264,0.1112 0.05979,0.058 0.124253,0.1177 0.180345,0.1803 0.184416,0.2181 0.320466,0.4677 0.436321,0.7274 0.114642,0.2674 0.183614,0.5468 0.238522,0.8318 0.05098,0.2828 0.07132,0.5742 0.07563,0.861 9.3e-4,0.3116 -0.03574,0.6182 -0.08726,0.9251 -0.05835,0.3176 -0.160675,0.6287 -0.273428,0.9308 -0.1119,0.309 -0.258037,0.5992 -0.430502,0.8784 -0.184436,0.2936 -0.406136,0.5601 -0.63412,0.8203 -0.229498,0.2615 -0.483044,0.4994 -0.75047,0.7214 -0.230104,0.1894 -0.48235,0.3494 -0.738836,0.5003 -0.237143,0.1335 -0.48728,0.2436 -0.744654,0.3315 -0.238684,0.082 -0.483062,0.1048 -0.733017,0.1164 -0.231802,0 -0.463598,-0.014 -0.692296,-0.053 l -0.215251,-0.1164 c -0.0047,0.023 -0.0072,0.047 -0.01164,0.07 -0.0877,-0.019 -0.175181,-0.04 -0.261792,-0.063 -0.03221,-0.044 -0.06307,-0.088 -0.09308,-0.1338 l -1.460219,-0.6342 c 0.08273,0.1216 0.156609,0.2511 0.255975,0.3608 0.400875,0.4395 0.947567,0.7128 1.483489,0.9715 -0.01125,0.083 -0.02207,0.1675 -0.03491,0.2502 -0.03081,0.2003 -0.07493,0.395 -0.11635,0.5934 -0.04019,0.2018 -0.09025,0.401 -0.145439,0.5992 -0.04853,0.1639 -0.09575,0.3271 -0.151258,0.4887 -0.536838,-0.3657 -1.121233,-0.6636 -1.716194,-0.9192 -0.299739,-0.1061 -0.609487,-0.1891 -0.924998,-0.2327 -0.266733,-0.035 -0.533515,-0.058 -0.80283,-0.058 -0.146197,0 -0.290154,0 -0.436321,0 l 1.297327,0.9424 c 0.142014,0 0.282639,0 0.424684,0 0.263619,0 0.525044,0.032 0.785377,0.07 0.194291,0.034 0.383407,0.085 0.570125,0.1454 0.145474,0.1408 0.273484,0.2996 0.383963,0.4712 0.157586,0.261 0.247024,0.5544 0.31415,0.8494 0.06605,0.3071 0.08635,0.6177 0.08145,0.9308 -0.0075,0.3448 -0.08498,0.6795 -0.168711,1.0123 -0.09357,0.3495 -0.225765,0.6886 -0.360691,1.0238 -0.0094,0.023 -0.01936,0.047 -0.02909,0.07 -0.337324,-0.1459 -0.670444,-0.2989 -1.006445,-0.448 -0.358011,-0.1522 -0.714299,-0.3077 -1.099527,-0.378 -0.368156,-0.061 -0.744408,-0.08 -1.11698,-0.047 -0.336064,0.026 -0.66876,0.049 -1.000627,0.1099 -0.09008,0.022 -0.186993,0.043 -0.273428,0.076 l -0.8261,0.634 c 0.100349,-0.03 0.202057,-0.068 0.302516,-0.1 0.336224,-0.093 0.683094,-0.128 1.029716,-0.157 0.365213,-0.035 0.731575,-0.018 1.09371,0.035 0.382972,0.065 0.747016,0.2101 1.105343,0.355 0.421078,0.1764 0.832112,0.3647 1.250786,0.5467 0.06482,0.028 0.132344,0.054 0.197798,0.082 -0.03915,0.071 -0.07593,0.1444 -0.11635,0.2152 -0.189636,0.3422 -0.427576,0.6534 -0.669024,0.9599 -0.247186,0.3146 -0.533073,0.5958 -0.8261,0.8669 -0.303308,0.2824 -0.641793,0.5093 -0.988992,0.7331 -0.35263,0.2212 -0.725285,0.4127 -1.105345,0.5817 -0.41448,0.1931 -0.854367,0.3233 -1.297326,0.4306 -0.516995,0.1203 -1.037618,0.1984 -1.564935,0.2558 -0.541277,0.056 -1.087449,0.058 -1.62893,0.013 -0.48222,-0.041 -0.948256,-0.164 -1.402043,-0.3257 -0.314238,-0.2567 -0.578784,-0.5669 -0.814464,-0.896 -0.232443,-0.3276 -0.38064,-0.6994 -0.494497,-1.082 -0.113336,-0.3969 -0.13034,-0.8116 -0.122171,-1.2217 0.01087,-0.4532 0.09344,-0.8942 0.203616,-1.3321 0.03341,-0.1309 0.0694,-0.2616 0.110529,-0.3899 0.338129,-0.088 0.673686,-0.172 1.018081,-0.2327 0.289593,-0.052 0.583276,-0.1035 0.87846,-0.1 0.225787,0 0.448798,0.028 0.663206,0.1048 0.17641,0.072 0.343066,0.1641 0.482862,0.2967 0.120657,0.1086 0.237467,0.2256 0.319968,0.3664 0.03764,0.065 0.0751,0.1307 0.09308,0.2038 l 0.913364,-0.5062 c -0.03953,-0.074 -0.08753,-0.1404 -0.133806,-0.2094 -0.09433,-0.1447 -0.210507,-0.268 -0.33742,-0.384 -0.147873,-0.139 -0.321463,-0.2393 -0.506132,-0.3199 -0.222207,-0.088 -0.455371,-0.1177 -0.692295,-0.1281 -0.302858,-0.013 -0.604266,0.036 -0.901728,0.088 -0.392271,0.069 -0.779342,0.1693 -1.163522,0.2733 -0.16382,0.047 -0.32557,0.097 -0.488679,0.1455 0.07222,-0.1927 0.146617,-0.3805 0.226887,-0.5702 0.19307,-0.4346 0.411823,-0.86 0.645753,-1.2739 0.214189,-0.3763 0.450718,-0.7387 0.698113,-1.0938 0.250032,-0.3505 0.5286,-0.6839 0.8261,-0.9948 0.287343,-0.2984 0.600009,-0.5641 0.925,-0.8202 0.293035,-0.2296 0.597315,-0.4416 0.919182,-0.6284 0.300061,-0.1724 0.625198,-0.3027 0.948269,-0.4247 0.3101,-0.1164 0.625827,-0.2058 0.94827,-0.2792 0.287519,-0.067 0.584067,-0.096 0.878458,-0.11 0.262377,-0.013 0.525988,0 0.785376,0.047 0.149134,0.022 0.296736,0.054 0.442139,0.093 l -1.26242,-0.9657 c -0.149006,-0.032 -0.302121,-0.06 -0.453774,-0.076 -0.26542,-0.026 -0.530558,-0.035 -0.797012,-0.018 -0.299179,0.025 -0.598802,0.058 -0.890093,0.1337 -0.325875,0.08 -0.646398,0.1763 -0.959905,0.2967 -0.248544,0.097 -0.496068,0.2029 -0.733018,0.3259 -0.0022,-0.019 -0.0035,-0.039 -0.0058,-0.058 -0.02617,-0.2462 -0.04429,-0.4971 -0.04654,-0.7447 -0.0041,-0.2683 4.7e-5,-0.5363 0.03491,-0.8029 0.03155,-0.2618 0.08045,-0.5224 0.139622,-0.7794 0.0598,-0.2426 0.133969,-0.4777 0.226887,-0.7098 0.08062,-0.2021 0.168553,-0.3999 0.279245,-0.5876 0.09959,-0.1719 0.198151,-0.3486 0.302515,-0.5178 0.0748,-0.1203 0.15277,-0.2375 0.232705,-0.3548 l -1.390408,-0.8029 c -0.07,0.1216 -0.142309,0.241 -0.21525,0.3607 -0.102575,0.172 -0.202771,0.3443 -0.302517,0.5177 -0.115457,0.1939 -0.207285,0.4018 -0.29088,0.611 -0.09413,0.239 -0.169397,0.4843 -0.232703,0.733 -0.06222,0.2626 -0.109365,0.5295 -0.145441,0.7969 -0.03579,0.2728 -0.04757,0.5456 -0.04654,0.8203 7e-5,0.2512 0.01352,0.5002 0.03491,0.7505 0.02032,0.1941 0.04102,0.3881 0.06399,0.5818 l 0.907546,0.4538 c -0.241718,0.1563 -0.478129,0.3213 -0.703929,0.5003 -0.327704,0.2634 -0.64014,0.539 -0.930818,0.8435 -0.300681,0.3187 -0.589395,0.655 -0.843552,1.0123 -0.24962,0.3596 -0.483629,0.7294 -0.698113,1.1111 -0.235393,0.4199 -0.4560874,0.8457 -0.6515721,1.2858 -0.1921591,0.4513 -0.370016,0.909 -0.4944968,1.3845 -0.03874,0.1504 -0.072785,0.302 -0.1047214,0.4538 -0.139532,0.03 -0.2828564,0.057 -0.4246856,0.076 -0.3346985,0.045 -0.6613074,-0.013 -0.9831743,-0.1 -0.1423039,-0.044 -0.2816082,-0.094 -0.4188684,-0.1512 l -0.8144636,0.541 c 0.1413519,0.058 0.2845703,0.1178 0.4305024,0.1629 0.3315436,0.1 0.670483,0.1579 1.0180802,0.1164 0.3818955,-0.048 0.7565383,-0.133 1.122798,-0.2501 -0.024964,0.17 -0.046165,0.339 -0.052361,0.5119 -0.016789,0.4226 -0.00556,0.8501 0.098901,1.2625 0.1065193,0.3967 0.2486021,0.7838 0.4770424,1.1285 0.2447992,0.3653 0.5260722,0.7076 0.8610062,0.9949 0.769644,0.6036 1.636352,1.094 2.542293,1.4602 0.488369,0.1641 0.985032,0.285 1.500943,0.3199 0.547626,0.035 1.100479,0.027 1.646382,-0.035 0.53229,-0.065 1.060464,-0.1493 1.582388,-0.2734 0.450893,-0.1125 0.898557,-0.2504 1.320597,-0.448 0.384353,-0.1761 0.754831,-0.371 1.111162,-0.5992 0.353198,-0.2302 0.704045,-0.4668 1.012263,-0.7563 0.298769,-0.2768 0.585619,-0.5691 0.837735,-0.89 0.24533,-0.3132 0.48648,-0.6293 0.68066,-0.9774 0.09389,-0.1634 0.182315,-0.3324 0.26761,-0.5003 0.179892,0.041 0.363943,0.078 0.546855,0.1047 0.298338,0.04 0.59597,0.041 0.895911,0.023 0.11904,-0.013 0.237396,-0.027 0.354873,-0.046 l 0.797012,-0.5935 c -0.117372,0.025 -0.235458,0.047 -0.354873,0.058 -0.299758,0.028 -0.601751,0.032 -0.90173,0 -0.352137,-0.045 -0.701449,-0.1112 -1.04135,-0.2152 0.11494,-0.2899 0.225315,-0.5834 0.308333,-0.8843 0.08749,-0.3426 0.170983,-0.6864 0.186162,-1.0413 0.01151,-0.3238 -0.0036,-0.6465 -0.06399,-0.9658 -0.06183,-0.3081 -0.142508,-0.6163 -0.29088,-0.8958 -0.03485,-0.063 -0.07119,-0.1255 -0.110529,-0.1862 l 0.366508,0.2036 c 0.05072,-0.1229 0.02336,-0.061 0.06981,-0.1861 0.07303,-0.1987 0.136047,-0.4027 0.197799,-0.6051 0.05663,-0.2017 0.110193,-0.4053 0.151257,-0.6108 0.03917,-0.2002 0.08516,-0.3975 0.11635,-0.5993 0.02917,-0.1614 0.05112,-0.3265 0.07563,-0.4887 0.0017,-0.013 0.004,-0.023 0.0058,-0.035 0.03887,0.013 0.07724,0.018 0.11635,0.023 0.237534,0.027 0.476532,0.044 0.715566,0.03 0.259232,-0.021 0.517246,-0.066 0.762105,-0.157 0.262113,-0.1 0.514936,-0.2115 0.756289,-0.3549 0.259957,-0.1589 0.511761,-0.3323 0.744654,-0.5293 0.270163,-0.2304 0.533268,-0.472 0.767924,-0.7389 0.232998,-0.2672 0.456552,-0.5428 0.645754,-0.8436 0.178782,-0.2871 0.329831,-0.5899 0.447955,-0.9075 0.116596,-0.3106 0.220702,-0.6281 0.285062,-0.9541 0.05884,-0.3143 0.09265,-0.6284 0.0989,-0.9482 1.3e-5,-0.2948 -0.0094,-0.593 -0.05818,-0.8843 -0.05192,-0.2942 -0.113712,-0.5872 -0.22107,-0.8669 -0.10956,-0.2724 -0.241054,-0.5326 -0.418868,-0.7679 -0.180181,-0.2297 -0.389937,-0.4428 -0.634118,-0.605 -0.699137,-0.4071 -1.394036,-0.921 -2.193238,-1.1345 -0.06795,-0.014 -0.135169,-0.029 -0.203616,-0.04 -0.03604,-0.043 -0.06942,-0.087 -0.104721,-0.1281 -0.29512,-0.3286 -0.623538,-0.619 -0.954086,-0.9017 -0.979904,-0.7543 -2.024434,-1.4011 -3.071696,-2.0302 -0.587304,-0.3397 -1.1844,-0.6649 -1.786004,-0.9716 -0.557944,-0.2839 -1.122538,-0.5347 -1.692923,-0.7854 -0.512461,-0.2253 -1.038027,-0.4153 -1.564936,-0.5934 -0.462331,-0.1575 -0.932196,-0.2886 -1.40786,-0.384 -0.350136,-0.08 -0.704329,-0.093 -1.058805,-0.081 z m 7.975936,3.4325 c -0.09533,-0.062 0.195918,0.1177 0.29088,0.1803 0.01151,0.013 0.08436,0.059 0.133804,0.093 -0.161513,-0.1048 -0.206849,-0.1313 -0.424684,-0.2734 z m -5.648894,6.0037 -0.634119,0.3724 c 0.03173,0.045 0.0676,0.088 0.104721,0.1281 0.06593,0.071 0.136785,0.1342 0.209434,0.1977 0.09216,0.079 0.187466,0.1555 0.285062,0.2269 0.111926,0.08 0.230793,0.1559 0.349056,0.2269 0.128431,0.08 0.260013,0.1485 0.395597,0.2152 0.140206,0.07 0.285741,0.1268 0.430503,0.1862 0.146497,0.059 0.296532,0.1112 0.447956,0.157 0.14844,0.044 0.296392,0.079 0.447955,0.11 0.13624,0.027 0.275425,0.052 0.413051,0.07 0.143009,0.018 0.286801,0.03 0.430502,0.041 0.140965,0.013 0.283263,0.019 0.424685,0.023 0.13606,0 0.272132,-0.013 0.407232,-0.023 0.1445,-0.017 0.28817,-0.045 0.430502,-0.076 0.150515,-0.032 0.295443,-0.075 0.442139,-0.1216 0.137798,-0.045 0.274983,-0.097 0.407233,-0.157 0.331585,-0.1606 0.650986,-0.3462 0.959904,-0.5469 0.08934,-0.067 0.184728,-0.1302 0.273428,-0.1978 0.06295,-0.052 0.123141,-0.1048 0.180346,-0.1629 l -0.674843,0.2793 c -0.05898,0.054 -0.121213,0.11 -0.186164,0.157 -0.02967,0.022 -0.05751,0.043 -0.08726,0.063 -0.0985,0.044 -0.195125,0.085 -0.296697,0.1229 -0.144792,0.049 -0.292882,0.093 -0.442138,0.1281 -0.140652,0.031 -0.282106,0.056 -0.424685,0.076 -0.132904,0.017 -0.267288,0.034 -0.401415,0.035 -0.140967,0 -0.284184,-0.013 -0.424685,-0.023 -0.14261,-0.013 -0.282687,-0.018 -0.424685,-0.035 -0.136906,-0.017 -0.2772,-0.04 -0.413049,-0.065 -0.150892,-0.028 -0.294584,-0.062 -0.442138,-0.1048 -0.149884,-0.044 -0.302652,-0.093 -0.447956,-0.1512 -0.143825,-0.058 -0.285376,-0.1177 -0.424685,-0.1862 -0.13398,-0.066 -0.269289,-0.1296 -0.395598,-0.2094 -0.116932,-0.069 -0.227368,-0.1417 -0.337421,-0.2211 -0.09609,-0.07 -0.194156,-0.1446 -0.285062,-0.2211 -0.07029,-0.062 -0.140777,-0.1228 -0.203617,-0.1919 -0.0342,-0.038 -0.06655,-0.079 -0.09308,-0.1216 z m -1.297325,8.232 c -0.252149,0 -0.453121,0.3267 -0.447956,0.7213 0.0052,0.3947 0.213259,0.713 0.465408,0.7098 0.252148,0 0.45312,-0.3268 0.447955,-0.7214 -0.0052,-0.3946 -0.213258,-0.7131 -0.465407,-0.7097 z m 3.461474,0.1512 c -0.21839,0 -0.461544,0.2152 -0.575943,0.541 -0.130743,0.3724 -0.04594,0.7426 0.191982,0.8262 0.237933,0.084 0.538281,-0.1512 0.669024,-0.5236 0.130743,-0.3724 0.04014,-0.7426 -0.197799,-0.8262 -0.02974,-0.013 -0.05606,-0.017 -0.08726,-0.018 z m -5.29402,3.5661 c 0.01087,0.1281 0.02361,0.262 0.05818,0.3841 0.04913,0.1869 0.121937,0.3562 0.209433,0.5178 0.08149,0.1616 0.173859,0.3109 0.279245,0.4479 0.395534,0.5067 0.882255,0.7978 1.384592,1.146 0.144782,0.1 0.297844,0.1759 0.45959,0.2153 0.184048,0.041 0.366596,0.056 0.552672,0.023 0.205288,-0.036 0.409424,-0.089 0.605031,-0.1804 0.196367,-0.087 0.391226,-0.1781 0.58176,-0.285 0.174173,-0.1022 0.342311,-0.2201 0.500315,-0.3607 0.125223,-0.1125 0.250417,-0.227 0.366508,-0.3549 0.108744,-0.1229 0.218351,-0.2454 0.319969,-0.3781 0.06633,-0.085 0.131614,-0.1746 0.191981,-0.2676 l -1.058804,-0.8204 c -0.0529,0.093 -0.118147,0.174 -0.180346,0.256 -0.09922,0.1296 -0.200237,0.2497 -0.308334,0.3666 -0.11375,0.1229 -0.232232,0.2359 -0.354873,0.3432 -0.152659,0.1346 -0.31962,0.2429 -0.488678,0.3374 -0.188593,0.1035 -0.381561,0.1968 -0.575943,0.2792 -0.190845,0.085 -0.387186,0.1267 -0.587578,0.1513 -0.135727,0.014 -0.274489,0 -0.407233,-0.035 -0.05589,-0.08 -0.107619,-0.1632 -0.157076,-0.2502 -0.08492,-0.1534 -0.16171,-0.316 -0.221068,-0.4887 -0.03681,-0.1099 -0.05588,-0.2254 -0.06981,-0.3432 l -1.099527,-0.704 z m 1.913992,2.1933 c 0.372827,0.2884 0.216941,0.1926 0,0 z"
       id="path4166"
       inkscape:connector-curvature="0"
       inkscape:export-filename="/home/michael/Public/debian/salor-hospitality/salor-hospitality/public/apple-touch-icon-57x57-billgastro.png"
       inkscape:export-xdpi="26.96895"
       inkscape:export-ydpi="26.96895" />
    <path
       style="fill:url(#linearGradient4229);fill-opacity:1;stroke:none"
       d="m 4.2219121,1018.8909 c -0.7068189,0 -1.2740555,0.5731 -1.2740555,1.2798 l 0,28.9485 c 0,0.7069 0.5672366,1.2799 1.2740555,1.2799 l 26.8249749,0 c 0.706819,0 1.279874,-0.573 1.279874,-1.2799 l 0,-28.9485 c 0,-0.7067 -0.573055,-1.2798 -1.279874,-1.2798 l -26.8249749,0 z m 10.0295509,1.9954 c 0.354476,-0.013 0.708668,0 1.058805,0.082 0.475663,0.096 0.945528,0.2266 1.407859,0.384 0.52691,0.1781 1.052475,0.368 1.564936,0.5933 0.570384,0.2507 1.134979,0.5017 1.692923,0.7855 0.601605,0.3068 1.1987,0.632 1.786004,0.9715 1.047262,0.6293 2.091791,1.276 3.071695,2.0304 0.330549,0.2826 0.658966,0.573 0.954087,0.9017 0.0353,0.041 0.06868,0.085 0.104722,0.1281 0.06845,0.013 0.135673,0.026 0.203615,0.041 0.799202,0.2135 1.494101,0.7274 2.193237,1.1344 0.244182,0.1624 0.453938,0.3754 0.634119,0.6051 0.177815,0.2352 0.309304,0.4956 0.418868,0.768 0.10736,0.2796 0.169151,0.5726 0.221069,0.8668 0.04874,0.2914 0.05819,0.5895 0.05818,0.8842 -0.0062,0.3199 -0.04005,0.6341 -0.0989,0.9483 -0.06436,0.326 -0.168461,0.6435 -0.285062,0.954 -0.118122,0.3176 -0.269173,0.6204 -0.447955,0.9077 -0.189202,0.3007 -0.412756,0.5762 -0.645754,0.8435 -0.234656,0.2669 -0.497761,0.5084 -0.767924,0.7388 -0.232893,0.1971 -0.484697,0.3705 -0.744654,0.5294 -0.241353,0.1435 -0.494176,0.2554 -0.756289,0.3548 -0.244861,0.091 -0.502873,0.1365 -0.762106,0.1572 -0.239033,0.014 -0.478032,0 -0.715565,-0.03 -0.03912,0 -0.07749,-0.017 -0.11635,-0.023 -0.0018,0.013 -0.0041,0.023 -0.0058,0.035 -0.02451,0.1621 -0.04646,0.3271 -0.07563,0.4887 -0.03119,0.2018 -0.07718,0.3989 -0.11635,0.5991 -0.04107,0.2056 -0.09463,0.4093 -0.151257,0.6109 -0.06175,0.2024 -0.124771,0.4063 -0.197799,0.605 -0.04645,0.1255 -0.01909,0.063 -0.06981,0.1861 l -0.366509,-0.2035 c 0.03933,0.061 0.07568,0.1228 0.110529,0.1861 0.148373,0.2795 0.229048,0.5878 0.290881,0.896 0.06033,0.3191 0.07551,0.642 0.06399,0.9657 -0.01517,0.355 -0.09867,0.6986 -0.186163,1.0413 -0.08302,0.3008 -0.193388,0.5945 -0.308334,0.8843 0.339901,0.1035 0.689215,0.1699 1.041352,0.2153 0.299979,0.032 0.601972,0.028 0.90173,0 0.119415,-0.013 0.237498,-0.034 0.354873,-0.058 l -0.797012,0.5933 c -0.117475,0.019 -0.23583,0.039 -0.354873,0.047 -0.299941,0.018 -0.597574,0.017 -0.895911,-0.023 -0.182912,-0.027 -0.366963,-0.063 -0.546855,-0.1048 -0.08529,0.168 -0.173716,0.337 -0.26761,0.5003 -0.19418,0.3482 -0.43533,0.6642 -0.680661,0.9774 -0.252115,0.3209 -0.538965,0.6132 -0.837735,0.8901 -0.308217,0.2894 -0.659064,0.5261 -1.012262,0.7563 -0.356331,0.2281 -0.72681,0.4231 -1.111162,0.5992 -0.42204,0.1977 -0.869704,0.3353 -1.320597,0.448 -0.521924,0.1241 -1.0501,0.2091 -1.582388,0.2734 -0.545903,0.062 -1.098758,0.07 -1.646382,0.035 -0.515911,-0.035 -1.012574,-0.1558 -1.500943,-0.32 -0.905942,-0.3662 -1.772649,-0.8565 -2.542293,-1.4602 -0.334934,-0.2873 -0.616207,-0.6295 -0.8610062,-0.9948 -0.2284404,-0.3447 -0.3705283,-0.7318 -0.4770437,-1.1286 -0.1044498,-0.4124 -0.1156903,-0.8399 -0.098901,-1.2624 0.00621,-0.1729 0.027396,-0.3418 0.052361,-0.512 -0.3662597,0.1177 -0.7409026,0.2016 -1.122798,0.2501 -0.3475972,0.041 -0.6865366,-0.017 -1.0180802,-0.1164 -0.1459321,-0.045 -0.2891506,-0.1047 -0.4305037,-0.1628 l 0.8144649,-0.5411 c 0.1372606,0.057 0.2765645,0.1074 0.4188671,0.1514 0.3218669,0.091 0.6484758,0.1435 0.9831755,0.1 0.1418292,-0.019 0.2851537,-0.047 0.4246856,-0.076 0.031936,-0.1518 0.065981,-0.3034 0.1047214,-0.4539 0.124486,-0.4753 0.3023365,-0.9332 0.4944969,-1.3845 0.1954847,-0.4399 0.4161794,-0.8659 0.6515714,-1.2856 0.214485,-0.3819 0.448493,-0.7517 0.698112,-1.1113 0.254158,-0.3572 0.542871,-0.6935 0.843553,-1.0122 0.290677,-0.3044 0.603113,-0.5802 0.930818,-0.8435 0.225801,-0.1789 0.462211,-0.344 0.70393,-0.5004 l -0.907547,-0.4537 c -0.02297,-0.1938 -0.04367,-0.3878 -0.06399,-0.5818 -0.02139,-0.2502 -0.03483,-0.4993 -0.03491,-0.7505 -0.0011,-0.2748 0.01074,-0.5476 0.04654,-0.8202 0.03608,-0.2675 0.08322,-0.5344 0.145439,-0.7971 0.0633,-0.2487 0.138579,-0.494 0.232705,-0.733 0.0836,-0.2092 0.17542,-0.4169 0.29088,-0.6108 0.09974,-0.1736 0.199947,-0.3459 0.302515,-0.5178 0.07294,-0.119 0.145253,-0.2393 0.215252,-0.3607 l 1.390408,0.8028 c -0.07994,0.1178 -0.157901,0.2342 -0.232705,0.355 -0.104359,0.169 -0.202933,0.3457 -0.302515,0.5176 -0.110697,0.1877 -0.19862,0.3856 -0.279245,0.5877 -0.09292,0.232 -0.167093,0.4672 -0.226887,0.7097 -0.05916,0.257 -0.108072,0.5177 -0.139622,0.7796 -0.03486,0.2665 -0.03903,0.5346 -0.03491,0.8027 0.0022,0.2476 0.02037,0.4986 0.04654,0.7447 0.0023,0.019 0.0036,0.039 0.0058,0.058 0.23695,-0.1229 0.484472,-0.2282 0.733017,-0.3257 0.313507,-0.1203 0.63403,-0.2164 0.959906,-0.2967 0.291291,-0.075 0.590914,-0.11 0.890093,-0.1338 0.266453,-0.017 0.531592,-0.013 0.797012,0.018 0.151652,0.017 0.304768,0.044 0.453773,0.076 l 1.26242,0.9657 c -0.145402,-0.039 -0.293004,-0.071 -0.442138,-0.093 -0.259388,-0.04 -0.523,-0.053 -0.785377,-0.047 -0.294391,0.015 -0.590938,0.044 -0.878458,0.1099 -0.322442,0.074 -0.63817,0.1634 -0.948269,0.2792 -0.323072,0.1216 -0.648208,0.2523 -0.948271,0.4248 -0.321867,0.1867 -0.626147,0.3987 -0.919181,0.6282 -0.32499,0.2561 -0.637658,0.5218 -0.924999,0.8203 -0.2975,0.3109 -0.576069,0.6442 -0.826101,0.9947 -0.247395,0.3551 -0.483923,0.7177 -0.698112,1.0938 -0.233931,0.4139 -0.452683,0.8394 -0.645754,1.2741 -0.08028,0.1895 -0.154669,0.3775 -0.226886,0.5701 0.163109,-0.049 0.324859,-0.1 0.488679,-0.1454 0.38418,-0.1035 0.77125,-0.2045 1.16352,-0.2735 0.297464,-0.052 0.598872,-0.094 0.90173,-0.088 0.236924,0.013 0.470088,0.04 0.692294,0.128 0.184668,0.08 0.358259,0.1811 0.506132,0.32 0.126917,0.1164 0.243081,0.2393 0.337421,0.3839 0.04627,0.069 0.09427,0.1364 0.133806,0.2095 l -0.913365,0.5061 c -0.01798,-0.072 -0.05544,-0.1393 -0.09308,-0.2036 -0.0825,-0.1409 -0.199307,-0.258 -0.319969,-0.3666 -0.139795,-0.1324 -0.30645,-0.224 -0.482861,-0.2966 -0.214408,-0.076 -0.437418,-0.1 -0.663207,-0.1047 -0.295183,0 -0.588867,0.048 -0.878459,0.098 -0.344394,0.061 -0.679951,0.1441 -1.01808,0.2327 -0.04113,0.128 -0.07712,0.2588 -0.110529,0.3897 -0.11018,0.4381 -0.192744,0.8789 -0.203617,1.3323 -0.0081,0.41 0.0088,0.8247 0.12217,1.2217 0.113854,0.3825 0.262055,0.7544 0.494496,1.082 0.235681,0.3289 0.500227,0.6391 0.814465,0.8959 0.453788,0.1618 0.919822,0.2839 1.402043,0.3258 0.541481,0.047 1.087652,0.044 1.628929,-0.013 0.527318,-0.057 1.04794,-0.1361 1.564937,-0.256 0.442959,-0.1074 0.882845,-0.2374 1.297325,-0.4305 0.38006,-0.169 0.752715,-0.3606 1.105345,-0.5818 0.347199,-0.2236 0.685685,-0.4506 0.988993,-0.733 0.293026,-0.271 0.578914,-0.5522 0.8261,-0.8668 0.241447,-0.3065 0.479387,-0.6178 0.669024,-0.9599 0.04042,-0.071 0.0772,-0.1437 0.11635,-0.2152 -0.06545,-0.027 -0.132979,-0.053 -0.197799,-0.082 -0.418675,-0.182 -0.829707,-0.3705 -1.250785,-0.5469 -0.358327,-0.1449 -0.722371,-0.29 -1.105344,-0.3548 -0.362135,-0.053 -0.728497,-0.07 -1.09371,-0.035 -0.346622,0.03 -0.693492,0.063 -1.029717,0.157 -0.100466,0.03 -0.202167,0.068 -0.302515,0.098 l 0.8261,-0.6341 c 0.08643,-0.034 0.183352,-0.054 0.273427,-0.076 0.331868,-0.061 0.664564,-0.085 1.000629,-0.1099 0.372572,-0.034 0.748822,-0.016 1.11698,0.047 0.385227,0.07 0.741515,0.2259 1.099526,0.3781 0.336001,0.149 0.669122,0.3019 1.006446,0.448 0.0097,-0.023 0.01969,-0.047 0.02909,-0.07 0.134925,-0.3353 0.267115,-0.6743 0.360691,-1.0238 0.08373,-0.3328 0.161264,-0.6676 0.16871,-1.0123 0.0049,-0.3131 -0.01539,-0.6237 -0.08145,-0.9308 -0.06713,-0.295 -0.156563,-0.5884 -0.314151,-0.8494 -0.110478,-0.1717 -0.238488,-0.3304 -0.383961,-0.4712 -0.186719,-0.061 -0.375835,-0.1126 -0.570125,-0.1454 -0.260333,-0.038 -0.521759,-0.071 -0.785377,-0.07 -0.142045,0 -0.28267,0 -0.424685,0 l -1.297326,-0.9424 c 0.146166,0 0.290123,0 0.43632,0 0.269315,0 0.536097,0.023 0.80283,0.058 0.315511,0.044 0.625259,0.1267 0.924998,0.2327 0.594962,0.2556 1.179356,0.5535 1.716193,0.9191 0.0555,-0.1615 0.10273,-0.3248 0.151259,-0.4886 0.05519,-0.1982 0.105252,-0.3974 0.145439,-0.5993 0.04142,-0.1983 0.08554,-0.393 0.11635,-0.5933 0.01281,-0.083 0.0237,-0.1673 0.03491,-0.2502 -0.535921,-0.2587 -1.082615,-0.532 -1.48349,-0.9715 -0.09937,-0.11 -0.173243,-0.2391 -0.255973,-0.3608 l 1.460218,0.6342 c 0.03002,0.045 0.06087,0.091 0.09308,0.1337 0.08661,0.023 0.174089,0.044 0.261791,0.065 0.0044,-0.023 0.007,-0.046 0.01164,-0.07 l 0.215252,0.1164 c 0.228698,0.039 0.460493,0.05 0.692294,0.053 0.249956,-0.013 0.494333,-0.035 0.733019,-0.1164 0.257373,-0.088 0.507511,-0.198 0.744654,-0.3315 0.256485,-0.151 0.508731,-0.311 0.738835,-0.5003 0.267425,-0.222 0.520972,-0.4599 0.750471,-0.7214 0.227983,-0.2603 0.449683,-0.5267 0.634119,-0.8204 0.172466,-0.2791 0.318602,-0.5694 0.430502,-0.8784 0.112754,-0.302 0.215084,-0.6131 0.273429,-0.9308 0.05153,-0.3068 0.08819,-0.6135 0.08726,-0.9249 -0.0043,-0.2868 -0.02465,-0.5784 -0.07563,-0.8611 -0.05491,-0.285 -0.123878,-0.5644 -0.238522,-0.8319 -0.115858,-0.2596 -0.251905,-0.5092 -0.43632,-0.7272 -0.05609,-0.062 -0.120567,-0.1216 -0.180346,-0.1804 -0.285262,-0.075 -0.576548,-0.1203 -0.872641,-0.1113 -0.306008,0.023 -0.607268,0.072 -0.890093,0.1979 -0.288273,0.1346 -0.563202,0.2985 -0.814465,0.4945 -0.255604,0.2077 -0.500478,0.4303 -0.721383,0.6749 -0.185341,0.2067 -0.364642,0.4192 -0.517766,0.6515 -0.07736,0.1164 -0.161972,0.2317 -0.203617,0.3664 l -1.402043,-0.7736 c 0.06007,-0.1438 0.149929,-0.2685 0.238522,-0.3957 0.161002,-0.2358 0.343787,-0.4519 0.535219,-0.6632 0.226869,-0.2492 0.474121,-0.4826 0.733019,-0.6981 0.256412,-0.2074 0.53774,-0.376 0.831917,-0.5236 0.290721,-0.1413 0.606295,-0.2074 0.924999,-0.2443 0.06214,0 0.124202,-0.013 0.186164,-0.013 l -0.756289,-0.3781 c -0.119519,-0.1431 -0.230015,-0.2925 -0.354874,-0.4305 -0.295657,-0.313 -0.617075,-0.5938 -0.942451,-0.8669 -0.07539,-0.057 -0.15054,-0.119 -0.226887,-0.1745 -0.0041,0 -0.03227,-0.023 -0.04072,-0.03 -0.560014,-0.329 -1.130552,-0.6394 -1.704558,-0.9367 -0.554394,-0.2858 -1.119198,-0.541 -1.687105,-0.7912 -0.508282,-0.2267 -1.030471,-0.4191 -1.553301,-0.5991 -0.457444,-0.1577 -0.920746,-0.2924 -1.390408,-0.3957 -0.45956,-0.1113 -0.922835,-0.1242 -1.390408,-0.1048 -0.519802,0.032 -1.033133,0.136 -1.541664,0.256 -0.475575,0.1086 -0.937405,0.2793 -1.390408,0.4712 -0.405083,0.1729 -0.798651,0.3833 -1.180975,0.6109 -0.325385,0.1943 -0.631564,0.4199 -0.924998,0.669 -0.2564145,0.2206 -0.4855352,0.4793 -0.6981134,0.7505 -0.1835768,0.2344 -0.3357449,0.4954 -0.4595906,0.7738 -0.1154833,0.2604 -0.18843,0.5364 -0.2385219,0.8202 -0.049955,0.2952 -0.031548,0.5901 0.011641,0.8843 0.053654,0.3135 0.1598527,0.6103 0.2850618,0.8959 0.1334241,0.3027 0.3152339,0.5772 0.51195,0.8319 0.2014723,0.2689 0.4437726,0.495 0.6864776,0.7155 0.004,0 0.0076,0.013 0.01164,0.013 0.06175,0.028 0.126013,0.058 0.180346,0.082 0.290558,0.1177 0.584963,0.2167 0.884276,0.3025 l 1.361319,1.1519 c -0.305193,-0.075 -0.605729,-0.1739 -0.901728,-0.285 -0.848677,-0.3313 -1.597529,-0.796 -2.3619476,-1.3672 -0.2671392,-0.1811 -0.5274241,-0.3791 -0.7621069,-0.6108 -0.2408566,-0.2306 -0.4724026,-0.465 -0.6690243,-0.7447 -0.1905073,-0.2725 -0.3682219,-0.5612 -0.4944968,-0.8784 -0.1192732,-0.3043 -0.2256447,-0.6176 -0.2676096,-0.9482 -0.034821,-0.3154 -0.041198,-0.6295 0.017449,-0.9426 0.056138,-0.2991 0.1338755,-0.5922 0.2559746,-0.8668 0.1319172,-0.2919 0.2956194,-0.5677 0.4886788,-0.8145 0.2196445,-0.281 0.4513173,-0.5497 0.7155642,-0.7795 0.2990963,-0.2578 0.6149485,-0.4868 0.9482706,-0.6866 0.3878378,-0.2332 0.7815878,-0.4501 1.1926078,-0.6282 0.458689,-0.198 0.925915,-0.3794 1.407861,-0.4945 0.514357,-0.1255 1.033687,-0.2317 1.559118,-0.2793 0.118161,-0.013 0.236716,-0.013 0.354875,-0.017 z m 7.975936,3.4324 c 0.217835,0.142 0.263171,0.1692 0.424684,0.2735 -0.04944,-0.034 -0.122313,-0.085 -0.133804,-0.093 -0.09497,-0.063 -0.386213,-0.2425 -0.29088,-0.1803 z m -5.648894,6.0038 c 0.02654,0.044 0.05888,0.084 0.09308,0.1216 0.06284,0.07 0.133323,0.1303 0.203617,0.192 0.09091,0.076 0.188963,0.1514 0.285062,0.2211 0.11005,0.079 0.220488,0.1522 0.337421,0.2211 0.12631,0.08 0.261617,0.1438 0.395597,0.2094 0.13931,0.068 0.280861,0.128 0.424686,0.1861 0.145303,0.058 0.298072,0.1074 0.447956,0.1514 0.147554,0.043 0.291246,0.076 0.442137,0.1047 0.135849,0.025 0.276143,0.047 0.413049,0.065 0.141999,0.017 0.282075,0.025 0.424686,0.035 0.140501,0.013 0.283718,0.021 0.424684,0.023 0.134128,0 0.268512,-0.018 0.401416,-0.035 0.142578,-0.021 0.284032,-0.045 0.424684,-0.076 0.149257,-0.034 0.297346,-0.079 0.442139,-0.1281 0.101565,-0.037 0.1982,-0.078 0.296697,-0.1216 0.02975,-0.022 0.05759,-0.043 0.08726,-0.065 0.06496,-0.048 0.127176,-0.1021 0.186164,-0.1571 l 0.674842,-0.2793 c -0.05721,0.058 -0.117385,0.1113 -0.180345,0.163 -0.0887,0.067 -0.184086,0.131 -0.273429,0.1978 -0.308917,0.2006 -0.628319,0.3862 -0.959904,0.5467 -0.132249,0.059 -0.269435,0.1113 -0.407232,0.1572 -0.146697,0.047 -0.291624,0.089 -0.442139,0.1216 -0.142332,0.03 -0.286002,0.058 -0.430503,0.076 -0.1351,0.014 -0.271172,0.027 -0.407232,0.023 -0.141422,0 -0.283719,-0.013 -0.424684,-0.023 -0.143701,-0.013 -0.287494,-0.022 -0.430503,-0.041 -0.137625,-0.018 -0.27681,-0.043 -0.41305,-0.07 -0.151563,-0.032 -0.299516,-0.066 -0.447956,-0.11 -0.151423,-0.045 -0.301458,-0.097 -0.447956,-0.1571 -0.144761,-0.06 -0.290296,-0.1165 -0.430502,-0.1862 -0.135584,-0.067 -0.267169,-0.1353 -0.395598,-0.2152 -0.118264,-0.071 -0.237124,-0.1462 -0.349056,-0.2269 -0.09759,-0.071 -0.192905,-0.1486 -0.285062,-0.2269 -0.07266,-0.063 -0.143499,-0.1267 -0.209433,-0.1977 -0.03712,-0.04 -0.07299,-0.083 -0.104722,-0.1281 l 0.63412,-0.3723 z m -1.297326,8.2319 c 0.252149,0 0.460252,0.3151 0.465408,0.7097 0.0052,0.3947 -0.195807,0.7182 -0.447956,0.7214 -0.252149,0 -0.460251,-0.3151 -0.465407,-0.7097 -0.0052,-0.3947 0.195807,-0.718 0.447955,-0.7214 z m 3.461475,0.1512 c 0.0312,0 0.05752,0 0.08726,0.017 0.237933,0.084 0.328541,0.4538 0.197798,0.8262 -0.130742,0.3724 -0.431091,0.6072 -0.669024,0.5236 -0.237934,-0.084 -0.322724,-0.4538 -0.191982,-0.8262 0.114397,-0.3258 0.357553,-0.547 0.575943,-0.5409 z m -5.29402,3.5663 1.099527,0.7039 c 0.01392,0.1177 0.033,0.2333 0.06981,0.3432 0.05936,0.1727 0.136154,0.3354 0.221068,0.4887 0.04946,0.087 0.101178,0.1703 0.157076,0.2501 0.132744,0.032 0.271506,0.049 0.407233,0.035 0.200392,-0.025 0.396733,-0.066 0.587578,-0.1512 0.194382,-0.083 0.38735,-0.1765 0.575943,-0.2793 0.169058,-0.094 0.336019,-0.2028 0.488678,-0.3375 0.122637,-0.1073 0.241125,-0.2204 0.354873,-0.3431 0.108098,-0.1165 0.209111,-0.237 0.308334,-0.3666 0.0622,-0.082 0.127435,-0.1633 0.180346,-0.256 l 1.058804,0.8203 c -0.06037,0.093 -0.12565,0.1819 -0.19198,0.2677 -0.101617,0.1328 -0.211224,0.2554 -0.31997,0.378 -0.116091,0.1281 -0.241279,0.2427 -0.366508,0.355 -0.158004,0.1406 -0.326142,0.2584 -0.500315,0.3606 -0.190534,0.1074 -0.385393,0.198 -0.58176,0.2851 -0.195607,0.091 -0.399743,0.1442 -0.605031,0.1804 -0.186076,0.032 -0.368624,0.018 -0.552672,-0.023 -0.161746,-0.039 -0.314808,-0.1152 -0.45959,-0.2154 -0.502337,-0.3482 -0.989058,-0.6393 -1.384592,-1.1461 -0.105381,-0.1369 -0.197749,-0.2861 -0.279245,-0.4479 -0.08749,-0.1614 -0.160306,-0.3309 -0.209433,-0.5178 -0.03458,-0.1216 -0.0473,-0.2557 -0.05818,-0.3839 z"
       id="rect6854"
       inkscape:connector-curvature="0"
       inkscape:export-filename="/home/michael/Public/debian/salor-hospitality/salor-hospitality/public/apple-touch-icon-57x57-billgastro.png"
       inkscape:export-xdpi="26.96895"
       inkscape:export-ydpi="26.96895" />
  </g>
</svg>
