<?xml version="1.0" encoding="UTF-8" standalone="no"?>
<!-- Created with Inkscape (http://www.inkscape.org/) -->

<svg
   xmlns:dc="http://purl.org/dc/elements/1.1/"
   xmlns:cc="http://creativecommons.org/ns#"
   xmlns:rdf="http://www.w3.org/1999/02/22-rdf-syntax-ns#"
   xmlns:svg="http://www.w3.org/2000/svg"
   xmlns="http://www.w3.org/2000/svg"
   xmlns:xlink="http://www.w3.org/1999/xlink"
   xmlns:sodipodi="http://sodipodi.sourceforge.net/DTD/sodipodi-0.dtd"
   xmlns:inkscape="http://www.inkscape.org/namespaces/inkscape"
   width="35.433071"
   height="35.433071"
   id="svg4861"
   version="1.1"
   inkscape:version="0.48.2 r9819"
   sodipodi:docname="logo-silver.svg">
  <defs
     id="defs4863">
    <linearGradient
       inkscape:collect="always"
       xlink:href="#linearGradient6605"
       id="linearGradient6768"
       gradientUnits="userSpaceOnUse"
       gradientTransform="matrix(1.8379875,0,0,1.832855,-159.0482,-549.8816)"
       x1="139.43695"
       y1="857.61609"
       x2="138.71281"
       y2="778.9826" />
    <linearGradient
       id="linearGradient6605">
      <stop
         style="stop-color:#5a6264;stop-opacity:1;"
         offset="0"
         id="stop6607" />
      <stop
         style="stop-color:#131c21;stop-opacity:1;"
         offset="1"
         id="stop6609" />
    </linearGradient>
    <linearGradient
       inkscape:collect="always"
       xlink:href="#linearGradient6521"
       id="linearGradient6770"
       gradientUnits="userSpaceOnUse"
       gradientTransform="matrix(1,0,0,-1.0088113,-174.33192,67.348807)"
       x1="267.88809"
       y1="-806.6095"
       x2="269.09787"
       y2="-939.9317" />
    <linearGradient
       id="linearGradient6521">
      <stop
         style="stop-color:#768185;stop-opacity:1;"
         offset="0"
         id="stop6523" />
      <stop
         style="stop-color:#c5d2d8;stop-opacity:1;"
         offset="1"
         id="stop6525" />
    </linearGradient>
    <linearGradient
       y2="-939.9317"
       x2="269.09787"
       y1="-806.6095"
       x1="267.88809"
       gradientTransform="matrix(1,0,0,-1.0088113,-174.33192,67.348807)"
       gradientUnits="userSpaceOnUse"
       id="linearGradient4859"
       xlink:href="#linearGradient6521"
       inkscape:collect="always" />
  </defs>
  <sodipodi:namedview
     id="base"
     pagecolor="#ffffff"
     bordercolor="#666666"
     borderopacity="1.0"
     inkscape:pageopacity="0.0"
     inkscape:pageshadow="2"
     inkscape:zoom="11.2"
     inkscape:cx="24.330074"
     inkscape:cy="13.761228"
     inkscape:document-units="px"
     inkscape:current-layer="layer1"
     showgrid="false"
     inkscape:window-width="893"
     inkscape:window-height="743"
     inkscape:window-x="470"
     inkscape:window-y="69"
     inkscape:window-maximized="0"
     units="mm" />
  <metadata
     id="metadata4866">
    <rdf:RDF>
      <cc:Work
         rdf:about="">
        <dc:format>image/svg+xml</dc:format>
        <dc:type
           rdf:resource="http://purl.org/dc/dcmitype/StillImage" />
        <dc:title />
      </cc:Work>
    </rdf:RDF>
  </metadata>
  <g
     inkscape:label="Layer 1"
     inkscape:groupmode="layer"
     id="layer1"
     transform="translate(0,-1016.9291)">
    <g
       id="g6761"
       transform="matrix(0.23073855,0,0,-0.23073855,-4.2211251,1253.6327)"
       inkscape:export-filename="/home/michael/projects/salor-graphics/salor logos/gastroedition.png"
       inkscape:export-xdpi="108.38"
       inkscape:export-ydpi="108.38">
      <rect
         ry="11.844782"
         transform="scale(1,-1)"
         y="-1023.3275"
         x="25.47028"
         height="149.07065"
         width="138.85962"
         id="rect5749"
         style="fill:none;stroke:#424f57;stroke-width:3.11853838;stroke-miterlimit:4;stroke-opacity:1;stroke-dasharray:none" />
      <path
         style="fill:url(#linearGradient6768);fill-opacity:1;fill-rule:nonzero;stroke:none"
         d="m 96.601383,1023.4937 c -1.34908,0 -2.56456,-0.4949 -3.35433,-1.3747 -0.72876,-0.8082 -1.05482,-1.8768 -0.919,-3.1158 0.12403,-1.1345 0.28011,-2.4945 0.4595,-3.849 0.44442,-3.3651 0.94857,-7.139 0.6433,-8.2478 -0.17002,-0.6141 -0.39573,-1.0649 -0.59735,-1.4205 -0.30951,-0.5425 -0.60745,-1.0136 -0.1378,-1.5579 0.17001,-0.198 0.18086,-0.2896 0.092,-0.3208 l -0.22975,0 c -0.47825,0 -0.87303,-0.2657 -0.87303,-0.6415 l 0,-1.5579 c -10.53463,-0.9806 -20.38954,-5.04395 -28.53476,-11.77606 l -1.10279,1.09971 -0.41356,0.13753 c -0.23121,0 -0.45526,-0.088 -0.64328,-0.27493 l -0.2757,-0.22911 c -0.004,10e-4 -0.0222,0.055 -0.046,0.32075 -0.0472,0.71848 -0.59589,0.84495 -1.1947,1.00807 -0.39627,0.10813 -0.85854,0.27309 -1.42444,0.59569 -0.99639,0.55717 -3.29459,3.53557 -5.33016,6.1859 -0.85854,1.11617 -1.73948,2.20115 -2.48128,3.11575 -0.83502,1.0356 -1.86099,1.6038 -3.03269,1.6038 -1.81649,0 -3.67029,-1.371 -4.31927,-3.20748 -0.57659,-1.63307 -0.10336,-3.24597 1.33254,-4.39884 0.90539,-0.72765 1.97454,-1.5396 3.07864,-2.38272 2.67959,-2.0473 5.72716,-4.36768 6.29511,-5.3611 0.31944,-0.56086 0.44222,-1.07039 0.55139,-1.46628 0.16304,-0.59751 0.29865,-1.13271 1.01089,-1.19135 0.26541,-0.0183 0.32659,-0.0458 0.2757,-0.13753 l -0.1378,-0.18327 c -0.18877,-0.18329 -0.31981,-0.41423 -0.32166,-0.6415 -10e-4,-0.16496 0.0768,-0.30425 0.18381,-0.41239 l 1.10278,-1.09971 c -6.76047,-8.12689 -10.87995,-17.96015 -11.85501,-28.45508 l -1.51633,0 c -0.37477,0 -0.68925,-0.33907 -0.68925,-0.82478 l 0,-0.36658 c -0.007,0 -0.0818,0.0146 -0.27569,0.18328 -0.1974,0.17229 -0.42716,0.27494 -0.64331,0.27494 -0.30069,0 -0.56719,-0.16496 -0.91899,-0.36658 -0.35822,-0.20343 -0.79915,-0.47104 -1.42444,-0.6415 -0.2226,-0.0623 -0.58669,-0.0917 -1.05685,-0.0917 -1.62403,0 -4.39739,0.38124 -7.07625,0.73314 -1.42223,0.18879 -2.80494,0.37942 -3.99761,0.50405 -0.19374,0.0221 -0.37055,0 -0.5514,0 -2.7219,0 -3.99762,-2.1976 -3.99762,-4.26139 0,-2.06748 1.27004,-4.30722 3.99762,-4.30722 0.17957,0 0.35914,0.0256 0.5514,0.0458 1.14377,0.12459 2.49782,0.28044 3.85976,0.45821 2.73769,0.36292 5.552,0.73314 7.2141,0.73314 0.47899,0 0.83132,-0.0312 1.05685,-0.0917 0.6216,-0.17229 1.06677,-0.39406 1.42444,-0.59566 0.3518,-0.19979 0.6181,-0.36658 0.91899,-0.36658 0.21836,0 0.44866,0.0586 0.64331,0.22909 l 0.22974,0.13753 0.046,-0.0458 0,-0.2291 c 0,-0.48021 0.31447,-0.87061 0.68924,-0.87061 l 1.51635,0 c 0.97432,-10.49677 5.09379,-20.32453 11.85502,-28.45507 l -1.10279,-1.05389 c -0.26064,-0.25844 -0.19318,-0.76613 0.13781,-1.09971 l 0.22974,-0.27493 c -10e-4,-10e-4 -0.0976,-0.0294 -0.36759,-0.0457 -0.71152,-0.0568 -0.84788,-0.59384 -1.0109,-1.19134 -0.10912,-0.39774 -0.23269,-0.85779 -0.5514,-1.42048 -0.56647,-0.98974 -3.58849,-3.28448 -6.24916,-5.31528 -1.11657,-0.8541 -2.2113,-1.69355 -3.12458,-2.42854 -1.43951,-1.15286 -1.9084,-2.76394 -1.33254,-4.39884 0.64845,-1.83837 2.49909,-3.2075 4.31927,-3.2075 1.17025,0 2.24309,0.52603 3.07863,1.55793 0.71883,0.8926 1.51046,1.93916 2.34344,3.02421 2.06847,2.69063 4.41908,5.76065 5.42207,6.32334 0.56002,0.31892 1.02963,0.43989 1.42443,0.54987 0.59956,0.16495 1.14083,0.33541 1.1947,1.05388 0.0148,0.20528 0.0301,0.27494 0.0918,0.27494 l 0.092,-0.0457 0.1378,-0.13753 c 0.19096,-0.18693 0.41722,-0.32075 0.64329,-0.32075 l 0.4595,0.1833 1.05685,1.09971 c 8.13897,-6.73392 17.9994,-10.80101 28.53474,-11.77609 l 0,-1.55793 c 0,-0.36473 0.39848,-0.68733 0.87304,-0.68733 l 0.32165,0 c 0,-0.004 -0.007,-0.0769 -0.1838,-0.27492 -0.46611,-0.54069 -0.16946,-1.02273 0.13781,-1.55793 0.2053,-0.36106 0.42734,-0.78996 0.59735,-1.42046 0.3073,-1.09238 -0.15935,-4.84973 -0.59735,-8.15621 -0.186,-1.39662 -0.3812,-2.76943 -0.50544,-3.94062 -0.13851,-1.24086 0.19021,-2.30391 0.91898,-3.11586 0.78906,-0.87794 2.00673,-1.37464 3.35433,-1.37464 1.346893,0 2.564003,0.4967 3.354333,1.37464 0.730224,0.81195 1.052624,1.875 0.919004,3.11586 -0.12501,1.14553 -0.32369,2.48534 -0.50545,3.84898 -0.445164,3.34862 -0.948414,7.14263 -0.643294,8.24785 0.17167,0.62134 0.440184,1.06488 0.643294,1.42046 0.3073,0.54069 0.56426,1.01907 0.092,1.55793 -0.17167,0.20345 -0.14207,0.23828 -0.046,0.27492 l 0.22976,0 c 0.47749,0 0.82709,0.3171 0.82709,0.68733 l 0,1.55793 c 10.52596,0.97323 20.38585,5.03668 28.53475,11.77609 l 1.1028,-1.09971 c 0.10617,-0.11179 0.24555,-0.1833 0.41355,-0.1833 0.23047,0 0.45581,0.12839 0.64328,0.32075 l 0.2757,0.1833 c 0.004,-10e-4 0.0697,-0.0146 0.0918,-0.27494 0.0482,-0.71113 0.54939,-0.89076 1.14876,-1.05388 0.39774,-0.10813 0.90686,-0.23095 1.47039,-0.54987 0.99305,-0.55902 3.25891,-3.55023 5.28421,-6.18588 0.86732,-1.1272 1.73322,-2.23975 2.48128,-3.16167 0.83573,-1.0374 1.90692,-1.55793 3.07862,-1.55793 1.81648,0 3.67027,1.37098 4.31928,3.2075 0.57585,1.63307 0.0572,3.24598 -1.37849,4.39884 -0.91549,0.73499 -2.00965,1.57444 -3.12458,2.42854 -2.66507,2.03447 -5.6849,4.31821 -6.24916,5.31528 -0.31889,0.56086 -0.44223,1.07039 -0.55139,1.46629 -0.16431,0.5975 -0.2994,1.09605 -1.01091,1.14553 -0.26336,0.0201 -0.3209,0.0862 -0.27568,0.1833 l 0.1838,0.13753 c 0.33728,0.3299 0.39701,0.83395 0.13795,1.0997 l -1.1028,1.0539 c 6.7524,8.13236 10.82759,17.95831 11.80906,28.45508 l 1.5623,0 c 0.37128,0 0.64329,0.40138 0.64329,0.87059 l 0.046,0.32076 c 0.004,0 0.0762,-0.0112 0.2757,-0.1833 0.1983,-0.17044 0.38046,-0.2291 0.59736,-0.2291 0.30087,0 0.56941,0.16863 0.91899,0.36658 0.35895,0.20162 0.8394,0.4252 1.47039,0.59566 0.22697,0.0623 0.57437,0.0917 1.05683,0.0917 1.64262,0 4.42404,-0.33175 7.12222,-0.68732 1.39135,-0.1833 2.73839,-0.37942 3.90571,-0.50405 0.1939,-0.0201 0.41575,-0.0458 0.59734,-0.0458 1.45311,0 2.60627,0.66717 3.30838,1.87868 0.83446,1.44062 0.83446,3.37063 0,4.81125 -0.70284,1.21336 -1.85379,1.87868 -3.30838,1.87868 -0.18011,0 -0.35895,0.0221 -0.55139,0 -1.15591,-0.12459 -2.53018,-0.32075 -3.90572,-0.50405 -2.71397,-0.3574 -5.51197,-0.73314 -7.16816,-0.73314 -0.48542,0 -0.82782,0.0294 -1.05683,0.0917 -0.62308,0.1723 -1.11272,0.43988 -1.47039,0.64149 -0.35179,0.19979 -0.61757,0.36658 -0.91899,0.36658 -0.21616,0 -0.40142,-0.10631 -0.59736,-0.27493 l -0.22974,-0.13752 -0.0918,0.0917 0,0.22911 c 0,0.46922 -0.27202,0.82479 -0.6433,0.82479 l -1.56229,0 c -0.98295,10.50226 -5.05594,20.33369 -11.80907,28.45508 l 1.1028,1.0997 0.13795,0.4124 c 0,0.22726 -0.0897,0.45639 -0.2757,0.6415 l -0.22976,0.27492 c 0.001,10e-4 0.0551,0.0714 0.32165,0.0917 0.71278,0.0532 0.84658,0.54986 1.0109,1.14554 0.10926,0.3959 0.23175,0.90727 0.55139,1.46629 0.56004,0.98791 3.56184,3.24781 6.2032,5.26945 1.13221,0.86694 2.24438,1.72472 3.17055,2.47437 1.43876,1.15283 1.9534,2.76943 1.37848,4.3988 -0.64845,1.83648 -2.50059,3.20748 -4.31927,3.20748 -1.17321,0 -2.24218,-0.5663 -3.07862,-1.6037 -0.73154,-0.9036 -1.58582,-1.96298 -2.43534,-3.07005 -2.04678,-2.66311 -4.37514,-5.66533 -5.37612,-6.23167 -0.55929,-0.31527 -1.03093,-0.48938 -1.42443,-0.59569 -0.60104,-0.16679 -1.1006,-0.29142 -1.14875,-1.00806 -0.0166,-0.20529 -0.0769,-0.27494 -0.13794,-0.27494 l -0.046,0 -0.18379,0.18329 c -0.18676,0.18512 -0.4165,0.27493 -0.64331,0.27493 l -0.41354,-0.13753 -1.1028,-1.0997 c -8.13879,6.73027 -17.99942,10.79542 -28.53476,11.77602 l 0,1.5579 c 0,0.3703 -0.35326,0.6415 -0.82709,0.6415 l -0.3676,0.046 c 0,0 0.0112,0.079 0.1838,0.275 0.46961,0.5443 0.21962,1.0154 -0.092,1.5579 -0.20403,0.3556 -0.469434,0.8064 -0.643304,1.4205 -0.30363,1.1033 0.19814,4.8644 0.643304,8.202 0.18453,1.3746 0.37991,2.7419 0.50545,3.8948 0.13513,1.239 -0.19024,2.3076 -0.919004,3.1159 -0.78978,0.8797 -2.00598,1.3746 -3.354333,1.3746 z m 0.22974,-31.02104 c 5.837827,0 10.568437,-4.67744 10.568437,-10.49308 0,-4.94689 -3.39092,-9.11846 -7.995244,-10.26399 0.092,-1.4663 0.1858,-3.33764 0.32164,-5.5444 l 7.581704,0 c -0.18232,2.15728 -0.47035,2.29108 0.22975,2.29108 0.80761,0 5.42205,-4.12027 5.42205,-4.81125 0,-0.65066 -4.4391,-4.85707 -5.42205,-4.85707 -0.7001,0 -0.41207,0.12093 -0.22975,2.29107 l -7.26005,0 c 0.85283,-13.19654 2.2214,-31.32164 3.44623,-32.53317 1.87751,-1.87868 16.27039,2.93623 19.57456,13.47148 -4.17223,0.76796 -4.66095,0.15397 -4.27332,1.28301 0.40491,1.19317 8.75193,6.57261 9.74135,6.32333 0.94342,-0.22727 4.72288,-8.25884 4.22736,-9.71411 -0.38912,-1.12537 -0.36263,-0.39407 -4.31927,0.82477 -4.17133,-15.01657 -16.84573,-25.98072 -31.843137,-25.98072 -14.99339,0 -27.67972,10.96415 -31.84313,25.98072 -3.95886,-1.21884 -3.9846,-1.95014 -4.36522,-0.82477 -0.49388,1.45527 3.3306,9.48684 4.27332,9.71411 0.9901,0.24928 9.28312,-5.13016 9.69537,-6.32333 0.39628,-1.12904 -0.10968,-0.51505 -4.27331,-1.28301 3.30413,-10.53525 17.70496,-15.35016 19.57457,-13.47148 1.22851,1.21153 2.63273,19.33663 3.49217,32.53317 l -7.306,0 c 0.18086,-2.17009 0.51409,-2.29107 -0.1838,-2.29107 -0.99014,0 -5.42206,4.20641 -5.42206,4.85707 0,0.69098 4.60636,4.81125 5.42206,4.81125 0.69789,0 0.36466,-0.13373 0.1838,-2.29108 l 7.62764,0 c 0.13725,2.26907 0.23049,4.21007 0.32165,5.68185 -4.35954,1.29583 -7.53575,5.35744 -7.53575,10.12654 0,5.81564 4.73209,10.49308 10.56843,10.49308 z m 0,-5.26946 c -2.90843,0 -5.28421,-2.33138 -5.28421,-5.22362 0,-2.90691 2.37578,-5.26947 5.28421,-5.26947 2.906423,0 5.284227,2.36256 5.284227,5.26947 0,2.89224 -2.377834,5.22362 -5.284227,5.22362 z"
         id="path6735"
         inkscape:connector-curvature="0" />
      <path
         inkscape:export-ydpi="108.38"
         inkscape:export-xdpi="108.38"
         inkscape:export-filename="/home/michael/projects/salor-graphics/salor logos/gastroedition2.png"
         inkscape:connector-curvature="0"
         id="path1370"
         d="m 96.264794,1021.4305 c -1.53665,0 -2.9506,-0.5883 -3.8649,-1.6102 -0.86051,-0.9604 -1.23701,-2.2232 -1.08334,-3.6599 0.13064,-1.1449 0.32103,-2.4757 0.49775,-3.8356 0.38417,-2.9118 0.89843,-6.9089 0.62951,-7.8616 l -0.54167,-1.2297 c -0.23818,-0.415 -0.58186,-1.0423 -0.35136,-1.7568 l -0.8491,-1.0834 0,-0.86379 c -10.04967,-1.06027 -19.47179,-4.95495 -27.3471,-11.31654 l -0.60023,0.6003 -0.9223,0.36603 -0.48311,-0.0872 -1.46398,0.8783 -1.25902,0.49793 c -0.85283,0.47628 -3.29054,3.64568 -5.06536,5.95829 -0.84516,1.10642 -1.67101,2.19002 -2.40092,3.08899 -1.22164,1.52139 -2.62635,1.84479 -3.58674,1.84479 -2.12827,0 -4.20994,-1.55343 -4.9629,-3.68926 -0.66844,-1.8901 -0.0855,-3.81713 1.56647,-5.13867 0.89893,-0.72981 1.97564,-1.54877 3.07435,-2.38629 2.32034,-1.78262 5.50362,-4.21954 5.98767,-5.07999 l 0.48311,-1.2591 0.99551,-1.50785 -0.0439,-0.30739 0.21959,-1.03945 0.60023,-0.61493 c -6.36171,-7.87534 -10.25625,-17.28961 -11.31654,-27.34694 l -0.86375,0 -1.17117,-0.83457 -0.39528,0.0872 -1.27365,-0.45392 -1.24439,-0.55643 -0.86375,-0.0591 c -1.6058,0 -4.31927,0.35703 -6.93926,0.70267 -1.37528,0.1845 -2.71885,0.36575 -4.50903,0.52704 -3.05026,0 -4.65546,-2.50343 -4.65546,-4.97747 0,-2.45098 1.58528,-4.93361 5.21176,-4.93361 0.0307,0 2.54889,0.29868 3.90883,0.48303 2.62765,0.34578 5.36201,0.70281 6.98316,0.70281 l 0.86375,-0.0591 1.24439,-0.55629 1.27365,-0.45391 0.48311,0.0872 1.08334,-0.81981 0.86375,0 c 1.06029,-10.04958 4.95483,-19.47173 11.31654,-27.34707 l -0.60023,-0.61479 -0.20495,-1.36146 -0.95159,-1.49337 -0.49775,-1.27373 c -0.48405,-0.84509 -3.63877,-3.27585 -5.94375,-5.05066 -1.11406,-0.84515 -2.19701,-1.67869 -3.10363,-2.40092 -1.65189,-1.3292 -2.2349,-3.25544 -1.56645,-5.1532 0.74526,-2.13592 2.82767,-3.67457 4.94824,-3.67457 0.96809,0 2.37976,0.31638 3.60138,1.82995 0.72223,0.89896 1.52722,1.9687 2.35701,3.05974 1.79018,2.33568 4.24874,5.51823 5.10927,6.0023 l 1.24439,0.49775 1.47861,0.90765 0.46848,-0.11714 0.92231,0.36599 0.61486,0.60024 c 7.85995,-6.36179 17.26742,-10.25633 27.33246,-11.31663 l 0,-0.86373 0.80518,-1.15656 0.40992,-1.68357 0.54167,-1.24438 c 0.26124,-0.94504 -0.25303,-4.8925 -0.62951,-7.77371 -0.1844,-1.38299 -0.36018,-2.73404 -0.48312,-3.8942 -0.16134,-1.43675 0.20051,-2.71417 1.06872,-3.67457 0.9143,-1.02187 2.31361,-1.61038 3.85025,-1.61038 1.53665,0 2.95059,0.58851 3.864896,1.61038 0.8682,0.9604 1.237,2.23782 1.08335,3.67457 -0.13063,1.13713 -0.2987,2.46801 -0.48312,3.83563 -0.38416,2.90428 -0.905376,6.89419 -0.64415,7.84692 l 0.54168,1.22974 c 0.23818,0.41489 0.59649,1.03454 0.36599,1.75678 l 0.83447,1.08335 0,0.86373 c 10.04967,1.0603 19.47945,4.96946 27.34709,11.33119 l 0.60023,-0.61487 0.93694,-0.36599 0.48312,0.0877 1.43469,-0.87838 1.28831,-0.48312 c 0.84516,-0.48404 3.26894,-3.64575 5.03607,-5.95837 0.85285,-1.1064 1.68566,-2.19703 2.41557,-3.10364 1.22163,-1.52896 2.6333,-1.84462 3.60138,-1.84462 2.12057,0 4.19529,1.55329 4.94825,3.68923 0.66845,1.89007 0.0855,3.81705 -1.56647,5.13855 -0.89125,0.72223 -1.96174,1.53418 -3.04506,2.37165 -2.33572,1.78251 -5.53291,4.23412 -6.01695,5.09461 l -0.48312,1.25896 -0.99549,1.49322 0.0439,0.30754 -0.20497,1.0687 -0.61487,0.6003 c 6.36171,7.8752 10.2709,17.29735 11.33117,27.34707 l 0.84913,0 1.18582,0.83429 0.38063,-0.0858 1.2883,0.45391 1.24439,0.54167 0.83445,0.0731 c 1.59813,0 4.31232,-0.35689 6.92463,-0.70267 1.39066,-0.18449 2.74045,-0.37335 4.53834,-0.52718 1.71334,0 3.11525,0.78859 3.95273,2.22543 0.94506,1.63652 0.93807,3.84549 -0.0146,5.48975 -0.80675,1.40618 -2.17004,2.2108 -4.4212,2.2108 -0.0461,0 -2.60747,-0.31344 -3.9674,-0.49779 -2.63535,-0.34578 -5.39128,-0.70267 -7.01245,-0.70267 l -0.8491,0.0591 -1.22975,0.55629 -1.27365,0.43929 -0.49775,-0.0731 -1.08336,0.83443 -0.84911,0 c -1.06028,10.05746 -4.96944,19.46498 -11.33117,27.33245 l 0.61487,0.61493 0.24887,1.39071 0.90768,1.46398 0.48311,1.27373 c 0.47636,0.85285 3.64573,3.26896 5.95837,5.03597 1.1064,0.84526 2.2047,1.68587 3.10363,2.41568 1.65191,1.32927 2.2349,3.25546 1.56647,5.15326 -0.74527,2.12833 -2.84231,3.67456 -4.96288,3.67456 -0.9681,0 -2.36511,-0.3162 -3.58675,-1.82999 -0.72223,-0.89907 -1.54881,-1.96857 -2.38628,-3.0598 -1.78251,-2.32794 -4.22643,-5.5183 -5.09464,-6.00217 l -1.24439,-0.49779 -1.46396,-0.92217 -0.46849,0.13218 -0.93694,-0.36589 -0.60023,-0.6003 c -7.87531,6.36158 -17.29742,10.25617 -27.34709,11.31654 l 0,0.86379 -0.8052,1.1564 -0.4099,1.6838 -0.54168,1.2442 c -0.261216,0.9373 0.26769,4.8633 0.64415,7.7445 0.18441,1.3984 0.36019,2.7702 0.48312,3.9381 0.16135,1.4367 -0.20818,2.6918 -1.06871,3.6598 -0.914296,1.0219 -2.328246,1.6104 -3.864896,1.6104 z m 0.23423,-31.38752 c 5.754746,0 10.423516,-4.65419 10.423516,-10.409 0,-4.87877 -3.36468,-8.97906 -7.905476,-10.11596 0.0845,-1.44444 0.19843,-3.31551 0.33673,-5.48989 l 7.495556,0 c -0.17672,2.12812 -0.48653,2.26916 0.20495,2.26916 0.79907,0 5.34352,-4.10339 5.34352,-4.78722 0,-0.64544 -4.37542,-4.78722 -5.34352,-4.78722 -0.69148,0 -0.38167,0.13218 -0.20495,2.28379 l -7.188126,0 c 0.845146,-13.05376 2.211756,-30.9936 3.425706,-32.20742 1.84397,-1.84407 16.04521,2.95524 19.29522,13.36608 -4.10285,0.7606 -4.58577,0.15946 -4.20162,1.27358 0.39953,1.17557 8.59095,6.44539 9.57441,6.20733 0.922,-0.23048 4.66407,-8.13774 4.17234,-9.57444 -0.38416,-1.11398 -0.37174,-0.41581 -4.27482,0.79042 -4.10284,-14.85157 -16.59745,-25.66345 -31.387666,-25.66345 -14.79021,0 -27.27018,10.81188 -31.37302,25.66345 -3.90308,-1.20623 -3.90531,-1.9044 -4.28946,-0.79042 -0.48405,1.4367 3.26499,9.34396 4.18697,9.57444 0.97577,0.23806 9.16025,-5.03176 9.55977,-6.20733 0.38416,-1.11412 -0.0987,-0.51298 -4.20161,-1.27358 3.25,-10.41084 17.45124,-15.21015 19.29522,-13.36608 1.21394,1.21382 2.58054,19.15366 3.4257,32.20742 l -7.18812,0 c 0.17673,-2.15118 0.50118,-2.28379 -0.19032,-2.28379 -0.96808,0 -5.35815,4.14178 -5.35815,4.78722 0,0.68383 4.55909,4.78722 5.35815,4.78722 0.6915,0 0.36705,-0.14104 0.19032,-2.26916 l 7.49556,0 c 0.13063,2.23569 0.2522,4.16948 0.33671,5.62165 -4.29493,1.283 -7.42236,5.2746 -7.42236,9.9842 0,5.75481 4.65414,10.409 10.40887,10.409 z m 0,-5.22651 c -2.86583,0 -5.18247,-2.31641 -5.18247,-5.18249 0,-2.86567 2.31664,-5.19699 5.18247,-5.19699 2.86585,0 5.197116,2.33132 5.197116,5.19699 0,2.86608 -2.331266,5.18249 -5.197116,5.18249 z"
         style="fill:none;stroke:#000000;stroke-width:2.4000001;stroke-miterlimit:4;stroke-opacity:1;stroke-dasharray:none" />
      <path
         style="fill:none;stroke:#ffffff;stroke-width:1.60000002;stroke-miterlimit:4;stroke-opacity:0.99215686;stroke-dasharray:none"
         d="m 96.264794,1024.533 c -1.53665,0 -2.9506,-0.5883 -3.8649,-1.6102 -0.86051,-0.9604 -1.23701,-2.2232 -1.08334,-3.6599 0.13064,-1.1449 0.32103,-2.4757 0.49775,-3.8356 0.38417,-2.9118 0.89843,-6.9089 0.62951,-7.8616 l -0.54167,-1.2297 c -0.23818,-0.4149 -0.58186,-1.0422 -0.35136,-1.7567 l -0.8491,-1.0835 0,-0.8637 c -10.04967,-1.0602 -19.47179,-4.95476 -27.3471,-11.31635 l -0.60023,0.6003 -0.9223,0.36603 -0.48311,-0.0872 -1.46398,0.8783 -1.25902,0.49793 c -0.85283,0.47628 -3.29054,3.64568 -5.06536,5.9583 -0.84516,1.10619 -1.67101,2.18979 -2.40092,3.08879 -1.22164,1.5213 -2.62635,1.8448 -3.58674,1.8448 -2.12827,0 -4.20994,-1.5535 -4.9629,-3.6893 -0.66844,-1.88991 -0.0855,-3.81691 1.56647,-5.13845 0.89893,-0.72981 1.97564,-1.54877 3.07435,-2.38629 2.32034,-1.78263 5.50362,-4.21954 5.98767,-5.07999 l 0.48311,-1.2591 0.99551,-1.50785 -0.0439,-0.30739 0.21959,-1.03946 0.60023,-0.61492 c -6.36171,-7.87534 -10.25625,-17.28962 -11.31654,-27.34694 l -0.86375,0 -1.17117,-0.83457 -0.39528,0.0872 -1.27365,-0.45392 -1.24439,-0.55643 -0.86375,-0.0591 c -1.6058,0 -4.31927,0.35703 -6.93926,0.70267 -1.37528,0.18449 -2.71885,0.36575 -4.50903,0.52704 -3.05026,0 -4.65546,-2.50343 -4.65546,-4.97747 0,-2.45099 1.58528,-4.93361 5.21176,-4.93361 0.0307,0 2.54889,0.29868 3.90883,0.48303 2.62765,0.34578 5.36201,0.70281 6.98316,0.70281 l 0.86375,-0.0591 1.24439,-0.55629 1.27365,-0.45391 0.48311,0.0872 1.08334,-0.81981 0.86375,0 c 1.06029,-10.04958 4.95483,-19.47173 11.31654,-27.34707 l -0.60023,-0.61479 -0.20495,-1.36147 -0.95159,-1.49336 -0.49775,-1.27373 c -0.48405,-0.84509 -3.63877,-3.27585 -5.94375,-5.05066 -1.11406,-0.84515 -2.19701,-1.67869 -3.10363,-2.40093 -1.65189,-1.32919 -2.2349,-3.25543 -1.56645,-5.15319 0.74526,-2.13592 2.82767,-3.67457 4.94824,-3.67457 0.96809,0 2.37976,0.31638 3.60138,1.82995 0.72223,0.89896 1.52722,1.9687 2.35701,3.05974 1.79018,2.33568 4.24874,5.51823 5.10927,6.0023 l 1.24439,0.49775 1.47861,0.90765 0.46848,-0.11714 0.92231,0.36599 0.61486,0.60024 c 7.85995,-6.36179 17.26742,-10.25633 27.33246,-11.31663 l 0,-0.86373 0.80518,-1.15656 0.40992,-1.68357 0.54167,-1.24438 c 0.26124,-0.94504 -0.25303,-4.8925 -0.62951,-7.77371 -0.1844,-1.38299 -0.36018,-2.73404 -0.48312,-3.8942 -0.16134,-1.43675 0.20051,-2.71417 1.06872,-3.67457 0.9143,-1.02188 2.31361,-1.61038 3.85025,-1.61038 1.53665,0 2.95059,0.5885 3.864896,1.61038 0.8682,0.9604 1.237,2.23782 1.08335,3.67457 -0.13063,1.13713 -0.2987,2.46801 -0.48312,3.83563 -0.38416,2.90428 -0.905376,6.89419 -0.64415,7.84692 l 0.54168,1.22974 c 0.23818,0.41489 0.59649,1.03454 0.36599,1.75677 l 0.83447,1.08336 0,0.86373 c 10.04967,1.0603 19.47945,4.96946 27.34709,11.33119 l 0.60023,-0.61487 0.93694,-0.36599 0.48312,0.0877 1.43469,-0.87838 1.28831,-0.48312 c 0.84516,-0.48404 3.26894,-3.64575 5.03607,-5.95837 0.85285,-1.1064 1.68566,-2.19703 2.41557,-3.10364 1.22163,-1.52896 2.6333,-1.84462 3.60138,-1.84462 2.12057,0 4.19529,1.55329 4.94825,3.68923 0.66845,1.89007 0.0855,3.81705 -1.56647,5.13855 -0.89125,0.72223 -1.96174,1.53418 -3.04506,2.37165 -2.33572,1.78251 -5.53291,4.23412 -6.01695,5.09461 l -0.48312,1.25895 -0.99549,1.49323 0.0439,0.30754 -0.20497,1.0687 -0.61487,0.6003 c 6.36171,7.8752 10.2709,17.29735 11.33117,27.34707 l 0.84913,0 1.18582,0.83429 0.38063,-0.0858 1.2883,0.45391 1.24439,0.54167 0.83445,0.0731 c 1.59813,0 4.31232,-0.35689 6.92463,-0.70267 1.39066,-0.1845 2.74045,-0.37335 4.53834,-0.52718 1.71334,0 3.11525,0.78859 3.95273,2.22543 0.94506,1.63652 0.93807,3.84549 -0.0146,5.48975 -0.80675,1.40618 -2.17004,2.2108 -4.4212,2.2108 -0.0461,0 -2.60747,-0.31344 -3.9674,-0.49779 -2.63535,-0.34578 -5.39128,-0.70267 -7.01245,-0.70267 l -0.8491,0.0591 -1.22975,0.55629 -1.27365,0.43929 -0.49775,-0.0731 -1.08336,0.83443 -0.84911,0 c -1.06028,10.05746 -4.96944,19.46498 -11.33117,27.33245 l 0.61487,0.61492 0.24887,1.39072 0.90768,1.46398 0.48311,1.27372 c 0.47636,0.85286 3.64573,3.26896 5.95837,5.03598 1.1064,0.84526 2.2047,1.68587 3.10363,2.41568 1.65191,1.32927 2.2349,3.25543 1.56647,5.15304 -0.74527,2.1283 -2.84231,3.6745 -4.96288,3.6745 -0.9681,0 -2.36511,-0.3162 -3.58675,-1.8298 -0.72223,-0.8992 -1.54881,-1.9687 -2.38628,-3.05969 -1.78251,-2.32796 -4.22643,-5.51832 -5.09464,-6.00219 l -1.24439,-0.49779 -1.46396,-0.92217 -0.46849,0.13218 -0.93694,-0.36589 -0.60023,-0.6003 c -7.87531,6.36158 -17.29742,10.25595 -27.34709,11.31635 l 0,0.8637 -0.8052,1.1564 -0.4099,1.6838 -0.54168,1.2442 c -0.261216,0.9374 0.26769,4.8633 0.64415,7.7446 0.18441,1.3983 0.36019,2.7702 0.48312,3.938 0.16135,1.4367 -0.20818,2.6919 -1.06871,3.6599 -0.914296,1.0219 -2.328246,1.6103 -3.864896,1.6103 z m 0.23423,-31.38724 c 5.754746,0 10.423516,-4.65419 10.423516,-10.40901 0,-4.87876 -3.36468,-8.97905 -7.905476,-10.11595 0.0845,-1.44444 0.19843,-3.31551 0.33673,-5.48989 l 7.495556,0 c -0.17672,2.12812 -0.48653,2.26916 0.20495,2.26916 0.79907,0 5.34352,-4.10339 5.34352,-4.78722 0,-0.64544 -4.37542,-4.78722 -5.34352,-4.78722 -0.69148,0 -0.38167,0.13218 -0.20495,2.28379 l -7.188126,0 c 0.845146,-13.05376 2.211756,-30.9936 3.425706,-32.20742 1.84397,-1.84407 16.04521,2.95524 19.29522,13.36608 -4.10285,0.7606 -4.58577,0.15946 -4.20162,1.27358 0.39953,1.17557 8.59095,6.44539 9.57441,6.20732 0.922,-0.23047 4.66407,-8.13773 4.17234,-9.57443 -0.38416,-1.11398 -0.37174,-0.41581 -4.27482,0.79042 -4.10284,-14.85157 -16.59745,-25.66345 -31.387666,-25.66345 -14.79021,0 -27.27018,10.81188 -31.37302,25.66345 -3.90308,-1.20623 -3.90531,-1.9044 -4.28946,-0.79042 -0.48405,1.4367 3.26499,9.34396 4.18697,9.57443 0.97577,0.23807 9.16025,-5.03175 9.55977,-6.20732 0.38416,-1.11412 -0.0987,-0.51298 -4.20161,-1.27358 3.25,-10.41084 17.45124,-15.21015 19.29522,-13.36608 1.21394,1.21382 2.58054,19.15366 3.4257,32.20742 l -7.18812,0 c 0.17673,-2.15118 0.50118,-2.28379 -0.19032,-2.28379 -0.96808,0 -5.35815,4.14178 -5.35815,4.78722 0,0.68383 4.55909,4.78722 5.35815,4.78722 0.6915,0 0.36705,-0.14104 0.19032,-2.26916 l 7.49556,0 c 0.13063,2.23569 0.2522,4.16948 0.33671,5.62165 -4.29493,1.283 -7.42236,5.2746 -7.42236,9.98419 0,5.75482 4.65414,10.40901 10.40887,10.40901 z m 0,-5.22651 c -2.86583,0 -5.18247,-2.31641 -5.18247,-5.1825 0,-2.86566 2.31664,-5.19698 5.18247,-5.19698 2.86585,0 5.197116,2.33132 5.197116,5.19698 0,2.86609 -2.331266,5.1825 -5.197116,5.1825 z"
         id="path6652"
         inkscape:connector-curvature="0"
         inkscape:export-filename="/home/michael/projects/salor-graphics/salor logos/gastroedition2.png"
         inkscape:export-xdpi="108.38"
         inkscape:export-ydpi="108.38" />
      <path
         inkscape:connector-curvature="0"
         id="rect6718"
         d="m 37.248345,1015.856 c -3.037416,0 -5.475,-2.4376 -5.475,-5.475 l 0,-57.17499 c 2.278232,-0.29887 4.519064,-0.575 5.9,-0.575 0.47016,0 0.8274,0.0377 1.05,0.1 0.625288,0.17046 1.066784,0.42157 1.425,0.625 0.3518,0.20163 0.624312,0.375 0.925,0.375 0.216152,0 0.4526,-0.10271 0.65,-0.275 0.193888,-0.16868 0.268,-0.175 0.275,-0.175 l 0,0.35 c 0,0.48572 0.300232,0.825 0.675,0.825 l 1.525,0 c 0.975056,10.49493 5.089528,20.34812 11.85,28.475 l -1.1,1.1 c -0.107008,0.10814 -0.176,0.23504 -0.175,0.4 0.0018,0.22728 0.111232,0.46672 0.3,0.65 l 0.15,0.175 c 0.05089,0.0917 -0.0096,0.13171 -0.275,0.15 -0.71224,0.0586 -0.86196,0.57749 -1.025,1.175 -0.109168,0.39589 -0.23056,0.91414 -0.55,1.475 -0.567952,0.99342 -3.595408,3.30271 -6.275,5.35 -1.104096,0.84312 -2.194608,1.67236 -3.1,2.4 -1.435896,1.15288 -1.901592,2.76693 -1.325,4.39999 0.648984,1.8365 2.508512,3.2 4.325,3.2 1.171704,0 2.189984,-0.5644 3.025,-1.6 0.7418,-0.9146 1.616464,-2.00882 2.475,-3.12499 2.035568,-2.65032 4.353608,-5.61783 5.35,-6.175 0.565904,-0.3226 1.028728,-0.49187 1.425,-0.6 0.598808,-0.16312 1.1278,-0.28152 1.175,-1 0.0238,-0.26575 0.046,-0.324 0.05,-0.325 l 0.275,0.225 c 0.188016,0.18693 0.418792,0.275 0.65,0.275 l 0.425,-0.15 1.1,-1.1 c 8.145216,6.73212 17.990368,10.79439 28.525,11.77499 l 0,1.575 c 0,0.3758 0.396752,0.625 0.875,0.625 l 0.225,0 c 0.08886,0.031 0.09501,0.127 -0.075,0.325 -0.469648,0.5443 -0.184512,1.0325 0.125,1.575 0.201624,0.3556 0.429976,0.7859 0.6,1.4 0.305272,1.1088 -0.205584,4.8849 -0.65,8.25 -0.02326,0.1756 -0.02755,0.3247 -0.05,0.5 l -55.275,0 z m 62.975005,0 c -0.0262,-0.193 -0.049,-0.3561 -0.075,-0.55 -0.445164,-3.3376 -0.928634,-7.0967 -0.625004,-8.2 0.17387,-0.6141 0.42097,-1.0444 0.625004,-1.4 0.31162,-0.5425 0.56961,-1.0307 0.1,-1.575 -0.1726,-0.196 -0.175,-0.275 -0.175,-0.275 l 0.375,-0.05 c 0.47383,0 0.825,-0.2547 0.825,-0.625 l 0,-1.575 c 10.53534,-0.9806 20.38621,-5.04471 28.525,-11.77499 l 1.1,1.1 0.425,0.15 c 0.22681,0 0.43824,-0.0899 0.625,-0.275 l 0.2,-0.175 0.05,0 c 0.061,0 0.1084,0.0697 0.125,0.275 0.0481,0.71664 0.54896,0.83321 1.15,1 0.3935,0.10632 0.86571,0.28473 1.425,0.6 1.00098,0.56634 3.32822,3.56189 5.375,6.225 0.84952,1.10708 1.69346,2.17139 2.425,3.07499 0.83644,1.0374 1.92679,1.6 3.1,1.6 1.81868,0 3.65155,-1.3635 4.3,-3.2 0.57492,-1.62935 0.0638,-3.24715 -1.375,-4.39999 -0.92617,-0.74964 -2.04279,-1.60805 -3.175,-2.475 -2.64136,-2.02164 -5.63996,-4.28708 -6.2,-5.275 -0.31964,-0.55901 -0.44074,-1.07909 -0.55,-1.475 -0.16432,-0.59568 -0.28722,-1.0968 -1,-1.15 -0.26655,-0.0203 -0.324,-0.074 -0.325,-0.075 l 0.225,-0.275 c 0.186,-0.18511 0.275,-0.42273 0.275,-0.65 l -0.125,-0.4 -1.1,-1.1 c 6.75313,-8.12139 10.81705,-17.97273 11.8,-28.475 l 1.55,0 c 0.37128,0 0.65,-0.35578 0.65,-0.825 l 0,-0.225 0.1,-0.075 0.225,0.125 c 0.19594,0.16863 0.38384,0.275 0.6,0.275 0.30142,0 0.57321,-0.1752 0.925,-0.375 0.35767,-0.2016 0.82692,-0.4527 1.45,-0.625 0.22901,-0.0623 0.58958,-0.1 1.075,-0.1 0.763,0 1.77218,0.079 2.9,0.2 l 0,57.54999 c 0,3.0374 -2.43758,5.475 -5.475,5.475 l -52.325,0 z m -3.600005,-23.17499 c -5.836344,0 -10.575,-4.68436 -10.575,-10.5 0,-4.7691 3.190464,-8.82916 7.55,-10.125 -0.09116,-1.47178 -0.187752,-3.40592 -0.325,-5.675 l -7.625,0 c 0.180864,2.15736 0.497888,2.3 -0.2,2.3 -0.815696,0 -5.425,-4.13402 -5.425,-4.825 0,-0.65066 4.434856,-4.85 5.425,-4.85 0.697888,0 0.380856,0.12992 0.2,2.3 l 7.3,0 c -0.85944,-13.19654 -2.271488,-31.33847 -3.5,-32.55 -1.869608,-1.87868 -16.270872,2.93976 -19.575,13.475 4.163632,0.76796 4.67128,0.14596 4.275,1.275 -0.412248,1.19317 -8.709904,6.57428 -9.7,6.325 -0.94272,-0.22727 -4.76888,-8.24472 -4.275,-9.7 0.380616,-1.12536 0.416144,-0.39384 4.375,0.825 4.163408,-15.01656 16.856608,-25.975 31.85,-25.975 14.997405,0 27.653675,10.95844 31.825005,25.975 3.95664,-1.21884 3.93588,-1.95036 4.325,-0.825 0.49552,1.45528 -3.28158,9.47273 -4.225,9.7 -0.98942,0.24928 -9.32009,-5.13183 -9.725,-6.325 -0.38763,-1.12904 0.0778,-0.50704 4.25,-1.275 -3.30417,-10.53524 -17.69749,-15.35368 -19.575,-13.475 -1.22483,1.21153 -2.57217,19.35346 -3.425004,32.55 l 7.250004,0 c -0.18232,-2.17013 -0.4751,-2.3 0.225,-2.3 0.98295,0 5.425,4.19934 5.425,4.85 0,0.69098 -4.61739,4.825 -5.425,4.825 -0.7001,0 -0.40732,-0.14272 -0.225,-2.3 l -7.575004,0 c -0.13584,2.20676 -0.233,4.0837 -0.325,5.55 4.604324,1.14553 8.000004,5.30312 8.000004,10.25 0,5.81564 -4.73718,10.5 -10.575005,10.5 z m 0,-5.275 c 2.906391,0 5.275005,-2.33276 5.275005,-5.225 0,-2.90691 -2.368584,-5.25 -5.275005,-5.25 -2.908432,0 -5.275,2.34309 -5.275,5.25 0,2.89224 2.366568,5.225 5.275,5.225 z m -58.95,-40.875 c -1.388264,0 -3.620128,-0.25342 -5.9,-0.55 l 0,-60.025 c 0,-3.03741 2.437584,-5.475 5.475,-5.475 l 54.925,0 c 0.123304,1.07104 0.286304,2.24588 0.45,3.475 0.438,3.30648 0.907296,7.05762 0.6,8.15 -0.170008,0.63051 -0.394696,1.06395 -0.6,1.425 -0.307272,0.5352 -0.591112,1.00932 -0.125,1.55 0.1768,0.19802 0.175,0.271 0.175,0.275 l -0.325,0 c -0.47456,0 -0.875,0.33528 -0.875,0.7 l 0,1.55 c -10.535336,0.97508 -20.386032,5.04108 -28.525,11.775 l -1.075,-1.1 -0.45,-0.175 c -0.226072,0 -0.45904,0.11308 -0.65,0.3 l -0.125,0.15 -0.1,0.05 c -0.0617,0 -0.0852,-0.0697 -0.1,-0.275 -0.05387,-0.71847 -0.57544,-0.88504 -1.175,-1.05 -0.3948,-0.10998 -0.864976,-0.23108 -1.425,-0.55 -1.002992,-0.56268 -3.356528,-3.63436 -5.425,-6.325 -0.832976,-1.08504 -1.631168,-2.1324 -2.35,-3.025 -0.835536,-1.03189 -1.904752,-1.575 -3.075,-1.575 -1.820184,0 -3.676552,1.38664 -4.325,3.225 -0.575856,1.63491 -0.114512,3.24715 1.325,4.4 0.91328,0.735 2.008432,1.57091 3.125,2.425 2.660672,2.0308 5.683528,4.31027 6.25,5.3 0.318712,0.56269 0.44088,1.02727 0.55,1.425 0.163024,0.59751 0.31348,1.1432 1.025,1.2 0.269992,0.0163 0.374,0.049 0.375,0.05 l -0.25,0.275 c -0.330992,0.33358 -0.38564,0.84156 -0.125,1.1 l 1.1,1.05 c -6.761232,8.13055 -10.87568,17.95324 -11.85,28.45 l -1.525,0 c -0.374768,0 -0.675,0.3948 -0.675,0.875 l 0,0.225 -0.05,0.05 -0.225,-0.15 c -0.194648,-0.17048 -0.43164,-0.225 -0.65,-0.225 -0.300888,0 -0.5732,0.17521 -0.925,0.375 -0.357672,0.2016 -0.8034,0.42772 -1.425,0.6 -0.225528,0.0605 -0.571008,0.075 -1.05,0.075 z m 117.450005,0 c -0.48246,0 -0.84803,-0.0127 -1.075,-0.075 -0.63099,-0.17045 -1.09105,-0.39837 -1.45,-0.6 -0.34958,-0.19795 -0.62413,-0.375 -0.925,-0.375 -0.2169,0 -0.4017,0.0546 -0.6,0.225 -0.1995,0.17211 -0.271,0.2 -0.275,0.2 l -0.05,-0.325 c 0,-0.4692 -0.27872,-0.875 -0.65,-0.875 l -1.55,0 c -0.98147,-10.49676 -5.0476,-20.31764 -11.8,-28.45 l 1.1,-1.05 c 0.25906,-0.26575 0.18728,-0.7701 -0.15,-1.1 l -0.175,-0.15 c -0.0452,-0.0971 0.0116,-0.1549 0.275,-0.175 0.71151,-0.0495 0.83569,-0.5525 1,-1.15 0.10916,-0.3959 0.23111,-0.91413 0.55,-1.475 0.56426,-0.99707 3.58493,-3.26552 6.25,-5.3 1.11493,-0.85409 2.20951,-1.69 3.125,-2.425 1.43569,-1.15285 1.95085,-2.76692 1.375,-4.4 -0.64901,-1.83652 -2.48352,-3.225 -4.3,-3.225 -1.1717,0 -2.26427,0.5376 -3.1,1.575 -0.74806,0.92192 -1.60768,2.0228 -2.475,3.15 -2.0253,2.63565 -4.28195,5.64099 -5.275,6.2 -0.56353,0.31892 -1.07726,0.44188 -1.475,0.55 -0.59937,0.16312 -1.1018,0.33888 -1.15,1.05 -0.0221,0.26034 -0.096,0.274 -0.1,0.275 l -0.275,-0.2 c -0.18747,-0.19236 -0.39453,-0.3 -0.625,-0.3 -0.168,0 -0.31883,0.0632 -0.425,0.175 l -1.1,1.1 c -8.1489,-6.7394 -17.99904,-10.80176 -28.525,-11.775 l 0,-1.55 c 0,-0.37023 -0.34751,-0.7 -0.825,-0.7 l -0.25,0 c -0.0961,-0.0366 -0.12167,-0.0716 0.05,-0.275 0.47226,-0.53886 0.2073,-1.00931 -0.1,-1.55 -0.203114,-0.35558 -0.453334,-0.80365 -0.625004,-1.425 -0.30512,-1.10521 0.17984,-4.90137 0.625004,-8.25 0.15927,-1.19491 0.3257,-2.33136 0.45,-3.375 l 51.95,0 c 3.03742,0 5.475,2.43759 5.475,5.475 l 0,60.4 c -1.12965,0.11198 -2.13827,0.175 -2.9,0.175 z"
         style="fill:url(#linearGradient4859);fill-opacity:1;stroke:none" />
    </g>
  </g>
</svg>
